<?xml version="1.0" encoding="utf-8"?>
<!-- Generator: Adobe Illustrator 16.0.0, SVG Export Plug-In . SVG Version: 6.00 Build 0)  -->
<!DOCTYPE svg PUBLIC "-//W3C//DTD SVG 1.1//EN" "http://www.w3.org/Graphics/SVG/1.1/DTD/svg11.dtd">
<svg version="1.1" id="Capa_1" xmlns="http://www.w3.org/2000/svg" xmlns:xlink="http://www.w3.org/1999/xlink" x="0px" y="0px"
	 width="375.5px" height="149.352px" viewBox="0 0 375.5 149.352" enable-background="new 0 0 375.5 149.352" xml:space="preserve">
<path fill="#00467E" d="M15.302,74.13c0-31.804,25.78-57.586,57.583-57.586c31.802,0,57.583,25.783,57.583,57.586
	c0,31.805-25.781,57.585-57.583,57.585C41.082,131.716,15.302,105.936,15.302,74.13"/>
<path fill="#004E8C" d="M72.885,131.716c24.723,0,45.805-15.581,53.967-37.459L75.765,43.168v31.057l32.395,31.68H75.949
	L60.332,89.847l-15.621,15.992l25.83,25.83C71.319,131.699,72.1,131.716,72.885,131.716"/>
<polygon fill="#FFFFFF" points="75.795,43.224 75.773,74.795 92.051,90.145 108.57,105.768 75.798,105.784 60.523,90.145 
	45.258,105.719 45.2,74.795 59.906,59.658 42.593,43.211 75.795,43.187 "/>
<path fill="#00467E" d="M194.127,41.139c-2.079-0.808-4.296-1.249-6.531-1.264c-13.244,0.224-20.476,9.785-20.639,22.427
	c0.085,11.25,5.243,21.448,17.792,21.663c4.273-0.081,6.125-1.363,9.375-4.065v3.336h12.532V22.51l-12.529,0.997L194.127,41.139
	L194.127,41.139z M194.127,71.156c-1.591,1.423-4.096,2.188-6.19,2.224c-6.384-0.115-7.953-6.493-7.972-11.7
	c0.027-5.475,2.103-11.306,8.498-11.463c1.935,0.016,3.924,0.354,5.665,1.229V71.156L194.127,71.156z"/>
<polygon fill="#00467E" points="152.681,83.233 165.291,83.233 165.291,28.518 152.681,29.513 "/>
<path fill="#00467E" d="M245.793,55.95c-0.058-10.319-6.719-15.942-16.759-16.075c-13.552,0.195-20.721,9.427-20.836,22.442
	c0.114,13.034,7.865,21.451,21.075,21.647c5.498-0.086,10.547-1.081,15.456-3.58l-2.828-9.493
	c-3.805,1.537-7.184,2.358-11.328,2.408c-5.576,0.004-8.853-2.621-9.578-8.163h23.256C245.35,62.164,245.772,59.114,245.793,55.95
	 M233.598,57.079h-12.469c0.32-2.307,1.033-4.013,2.064-5.205c1.149-1.333,2.76-2.049,4.969-2.066
	c3.563,0.026,5.377,2.026,5.544,5.517C233.709,55.926,233.674,56.511,233.598,57.079"/>
<path fill="#00467E" d="M306.364,73.397c-3.613,0.052-4.318-1.815-4.296-5.139V50.555h10.774v-9.933h-11.01v-9.828h-11.638
	l0.015,9.841h-14.947c-1.639-0.495-3.517-0.749-5.645-0.745c-4.464,0.107-6.9,1.632-10.401,4.312v-3.581h-12.608v42.626h12.611
	V53.361c1.899-1.463,4.814-2.599,7.217-2.643c4.237-0.012,5.252,2.662,5.236,6.471V83.25h12.612V55.569
	c-0.002-1.808-0.157-3.483-0.471-5.014h5.645V69.48c-0.062,9.909,4.551,14.557,14.471,14.5c3.632-0.036,7.222-0.732,10.588-2.081
	l-1.703-9.764C310.687,72.887,308.641,73.374,306.364,73.397"/>
<path fill="#00467E" d="M333.35,39.874c-13.603,0.194-21.102,9.186-21.218,22.399c0.058,6.431,1.876,11.686,5.547,15.637
	c3.689,3.972,8.811,5.955,15.194,6.053c13.574-0.201,21.031-9.241,21.148-22.399C353.908,48.734,346.509,40.074,333.35,39.874
	 M339.061,70.937c-1.25,1.995-3.109,3.03-5.736,3.093c-6.883-0.111-8.203-6.836-8.187-12.386c-0.008-5.18,1.325-11.682,7.759-11.833
	c6.88,0.106,8.201,6.849,8.19,12.385C341.089,65.946,340.382,68.833,339.061,70.937"/>
<g>
	<path fill="#00467E" d="M169.046,101.428h-11.29v7.31h10.063v4.492h-10.063v11.76h-5.551V96.809h16.84V101.428z"/>
	<path fill="#00467E" d="M176.601,103.292l0.728,2.818c1.372-1.632,4.283-3.326,7.006-3.199v5.19
		c-2.349-0.084-5.156,0.87-6.59,1.866v15.021h-5.531v-21.697H176.601z"/>
	<path fill="#00467E" d="M201.703,119.65c0,1.037,0.436,1.461,1.123,1.461c0.54,0,0.956-0.146,1.288-0.254l0.438,3.898
		c-0.812,0.359-1.955,0.657-3.244,0.657c-1.767,0-3.118-0.805-3.784-2.31c-1.56,1.483-3.514,2.31-5.426,2.31
		c-3.95,0-6.715-2.415-6.715-6.017c0-5.299,5.135-6.951,11.06-6.271v-2.098c0-2.331-0.999-3.539-3.535-3.539
		c-2.141,0-4.324,0.72-5.51,1.292l-1.081-3.983c1.415-0.805,4.388-1.928,7.298-1.928c5.239,0,8.087,2.648,8.087,7.268V119.65z
		 M193.241,121.282c1.144,0,2.287-0.53,3.202-1.294v-3.728c-2.682-0.446-5.801,0.019-5.801,2.584
		C190.642,120.369,191.661,121.282,193.241,121.282z"/>
	<path fill="#00467E" d="M211.441,103.292l0.562,2.332c1.331-1.314,3.659-2.755,6.403-2.755c2.766,0,4.74,0.953,5.864,2.84
		c2.037-1.803,4.49-2.84,7.027-2.84c4.615,0,7.005,2.521,7.005,7.84v14.28h-5.509v-13.411c0-2.755-0.998-4.027-3.182-4.027
		c-1.186,0-2.806,0.614-4.22,1.717c0.021,0.488,0.021,0.996,0.021,1.482v14.239h-5.51v-13.411c0-2.755-0.998-4.027-3.18-4.027
		c-1.289,0-3.098,0.763-4.2,1.738v15.7h-5.531v-21.697H211.441z"/>
	<path fill="#00467E" d="M247.064,115.307c0.229,3.687,2.245,5.487,5.635,5.487c2.348,0,4.303-0.594,5.591-1.101l1.186,4.066
		c-1.351,0.656-3.951,1.653-7.464,1.653c-6.548,0-10.52-4.492-10.52-11.061c0-6.887,3.949-11.483,10.395-11.483
		c5.282,0,8.254,3.263,8.254,8.072c0,1.844-0.313,3.434-0.645,4.365H247.064z M247.125,112.107h7.61
		c0.103-0.488,0.146-0.976,0.146-1.506c-0.084-2.225-1.354-3.516-3.451-3.516C248.852,107.086,247.374,108.886,247.125,112.107z"/>
	<path fill="#00467E" d="M294.556,103.292l-6.215,21.697h-6.674l-3.556-12.564l-3.533,12.564h-6.696l-6.195-21.697h5.905
		l3.928,15.701l0.542-1.313l3.66-14.175h4.802l3.658,14.175l0.541,1.313l3.929-15.701H294.556z"/>
	<path fill="#00467E" d="M295.438,114.331c0-6.865,4.012-11.462,10.603-11.462c6.424,0,10.333,4.49,10.333,11.08
		c0,6.845-4.012,11.464-10.583,11.464C299.368,125.413,295.438,120.921,295.438,114.331z M310.656,114.289
		c0-4.387-1.54-7.203-4.844-7.203c-3.141,0-4.638,2.816-4.638,6.907c0,4.363,1.52,7.204,4.846,7.204
		C309.14,121.197,310.656,118.379,310.656,114.289z"/>
	<path fill="#00467E" d="M324.262,103.292l0.727,2.818c1.372-1.632,4.284-3.326,7.007-3.199v5.19c-2.35-0.084-5.153,0.87-6.59,1.866
		v15.021h-5.531v-21.697H324.262z"/>
	<path fill="#00467E" d="M340.217,93.631v19.473l7.193-9.812h6.026l-6.59,8.984l7.175,12.713h-6.198l-5.091-9.28l-2.516,3.37v5.91
		h-5.531V94.075L340.217,93.631z"/>
</g>
</svg>
