<svg id="Grupo_126" data-name="Grupo 126" xmlns="http://www.w3.org/2000/svg" width="59.275" height="59.275" viewBox="0 0 59.275 59.275">
  <g id="Grupo_125" data-name="Grupo 125">
    <path id="Trazado_721" data-name="Trazado 721" d="M55.375,23.008h-2.73a2.193,2.193,0,0,1-2.34-1.95,2.944,2.944,0,0,1,.39-3.12l1.56-1.56a3.54,3.54,0,0,0,1.17-2.73,6.674,6.674,0,0,0-2.73-5.07c-1.56-1.56-3.51-2.73-5.07-2.73a3.3,3.3,0,0,0-2.34.78l-1.95,1.95a2.956,2.956,0,0,1-1.56.78,3.014,3.014,0,0,1-3.12-2.73V4.29C36.267,1.95,33.147,0,29.637,0c-3.9,0-6.629,1.56-6.629,4.29v2.73a2.026,2.026,0,0,1-.78,1.56c-1.17.78-3.51,1.17-4.29.39l-1.56-1.56a3.54,3.54,0,0,0-2.73-1.17,6.674,6.674,0,0,0-5.07,2.73c-2.73,2.73-3.51,5.849-1.95,7.409l1.95,1.95a2.446,2.446,0,0,1,.39,3.12c-.39.78-1.17,1.95-2.34,1.95H4.29C1.95,23.4,0,26.128,0,30.027s1.56,6.629,4.29,6.629h2.73a2.193,2.193,0,0,1,2.34,1.95,2.944,2.944,0,0,1-.39,3.12L7.409,42.9a3.54,3.54,0,0,0-1.17,2.73,6.674,6.674,0,0,0,2.73,5.07c1.56,1.56,3.51,2.73,5.07,2.73a3.3,3.3,0,0,0,2.34-.78l1.95-1.95a2.956,2.956,0,0,1,1.56-.78,3.348,3.348,0,0,1,3.12,2.73v2.34c0,2.73,2.73,4.29,6.629,4.29s6.629-1.56,6.629-4.29v-2.73a2.026,2.026,0,0,1,.78-1.56c1.17-1.17,3.51-1.17,4.29-.39l1.56,1.56a3.54,3.54,0,0,0,2.73,1.17,6.674,6.674,0,0,0,5.07-2.73c2.73-2.73,3.51-5.849,1.95-7.409l-1.95-1.56a2.446,2.446,0,0,1-.39-3.12,2.88,2.88,0,0,1,2.34-1.95h2.34c2.73,0,4.29-2.73,4.29-6.629S57.715,23.008,55.375,23.008Zm-.78,8.969h-1.95c-2.73,0-5.07,1.95-6.239,4.68s-.78,5.459,1.56,7.409l1.56,1.56c0,.39-.39,1.17-1.56,1.95a3.563,3.563,0,0,1-1.95,1.17l-1.17-1.17a6.458,6.458,0,0,0-4.68-1.95,7.08,7.08,0,0,0-5.46,2.34,6.458,6.458,0,0,0-1.95,4.68V54.6a13.789,13.789,0,0,1-2.34.39,13.789,13.789,0,0,1-2.34-.39v-1.95c0-3.51-3.51-7.019-7.409-7.019a6.458,6.458,0,0,0-4.68,1.95l-1.56,1.56c-.39,0-1.17-.39-1.95-1.56a3.563,3.563,0,0,1-1.17-1.95l.39-1.17a7.073,7.073,0,0,0,1.17-7.8,6.326,6.326,0,0,0-6.239-4.29H4.68a13.789,13.789,0,0,1-.39-2.34,13.789,13.789,0,0,1,.39-2.34h1.95a7.747,7.747,0,0,0,6.239-4.68,7.073,7.073,0,0,0-1.17-7.8l-1.56-1.56c.39-.39.78-1.17,1.56-1.95a3.563,3.563,0,0,1,1.95-1.17l1.17,1.17a7.2,7.2,0,0,0,4.68,1.95,7.08,7.08,0,0,0,5.46-2.34,5.559,5.559,0,0,0,2.34-4.68V4.68a13.789,13.789,0,0,1,2.34-.39,13.789,13.789,0,0,1,2.34.39v1.95c0,3.51,3.51,7.019,7.409,7.019h0a6.458,6.458,0,0,0,4.68-1.95l1.56-1.56c.39,0,1.17.39,1.95,1.56a3.563,3.563,0,0,1,1.17,1.95l-1.17,1.17a7.073,7.073,0,0,0-1.17,7.8c1.17,2.73,3.51,4.68,6.239,4.68H54.6a13.789,13.789,0,0,1,.39,2.34C54.985,30.807,54.985,31.587,54.6,31.977Z" fill="#336693"/>
    <path id="Trazado_722" data-name="Trazado 722" d="M17.749,4.1A13.817,13.817,0,0,0,4.1,17.749,13.817,13.817,0,0,0,17.749,31.4a15.89,15.89,0,0,0,7.019-1.95,2.056,2.056,0,0,0,.78-2.73,2.107,2.107,0,0,0-3.12-.78,9.263,9.263,0,0,1-4.68,1.17A9.489,9.489,0,0,1,8.39,17.749,9.489,9.489,0,0,1,17.749,8.39a9.489,9.489,0,0,1,9.359,9.359,16.585,16.585,0,0,1-.78,4.29,2.237,2.237,0,0,0,.78,2.73,2.237,2.237,0,0,0,2.73-.78,16.342,16.342,0,0,0,1.56-5.849A13.9,13.9,0,0,0,17.749,4.1Z" transform="translate(11.889 11.889)" fill="#336693"/>
  </g>
</svg>
