<?xml version="1.0" standalone="no"?>
<!DOCTYPE svg PUBLIC "-//W3C//DTD SVG 20010904//EN"
 "http://www.w3.org/TR/2001/REC-SVG-20010904/DTD/svg10.dtd">
<svg version="1.0" xmlns="http://www.w3.org/2000/svg"
 width="2081.000000pt" height="1308.000000pt" viewBox="0 0 2081.000000 1308.000000"
 preserveAspectRatio="xMidYMid meet">

<g transform="translate(0.000000,1308.000000) scale(0.100000,-0.100000)"
fill="#000000" stroke="none">
<path d="M3775 12307 c-3 -6 -4 -174 -3 -372 l3 -360 598 -3 597 -2 0 -1100 0
-1100 -597 -2 -598 -3 0 -370 0 -370 598 -3 597 -2 0 -860 0 -860 -600 0 -600
0 0 -360 0 -360 1065 0 1065 0 0 3070 0 3070 -1060 0 c-842 0 -1062 -3 -1065
-13z"/>
<path d="M3060 12303 c-431 -29 -736 -109 -993 -260 -419 -245 -686 -636 -789
-1153 -20 -102 -23 -143 -23 -370 1 -225 3 -267 23 -360 116 -541 429 -962
887 -1190 66 -33 154 -71 195 -86 41 -14 77 -28 79 -30 2 -2 -26 -43 -61 -91
-36 -48 -81 -113 -100 -143 -33 -52 -767 -1294 -1266 -2140 -63 -107 -128
-216 -143 -241 -16 -25 -29 -49 -29 -52 0 -4 235 -6 523 -5 l522 3 104 180
c57 99 134 234 171 300 37 66 304 533 594 1039 l526 919 0 372 0 372 -102 12
c-295 36 -517 137 -693 316 -151 154 -235 327 -277 569 -35 208 -16 459 51
650 103 292 344 509 662 595 81 22 265 51 323 51 l36 0 0 375 0 375 -87 -2
c-49 -1 -108 -3 -133 -5z"/>
<path d="M9551 9479 c-53 -27 -81 -70 -81 -125 0 -61 29 -90 146 -145 131 -61
162 -99 133 -162 -28 -61 -124 -75 -215 -30 -47 23 -57 25 -65 12 -14 -22 -6
-32 47 -59 38 -20 63 -25 119 -25 117 1 175 50 175 149 0 44 -4 53 -38 85 -24
22 -68 47 -116 65 -136 51 -168 106 -102 172 44 44 107 49 181 13 37 -18 41
-18 53 -2 6 9 12 20 12 23 0 16 -81 43 -140 47 -53 3 -73 0 -109 -18z"/>
<path d="M12165 9483 c-76 -26 -149 -102 -170 -177 -66 -226 141 -419 375
-350 29 9 71 27 92 41 38 24 39 25 22 44 -15 17 -19 17 -33 5 -60 -54 -198
-73 -276 -37 -50 22 -109 86 -125 136 -7 20 -10 65 -8 101 7 105 74 181 182
204 61 13 142 -1 194 -32 26 -16 35 -18 47 -8 25 20 18 30 -42 57 -74 34 -185
41 -258 16z"/>
<path d="M13030 9491 c-92 -30 -177 -107 -198 -179 -41 -137 17 -273 144 -337
52 -26 69 -30 139 -29 129 1 213 51 265 158 30 60 32 72 28 133 -8 112 -62
190 -163 234 -54 24 -171 35 -215 20z m205 -69 c72 -39 108 -95 113 -176 5
-80 -10 -127 -57 -179 -48 -53 -101 -77 -177 -77 -226 -1 -327 272 -152 413
76 61 180 68 273 19z"/>
<path d="M14714 9481 c-73 -33 -106 -99 -84 -166 14 -43 43 -64 155 -112 97
-42 129 -73 127 -124 -2 -88 -139 -120 -236 -54 l-36 24 -14 -21 c-14 -20 -14
-23 6 -36 35 -25 116 -52 154 -52 120 0 201 81 179 179 -10 48 -55 84 -153
125 -50 21 -100 48 -111 60 -23 24 -27 66 -11 97 27 50 130 66 202 30 39 -19
42 -19 54 -3 17 23 3 37 -53 56 -61 21 -129 20 -179 -3z"/>
<path d="M6990 9219 l0 -270 25 3 c26 3 26 3 28 113 l2 110 76 3 77 3 62 -111
c64 -114 73 -124 109 -118 19 3 14 14 -48 120 l-69 116 37 24 c50 32 73 81 68
141 -5 57 -30 95 -78 119 -27 14 -60 18 -161 18 l-128 0 0 -271z m248 220 c62
-21 87 -111 46 -166 -28 -38 -83 -54 -169 -51 l-70 3 -1 105 c-1 58 0 108 3
113 6 11 156 8 191 -4z"/>
<path d="M7520 9220 l0 -270 170 0 c163 0 170 1 170 20 0 18 -8 20 -142 22
l-143 3 -3 103 -3 102 111 0 c103 0 110 1 110 20 0 18 -8 20 -107 22 l-108 3
-3 103 -3 102 136 0 c128 0 135 1 135 20 0 19 -7 20 -160 20 l-160 0 0 -270z"/>
<path d="M7992 9223 l3 -268 27 -3 27 -3 3 108 3 108 110 5 c123 6 151 17 185
73 27 44 27 131 0 175 -34 56 -85 72 -233 72 l-128 0 3 -267z m252 213 c68
-28 95 -101 61 -166 -24 -46 -62 -60 -165 -60 l-90 0 0 120 0 120 80 0 c46 0
95 -6 114 -14z"/>
<path d="M8492 9223 l3 -268 28 -3 27 -3 0 116 0 116 76 -3 77 -3 64 -112 c59
-104 67 -113 94 -113 l29 0 -19 38 c-10 20 -40 72 -65 115 -25 43 -46 81 -46
85 0 4 15 14 32 22 47 24 70 73 65 142 -2 44 -9 64 -28 84 -41 45 -77 54 -214
54 l-125 0 2 -267z m254 212 c66 -27 82 -124 29 -178 -28 -27 -69 -37 -162
-37 l-63 0 0 115 0 115 80 0 c48 0 95 -6 116 -15z"/>
<path d="M9020 9220 l0 -270 170 0 c163 0 170 1 170 20 0 18 -8 20 -142 22
l-143 3 -3 103 -3 102 116 0 c108 0 115 1 115 20 0 18 -8 20 -112 22 l-113 3
0 100 0 100 138 3 c129 2 137 4 137 22 0 19 -7 20 -165 20 l-165 0 0 -270z"/>
<path d="M9950 9220 l0 -270 170 0 c163 0 170 1 170 20 0 18 -8 20 -142 22
l-143 3 -3 102 -3 102 113 3 c97 3 113 5 116 20 3 15 -9 18 -110 20 l-113 3
-3 103 -3 102 136 0 c128 0 135 1 135 20 0 19 -7 20 -160 20 l-160 0 0 -270z"/>
<path d="M10430 9221 l0 -271 26 0 25 0 -3 225 c-2 124 0 224 3 223 4 -2 45
-53 90 -113 265 -349 252 -335 282 -335 l27 0 0 270 0 270 -27 0 -28 0 3 -225
c2 -150 -1 -225 -8 -225 -5 0 -10 4 -10 9 0 4 -73 105 -163 222 -133 174 -169
215 -190 217 l-27 3 0 -270z"/>
<path d="M10970 9470 c0 -18 8 -20 108 -22 l107 -3 3 -247 2 -248 25 0 25 0 0
250 0 250 105 0 c98 0 105 1 105 20 0 19 -7 20 -240 20 -232 0 -240 -1 -240
-20z"/>
<path d="M11647 9483 c-9 -14 -207 -519 -207 -527 0 -4 12 -6 27 -4 23 3 30
13 57 86 l31 82 124 -2 124 -3 31 -82 c28 -77 33 -83 58 -83 16 0 28 2 28 3 0
2 -32 84 -71 183 -150 381 -135 349 -168 352 -16 2 -31 -1 -34 -5z m43 -68 c0
-8 18 -61 41 -117 23 -57 43 -109 46 -115 4 -10 -19 -13 -96 -13 -56 0 -101 2
-101 4 0 2 20 56 45 119 25 64 45 120 45 126 0 6 5 11 10 11 6 0 10 -7 10 -15z"/>
<path d="M12630 9220 l0 -270 25 0 25 0 0 270 0 270 -25 0 -25 0 0 -270z"/>
<path d="M13550 9221 l0 -271 25 0 26 0 -3 230 c-2 127 -3 230 -2 230 0 0 79
-103 175 -230 152 -200 178 -229 202 -230 l27 0 0 270 0 270 -25 0 -25 0 -2
-226 -3 -226 -170 223 c-141 186 -175 225 -197 227 l-28 3 0 -270z"/>
<path d="M14180 9220 l0 -270 170 0 c163 0 170 1 170 20 0 18 -8 20 -142 22
l-143 3 -3 103 -3 102 111 0 c103 0 110 1 110 20 0 19 -7 20 -110 20 l-110 0
0 105 0 105 135 0 c128 0 135 1 135 20 0 19 -7 20 -160 20 l-160 0 0 -270z"/>
<path d="M8540 8519 c-144 -15 -260 -68 -344 -160 -73 -78 -99 -146 -99 -259
-1 -72 3 -93 27 -142 55 -115 167 -193 431 -298 186 -74 226 -107 209 -173
-30 -121 -264 -111 -459 19 -31 20 -57 35 -59 33 -28 -36 -157 -211 -170 -230
l-17 -27 75 -50 c222 -148 537 -183 751 -83 87 40 167 117 208 200 30 61 32
72 32 171 0 95 -3 110 -27 156 -36 69 -130 153 -219 196 -41 20 -132 58 -203
84 -153 57 -210 94 -214 143 -13 136 223 156 423 36 32 -19 60 -35 64 -35 6 0
134 228 146 260 3 10 -11 26 -47 50 -133 86 -322 127 -508 109z"/>
<path d="M11840 8520 c-110 -11 -193 -35 -300 -87 -80 -40 -109 -61 -185 -137
-98 -99 -146 -179 -181 -306 -28 -99 -24 -289 8 -395 86 -287 327 -475 644
-501 142 -12 319 27 416 91 21 14 40 25 43 25 3 0 5 -23 5 -50 l0 -51 148 3
147 3 0 390 0 390 -255 3 c-140 1 -259 1 -265 -2 -6 -2 -9 -55 -7 -145 l3
-141 105 0 105 0 -3 -57 -3 -58 -60 -32 c-246 -131 -530 -53 -638 175 -30 63
-32 74 -32 182 0 104 3 121 27 172 53 114 145 184 283 213 88 19 152 19 239 0
71 -15 175 -59 225 -95 l29 -20 87 126 88 126 -29 23 c-43 35 -158 90 -250
118 -64 20 -288 53 -314 46 -3 -1 -39 -5 -80 -9z"/>
<path d="M17040 8518 c-94 -10 -189 -42 -259 -89 -71 -48 -112 -93 -149 -169
-23 -48 -26 -67 -27 -155 0 -123 19 -170 97 -248 72 -70 138 -107 333 -187
196 -80 235 -106 235 -156 0 -50 -15 -73 -63 -95 -98 -44 -262 -6 -410 95 -21
14 -39 26 -41 26 -6 0 -176 -230 -182 -245 -7 -17 68 -73 155 -115 220 -108
474 -118 668 -26 209 99 298 329 203 523 -55 111 -153 178 -390 268 -152 57
-195 79 -226 112 -27 29 -30 50 -12 88 44 96 248 91 421 -11 32 -19 60 -34 62
-34 2 0 37 61 78 135 l75 135 -32 25 c-121 92 -344 144 -536 123z"/>
<path d="M7000 7805 l0 -695 483 2 482 3 3 143 3 142 -306 0 -305 0 0 135 0
135 230 0 230 0 0 145 0 145 -230 0 -231 0 3 125 3 126 285 2 285 2 3 143 3
142 -471 0 -470 0 0 -695z"/>
<path d="M9330 7805 l0 -695 178 2 177 3 5 215 5 215 195 6 c233 6 277 19 385
108 102 84 155 210 155 366 0 236 -125 402 -345 460 -48 12 -127 15 -407 15
l-348 0 0 -695z m651 382 c92 -62 113 -186 47 -283 -37 -54 -77 -67 -215 -72
l-123 -4 0 191 0 191 129 0 c117 0 131 -2 162 -23z"/>
<path d="M10592 7808 l3 -693 180 0 180 0 3 693 2 692 -185 0 -185 0 2 -692z"/>
<path d="M13125 8483 c-7 -18 -149 -404 -290 -788 -40 -110 -103 -281 -139
-379 -36 -99 -66 -186 -66 -193 0 -10 38 -13 180 -13 163 0 181 2 188 18 4 9
25 76 47 147 l41 130 234 0 235 0 45 -135 c25 -74 49 -141 53 -147 9 -15 367
-19 367 -5 0 8 -62 179 -309 852 -38 102 -97 263 -132 358 l-63 172 -192 0
c-173 0 -193 -2 -199 -17z m220 -368 c3 -21 33 -128 66 -237 32 -109 59 -200
59 -203 0 -8 -288 -6 -293 3 -2 4 16 68 40 142 24 74 56 180 69 235 35 136 34
133 43 115 5 -8 12 -33 16 -55z"/>
<path d="M14132 7808 l3 -693 180 0 180 0 3 233 2 232 88 0 87 0 133 -235 134
-235 199 0 c109 0 199 3 199 6 0 8 -272 463 -312 521 -15 23 -28 43 -28 45 0
2 24 21 53 42 63 46 111 107 140 178 31 78 31 259 -2 340 -29 75 -104 156
-180 197 -103 55 -157 61 -539 61 l-342 0 2 -692z m643 382 c16 -8 40 -31 53
-50 20 -30 23 -45 20 -100 -2 -48 -9 -74 -26 -98 -39 -54 -73 -66 -204 -70
l-118 -4 0 172 0 172 123 -4 c83 -2 131 -8 152 -18z"/>
<path d="M15502 7808 l3 -693 483 -3 482 -2 0 145 0 145 -300 0 -300 0 0 135
0 135 225 0 225 0 0 145 0 145 -225 0 -226 0 3 125 3 126 280 2 280 2 3 143 3
142 -471 0 -470 0 2 -692z"/>
<path d="M15310 6789 c-87 -15 -143 -37 -211 -86 -51 -36 -69 -41 -69 -19 0
29 -55 56 -115 56 -70 0 -119 -28 -259 -149 -52 -45 -64 -58 -141 -146 -36
-42 -165 -245 -165 -260 0 -3 -9 -27 -21 -53 -32 -72 -37 -84 -50 -127 -6 -22
-15 -51 -20 -65 -66 -209 -100 -561 -80 -834 11 -160 16 -202 42 -366 38 -238
86 -366 202 -540 259 -388 596 -588 884 -525 291 63 511 214 678 465 230 345
361 886 326 1346 -7 87 -16 177 -21 199 -5 22 -14 67 -20 100 -23 118 -89 302
-144 405 -169 316 -366 516 -576 584 -62 20 -173 27 -240 15z m104 -180 c112
-20 251 -115 343 -234 37 -49 122 -186 145 -235 47 -102 61 -139 89 -223 131
-400 128 -850 -10 -1317 -17 -58 -37 -121 -44 -140 -8 -19 -20 -50 -27 -69
-78 -204 -235 -396 -389 -476 -132 -68 -358 -85 -461 -35 -204 100 -333 237
-477 509 -129 243 -193 536 -193 885 1 315 59 605 169 842 45 95 126 218 169
256 49 43 125 95 151 103 22 7 23 5 17 -21 -15 -58 -18 -161 -7 -183 6 -11 25
-28 42 -36 28 -15 33 -15 61 2 33 19 36 27 63 140 9 40 28 93 41 118 41 72 74
94 179 118 36 8 80 7 139 -4z"/>
<path d="M8158 6721 c-48 -16 -85 -50 -102 -92 -33 -81 5 -136 132 -190 133
-56 168 -96 141 -161 -25 -62 -127 -77 -215 -33 -44 22 -50 23 -64 9 -13 -14
-12 -18 14 -39 58 -46 171 -58 243 -25 73 33 104 120 69 189 -19 35 -47 53
-148 96 -45 19 -92 44 -105 56 -32 31 -30 71 5 110 24 27 37 33 85 37 45 3 65
0 98 -17 23 -12 42 -21 43 -19 1 2 7 11 15 20 11 15 7 19 -30 39 -47 23 -138
34 -181 20z"/>
<path d="M10465 6719 c-70 -21 -115 -88 -115 -170 0 -61 22 -105 71 -142 56
-41 163 -40 220 2 38 28 42 27 34 -11 -27 -126 -134 -205 -237 -177 -32 8 -43
8 -49 -3 -14 -21 -11 -28 17 -38 71 -27 198 4 251 61 34 37 72 128 79 190 22
193 -113 337 -271 288z m136 -62 c61 -41 95 -128 69 -178 -16 -28 -83 -59
-130 -59 -135 0 -190 156 -84 239 37 29 101 28 145 -2z"/>
<path d="M6997 6713 c-4 -3 -7 -125 -7 -271 l0 -264 148 4 c169 4 214 18 271
83 47 54 62 97 63 181 1 61 -4 82 -28 131 -34 69 -96 115 -174 132 -55 12
-263 15 -273 4z m294 -60 c24 -11 58 -36 75 -55 93 -106 62 -284 -60 -347 -42
-21 -67 -26 -153 -29 l-103 -4 0 232 0 233 99 -6 c66 -3 113 -11 142 -24z"/>
<path d="M7610 6450 l0 -270 170 0 c163 0 170 1 170 20 0 19 -7 20 -145 20
l-145 0 0 105 0 105 110 0 c103 0 110 1 110 20 0 19 -7 20 -110 20 l-111 0 3
103 3 102 133 3 c124 2 132 4 132 22 0 19 -7 20 -160 20 l-160 0 0 -270z"/>
<path d="M8520 6451 l0 -271 123 0 c153 0 212 16 272 71 55 51 80 113 80 199
-1 81 -18 132 -61 180 -58 64 -117 83 -276 88 l-138 4 0 -271z m302 197 c88
-41 124 -112 115 -226 -6 -83 -41 -137 -112 -172 -41 -20 -68 -25 -152 -28
l-103 -4 0 224 c0 124 3 228 8 232 4 5 48 6 98 4 69 -4 104 -11 146 -30z"/>
<path d="M9130 6450 l0 -270 170 0 c163 0 170 1 170 20 0 19 -7 20 -145 20
l-145 0 0 105 0 105 115 0 c108 0 115 1 115 20 0 18 -8 20 -112 22 l-113 3 0
100 0 100 138 3 c125 2 138 4 135 20 -3 15 -21 17 -166 20 l-162 2 0 -270z"/>
<path d="M9841 6659 c-58 -56 -62 -62 -48 -77 15 -14 21 -12 67 27 l50 42 0
-215 0 -216 -65 0 c-58 0 -65 -2 -65 -20 0 -19 7 -20 155 -20 148 0 155 1 155
20 0 18 -7 20 -65 20 l-65 0 0 250 0 250 -27 0 c-20 -1 -46 -18 -92 -61z"/>
<path d="M10820 6700 c0 -18 8 -20 158 -22 l158 -3 -59 -110 c-147 -277 -197
-373 -197 -379 0 -4 12 -6 26 -4 23 3 42 33 160 253 74 138 134 258 134 268 0
16 -16 17 -190 17 -183 0 -190 -1 -190 -20z"/>
<path d="M11331 6659 c-58 -56 -62 -62 -47 -77 15 -15 20 -13 61 28 25 24 46
41 46 37 1 -4 1 -16 1 -27 0 -11 0 -105 -1 -210 l-1 -190 -65 0 c-58 0 -65 -2
-65 -20 0 -19 7 -20 160 -20 153 0 160 1 160 20 0 18 -7 20 -65 20 l-65 0 0
250 0 250 -27 0 c-20 0 -46 -18 -92 -61z"/>
<path d="M13295 6499 c-70 -13 -162 -36 -237 -59 -34 -11 -79 -25 -98 -31 -37
-11 -162 -55 -195 -69 -11 -4 -51 -20 -90 -35 -108 -43 -282 -127 -368 -179
-43 -25 -81 -46 -83 -46 -8 0 -289 -185 -292 -192 -2 -5 -8 -8 -12 -8 -27 0
-404 -287 -476 -362 -47 -48 -74 -99 -74 -136 0 -126 137 -145 275 -37 32 25
62 45 67 45 11 0 10 -76 -2 -163 -5 -40 -15 -108 -20 -152 -6 -44 -15 -100
-20 -125 -5 -25 -14 -74 -21 -110 -27 -148 -119 -468 -159 -555 -59 -130 -110
-289 -110 -346 0 -72 25 -92 111 -87 89 5 125 29 384 257 51 45 247 204 315
256 36 28 67 52 70 55 24 24 299 213 400 275 158 96 359 188 485 224 108 29
139 34 250 35 175 2 279 -34 385 -131 137 -125 171 -317 105 -578 -74 -289
-251 -563 -574 -885 -259 -259 -488 -430 -746 -558 -99 -49 -105 -52 -185 -83
-53 -21 -67 -25 -155 -49 -267 -71 -397 -45 -426 84 -10 45 -9 61 5 103 9 28
23 59 31 69 20 26 19 118 -1 138 -26 27 -90 20 -123 -11 -29 -29 -96 -150
-119 -214 -16 -46 -16 -202 0 -248 28 -81 94 -154 163 -179 46 -17 131 -32
179 -32 43 0 195 22 271 39 183 41 433 145 631 263 58 35 113 68 122 73 60 36
291 210 382 289 103 89 357 355 431 451 275 357 399 679 399 1035 0 158 -16
243 -66 345 -68 138 -197 232 -384 279 -182 46 -435 33 -690 -35 -85 -22 -179
-53 -228 -75 -29 -13 -55 -24 -58 -24 -13 0 -255 -126 -337 -176 -84 -51 -345
-229 -357 -243 -3 -3 -30 -25 -61 -48 -31 -23 -62 -47 -70 -55 -8 -7 -37 -31
-64 -53 -28 -22 -63 -52 -80 -67 -20 -18 -31 -24 -33 -15 -1 7 22 89 53 182
72 222 69 211 103 355 56 234 83 382 102 565 15 137 21 153 73 189 406 284
737 469 992 555 113 38 233 62 308 63 81 2 108 -20 123 -98 18 -90 64 -115
132 -74 40 25 72 75 72 116 0 135 -105 246 -264 280 -69 15 -73 15 -141 3z"/>
<path d="M10180 6210 c0 -27 3 -30 30 -30 27 0 30 3 30 30 0 27 -3 30 -30 30
-27 0 -30 -3 -30 -30z"/>
<path d="M17088 5462 c-72 -52 -128 -142 -269 -428 -149 -303 -136 -285 -234
-315 -104 -31 -135 -54 -135 -99 0 -40 65 -47 115 -14 11 8 25 14 32 14 28 0
21 -17 -126 -295 -57 -107 -72 -152 -59 -179 15 -35 65 -36 96 -3 12 13 22 26
22 30 0 3 11 30 24 59 14 30 34 78 46 107 11 30 30 74 41 98 10 24 29 64 40
91 61 136 70 153 91 162 47 19 277 60 374 66 117 8 108 16 119 -101 21 -233
86 -409 165 -450 45 -23 84 -18 205 25 13 5 27 27 39 61 69 198 308 579 361
579 18 0 32 -79 40 -220 9 -152 28 -257 58 -323 26 -58 70 -97 110 -97 28 0
87 27 87 41 0 19 22 8 53 -27 58 -67 127 -80 212 -40 64 30 123 85 173 161 46
68 111 199 132 265 19 58 20 232 1 280 -27 66 -82 110 -140 110 -39 0 -130
-41 -155 -69 -11 -12 -31 -21 -46 -21 -33 0 -87 -56 -124 -127 -59 -118 -109
-314 -105 -417 l3 -58 -40 -14 c-57 -20 -63 -18 -81 24 -19 45 -42 201 -43
295 0 61 -12 173 -25 234 -3 12 -17 35 -31 52 -21 26 -33 31 -68 31 -39 0 -48
-5 -99 -57 -59 -61 -123 -144 -156 -204 -11 -19 -27 -41 -35 -48 -9 -8 -16
-21 -16 -30 0 -13 -2 -13 -9 -2 -5 8 -5 26 -1 40 4 14 13 53 20 86 7 33 17 75
22 93 7 22 6 43 -2 67 -10 31 -16 35 -46 35 -44 0 -59 -29 -69 -130 -6 -65
-74 -494 -78 -495 -1 0 -19 -8 -40 -18 -21 -9 -46 -17 -56 -17 -44 0 -74 96
-120 381 -16 100 -17 99 27 99 52 0 76 -26 67 -73 -6 -29 -4 -36 13 -41 64
-21 93 86 39 144 -25 28 -94 59 -128 60 -34 0 -38 11 -44 133 -16 311 -40 422
-103 490 -35 37 -92 37 -144 -1z m95 -94 c27 -62 37 -117 52 -284 22 -247 32
-218 -82 -233 -106 -14 -290 -48 -303 -56 -5 -3 -15 -2 -23 1 -13 5 -12 13 8
59 59 132 146 311 206 423 33 62 87 122 109 122 12 0 25 -12 33 -32z m1604
-433 c48 -34 57 -165 19 -278 -22 -66 -37 -97 -107 -226 -13 -24 -47 -67 -74
-96 -78 -81 -158 -96 -189 -36 -57 109 -1 323 129 496 25 33 45 62 45 66 0 14
41 51 77 69 47 23 72 25 100 5z"/>
<path d="M17824 5162 c-21 -16 -49 -48 -62 -70 -21 -38 -22 -43 -6 -49 9 -3
22 -2 29 3 7 5 32 22 56 38 l43 29 41 -23 c121 -68 135 -73 168 -59 68 26 121
103 86 124 -5 4 -28 -5 -49 -19 -49 -33 -78 -33 -121 -1 -84 62 -128 68 -185
27z"/>
<path d="M19390 5017 c-124 -47 -308 -231 -348 -349 -18 -52 3 -91 60 -112 45
-16 192 -36 266 -36 47 0 76 -13 109 -50 31 -34 29 -58 -7 -102 -71 -86 -300
-154 -330 -98 -7 13 -8 32 -2 53 17 62 -12 78 -48 27 -42 -59 -26 -133 37
-171 28 -18 46 -21 111 -18 65 3 89 10 146 39 70 36 149 109 166 155 6 15 10
53 10 85 0 48 -5 64 -25 88 -39 46 -159 82 -276 82 -65 0 -119 21 -119 46 0
62 117 188 233 253 49 28 110 27 149 -1 37 -26 62 -15 66 30 6 63 -113 111
-198 79z"/>
<path d="M17700 3965 c-380 -22 -758 -63 -1095 -117 -66 -11 -147 -23 -180
-28 -86 -13 -221 -38 -480 -90 -68 -14 -225 -49 -263 -59 -21 -6 -77 -20 -127
-32 -110 -26 -384 -100 -445 -119 -14 -5 -65 -21 -115 -35 -139 -42 -248 -76
-270 -84 -11 -5 -36 -13 -55 -19 -42 -13 -237 -80 -265 -91 -11 -5 -54 -21
-95 -36 -61 -21 -196 -73 -325 -124 -42 -17 -72 -30 -128 -55 -32 -14 -62 -26
-67 -26 -5 0 -25 -9 -45 -20 -20 -11 -40 -20 -45 -20 -5 0 -53 -20 -107 -45
-54 -26 -107 -50 -118 -55 -49 -21 -559 -274 -635 -316 -150 -81 -482 -272
-580 -334 -52 -33 -102 -63 -110 -67 -8 -3 -33 -18 -55 -33 -22 -15 -60 -38
-85 -52 -25 -14 -74 -42 -110 -63 -36 -21 -79 -46 -97 -56 -17 -10 -50 -29
-72 -43 -22 -15 -43 -26 -46 -26 -3 0 -36 -20 -75 -45 -39 -25 -72 -45 -75
-45 -9 0 -324 -206 -410 -268 -49 -36 -135 -98 -190 -137 -256 -183 -452 -344
-590 -482 -83 -84 -165 -196 -152 -209 3 -3 49 39 104 94 88 89 253 230 358
307 22 16 42 32 45 35 18 22 570 390 585 390 2 0 52 29 112 64 178 105 554
299 733 379 19 8 65 29 103 46 37 17 70 31 72 31 2 0 30 12 62 26 97 44 120
54 190 80 38 14 82 32 98 39 17 7 57 23 90 35 33 12 96 36 140 52 83 31 487
165 565 188 25 7 65 19 90 27 65 21 271 76 460 123 47 12 101 25 120 30 41 10
96 23 200 45 41 9 93 20 115 25 78 18 433 82 545 100 122 19 350 51 430 60 47
6 119 15 160 20 41 5 134 14 205 20 72 6 173 15 225 20 370 37 1404 49 1887
21 260 -14 242 -16 333 36 19 11 80 43 135 73 55 29 105 56 110 61 6 4 51 29
100 55 50 25 95 50 100 54 6 4 37 22 70 40 33 18 83 45 110 60 28 15 102 55
165 90 115 63 133 73 290 160 47 26 114 63 150 82 36 20 85 47 110 60 25 14
72 40 105 58 33 18 66 38 74 46 18 16 10 19 -64 29 -27 3 -81 10 -120 15 -405
51 -737 70 -1235 68 -223 0 -502 -6 -620 -13z"/>
<path d="M1867 3945 c-104 -21 -221 -82 -305 -160 -123 -114 -193 -232 -231
-387 -21 -85 -21 -104 -21 -1010 0 -882 1 -926 20 -1000 39 -156 124 -298 238
-396 72 -62 145 -103 247 -139 l80 -28 1545 -3 c973 -2 1575 1 1626 7 259 32
468 193 572 443 63 151 63 149 59 1159 -3 889 -3 916 -23 984 -82 277 -286
476 -543 531 -96 20 -3161 19 -3264 -1z m3273 -82 c99 -34 187 -90 267 -170
106 -105 158 -196 212 -368 22 -73 29 -1697 7 -1814 -59 -317 -279 -550 -574
-610 -74 -15 -3020 -15 -3094 0 -289 59 -504 275 -569 573 -19 84 -19 128 -17
950 3 837 4 863 24 932 37 127 99 229 199 330 101 102 185 152 307 184 71 18
124 19 1623 17 l1550 -2 65 -22z"/>
<path d="M1904 3301 c45 -7 38 9 101 -226 15 -55 29 -108 32 -119 8 -29 25 -3
25 40 0 22 -6 64 -15 94 -9 30 -27 91 -39 135 l-24 80 -59 1 c-49 1 -53 1 -21
-5z"/>
<path d="M2168 3115 l3 -195 24 0 25 0 0 189 0 190 28 4 c15 2 2 5 -28 6 l-55
1 3 -195z"/>
<path d="M3218 3303 l23 -4 -3 -190 c-3 -170 -1 -189 13 -189 21 0 26 26 23
115 -1 39 -3 116 -3 173 l-1 102 -37 -1 c-25 -1 -30 -3 -15 -6z"/>
<path d="M2384 3275 c-3 -8 -3 -19 1 -25 10 -16 35 7 28 26 -7 18 -22 18 -29
-1z"/>
<path d="M2378 3030 c-3 -99 -1 -110 15 -110 15 0 17 12 17 110 0 89 -3 110
-14 110 -12 0 -15 -22 -18 -110z"/>
<path d="M2778 3030 c-3 -96 -1 -110 13 -110 14 0 17 15 21 88 5 86 -2 132
-21 132 -6 0 -11 -48 -13 -110z"/>
<path d="M3553 3133 c-9 -3 -13 -34 -13 -109 0 -97 1 -104 20 -104 19 0 20 7
20 98 0 100 -6 122 -27 115z"/>
<path d="M3640 3122 c0 -24 8 -32 26 -25 20 7 17 20 -6 33 -17 9 -20 8 -20 -8z"/>
<path d="M2521 3104 c-30 -38 -29 -114 2 -149 l22 -26 0 100 c0 56 -1 101 -2
101 -1 0 -11 -12 -22 -26z"/>
<path d="M2640 3096 c0 -29 4 -36 19 -36 18 0 19 3 9 30 -15 44 -28 46 -28 6z"/>
<path d="M2920 3025 c0 -96 2 -105 19 -105 16 0 19 10 24 83 3 61 1 88 -9 105
-27 42 -34 24 -34 -83z"/>
<path d="M3070 3025 c0 -94 2 -105 18 -105 16 0 18 10 17 93 0 50 -4 98 -8
105 -20 30 -27 5 -27 -93z"/>
<path d="M3395 3029 l0 -100 22 28 c31 38 31 108 0 145 l-22 27 0 -100z"/>
<path d="M3751 3104 c-30 -38 -29 -114 2 -149 l22 -26 0 100 c0 56 -1 101 -2
101 -1 0 -11 -12 -22 -26z"/>
<path d="M3885 3029 l0 -100 24 27 c20 24 23 36 19 81 -3 35 -11 61 -24 73
-19 19 -19 18 -19 -81z"/>
<path d="M2686 2688 c-39 -35 -156 -193 -146 -196 11 -4 169 97 199 127 26 26
27 67 2 81 -26 13 -26 13 -55 -12z"/>
<path d="M2000 2689 c-162 -27 -312 -157 -377 -326 -31 -81 -42 -235 -24 -324
27 -130 122 -269 230 -338 84 -54 163 -74 271 -68 57 2 112 11 138 22 l42 17
0 64 c0 35 -1 64 -3 64 -2 0 -23 -10 -48 -22 -37 -19 -60 -23 -144 -23 -95 0
-103 2 -163 34 -240 130 -285 470 -90 664 71 71 132 98 233 104 79 5 92 2 198
-42 16 -7 18 -1 15 66 l-3 73 -50 17 c-66 22 -157 30 -225 18z"/>
<path d="M2009 2370 c-75 -39 -139 -146 -139 -230 0 -88 73 -205 147 -236 47
-20 117 -17 163 6 38 19 79 75 95 128 12 41 -10 22 -35 -30 -32 -67 -77 -98
-140 -98 -89 0 -110 47 -110 241 0 138 9 180 45 203 36 23 117 21 140 -4 16
-18 17 -21 1 -44 -21 -33 -20 -59 2 -79 29 -27 59 -21 77 14 15 28 15 33 -2
67 -28 57 -74 82 -147 82 -40 -1 -73 -7 -97 -20z"/>
<path d="M2545 2381 c-60 -11 -105 -39 -119 -73 -17 -39 -10 -67 21 -81 20 -9
27 -7 45 11 20 20 21 25 9 58 -17 47 -3 62 65 70 40 5 54 2 73 -14 23 -17 25
-27 25 -98 l1 -79 -80 -13 c-94 -16 -150 -44 -182 -91 -27 -39 -29 -80 -8
-121 40 -77 165 -79 236 -4 29 31 34 30 49 -6 15 -37 37 -50 82 -50 37 1 59
14 77 48 11 21 -1 33 -14 12 -10 -16 -42 -12 -49 6 -3 9 -6 91 -6 182 0 180
-7 208 -50 229 -34 15 -126 23 -175 14z m123 -280 c4 -55 -21 -124 -52 -144
-67 -44 -126 -11 -126 71 0 77 57 124 145 119 28 -2 30 -5 33 -46z"/>
<path d="M3232 2380 c-37 -9 -66 -32 -90 -72 -24 -40 -32 -35 -32 22 l0 50
-90 0 c-88 0 -126 -16 -52 -22 l37 -3 3 -212 2 -212 -37 -3 c-21 -2 -38 -7
-38 -13 0 -6 50 -11 123 -13 97 -2 123 0 120 10 -3 7 -19 14 -36 16 l-32 3 0
107 c0 139 13 211 45 260 29 44 61 65 101 65 50 0 54 -19 54 -234 l0 -198 -32
-3 c-17 -2 -33 -9 -36 -15 -3 -10 25 -13 117 -13 66 0 122 4 126 9 6 11 -31
25 -44 16 -20 -12 -25 24 -22 145 3 159 14 203 61 250 44 44 83 54 110 31 18
-15 20 -31 21 -216 l1 -200 -32 -5 c-17 -3 -32 -9 -33 -15 -1 -6 46 -11 121
-13 104 -2 122 0 122 13 0 10 -10 15 -34 15 l-34 0 -4 183 c-4 209 -12 234
-82 262 -71 29 -150 -2 -196 -78 l-18 -28 -21 44 c-29 60 -94 86 -169 67z"/>
<path d="M4050 2381 c-107 -22 -167 -120 -94 -153 19 -9 28 -8 44 7 17 15 19
26 14 65 -7 55 -4 59 63 67 39 4 53 1 72 -15 23 -17 25 -27 25 -98 l1 -78 -78
-13 c-157 -27 -224 -93 -196 -195 24 -92 162 -105 240 -22 29 31 34 30 49 -6
15 -36 37 -50 79 -50 43 0 60 9 76 41 20 39 19 45 -6 23 -15 -14 -24 -16 -37
-8 -15 10 -18 37 -22 197 -5 174 -6 188 -26 208 -33 33 -123 46 -204 30z m124
-301 c0 -75 -21 -115 -68 -135 -78 -33 -136 58 -91 145 9 17 17 30 18 30 1 0
20 7 42 15 22 8 54 14 70 12 l30 -2 -1 -65z"/>
<path d="M4694 2371 c-17 -11 -38 -33 -45 -50 -21 -46 -39 -39 -39 14 l0 45
-95 0 c-57 0 -95 -4 -95 -10 0 -5 20 -10 45 -10 l45 0 0 -214 0 -215 -42 -3
c-23 -2 -43 -9 -46 -15 -3 -10 30 -13 143 -13 113 0 146 3 143 13 -3 6 -24 14
-49 17 l-44 5 2 136 c1 74 6 154 12 176 21 78 81 125 81 64 0 -30 22 -61 43
-61 27 0 57 32 57 59 0 62 -62 95 -116 62z"/>
<path d="M5061 2379 c-77 -15 -120 -53 -121 -106 0 -47 43 -69 75 -37 12 12
14 27 9 64 l-6 48 40 13 c22 6 56 9 76 5 30 -6 37 -12 46 -44 6 -20 10 -62 8
-92 l-3 -55 -80 -13 c-130 -21 -195 -71 -195 -151 0 -78 42 -121 120 -121 50
0 73 11 121 57 l37 35 7 -23 c21 -70 102 -93 150 -44 38 37 34 57 -6 33 -17
-11 -22 -10 -35 6 -11 16 -14 58 -14 192 0 166 -1 174 -23 199 -33 40 -113 53
-206 34z m128 -281 c-1 -99 -41 -160 -105 -160 -36 0 -74 43 -74 84 0 79 52
123 153 127 26 1 27 0 26 -51z"/>
<path d="M4035 1488 c0 -118 2 -133 18 -136 15 -3 17 9 17 132 0 123 -2 136
-17 136 -16 0 -18 -13 -18 -132z"/>
<path d="M2968 1593 c-28 -33 -38 -61 -38 -111 0 -51 30 -110 60 -120 13 -5
13 -3 1 12 -20 24 -21 196 -2 219 18 23 -2 22 -21 0z"/>
<path d="M3090 1603 c0 -5 7 -17 15 -27 14 -19 15 -19 15 7 0 17 -5 27 -15 27
-8 0 -15 -3 -15 -7z"/>
<path d="M3220 1430 c0 -70 2 -80 18 -80 15 0 17 10 16 68 -1 90 -2 92 -19 92
-12 0 -15 -16 -15 -80z"/>
<path d="M3280 1496 c0 -18 16 -29 30 -21 13 8 1 35 -16 35 -8 0 -14 -6 -14
-14z"/>
<path d="M3440 1433 c5 -72 7 -78 28 -81 21 -3 22 -1 13 17 -6 11 -11 44 -11
74 0 49 -9 67 -33 67 -1 0 0 -35 3 -77z"/>
<path d="M3550 1430 c0 -61 3 -80 14 -80 9 0 15 20 19 67 6 74 2 93 -19 93
-11 0 -14 -18 -14 -80z"/>
<path d="M3648 1430 c3 -61 7 -80 18 -80 18 0 20 130 2 148 -21 21 -23 14 -20
-68z"/>
<path d="M3828 1483 c4 -16 6 -41 5 -58 -3 -48 6 -75 25 -75 16 0 17 8 14 68
-4 68 -14 92 -38 92 -9 0 -11 -8 -6 -27z"/>
<path d="M4226 1442 c0 -77 6 -92 37 -92 16 0 18 3 9 12 -7 7 -12 39 -12 74 0
56 -8 74 -33 74 -1 0 -2 -31 -1 -68z"/>
<path d="M3364 1487 c-8 -21 2 -35 16 -21 5 5 6 15 0 24 -8 12 -10 12 -16 -3z"/>
<path d="M3757 1486 c-6 -15 1 -26 15 -26 4 0 8 9 8 20 0 23 -15 27 -23 6z"/>
<path d="M3941 1486 c-7 -8 -14 -30 -18 -48 -4 -27 0 -41 18 -62 l24 -27 0 75
c0 78 -4 87 -24 62z"/>
<path d="M4155 1487 c-4 -10 -5 -21 -1 -24 10 -10 18 4 13 24 -4 17 -4 17 -12
0z"/>
<path d="M3082 1415 c0 -20 -6 -42 -12 -50 -17 -21 3 -19 29 3 12 9 25 32 30
50 9 31 8 32 -19 32 -25 0 -28 -3 -28 -35z"/>
<path d="M3366 1417 c-29 -21 -17 -61 18 -65 27 -3 28 -2 13 13 -20 19 -21 37
-5 53 16 16 -4 15 -26 -1z"/>
<path d="M3754 1409 c-23 -26 -9 -53 32 -57 27 -3 28 -2 10 11 -13 10 -17 22
-14 40 6 32 -2 34 -28 6z"/>
<path d="M4156 1417 c-11 -8 -17 -23 -14 -38 2 -18 10 -25 33 -27 28 -3 29 -2
11 11 -14 10 -17 21 -12 40 7 31 6 32 -18 14z"/>
<path d="M12167 1488 c-20 -82 -31 -233 -32 -438 0 -231 0 -236 25 -285 27
-54 61 -78 94 -66 35 14 32 39 -6 43 -59 5 -63 28 -62 313 1 170 6 279 16 340
8 50 13 96 10 103 -7 21 -39 14 -45 -10z"/>
<path d="M17581 1463 c-21 -97 -33 -273 -29 -458 3 -179 4 -193 28 -240 27
-54 61 -78 94 -66 35 14 32 39 -6 43 -40 4 -54 29 -70 121 -12 74 -3 324 17
482 20 149 19 165 -4 165 -15 0 -22 -11 -30 -47z"/>
<path d="M11298 1482 c-31 -9 -60 -20 -64 -24 -4 -5 -13 -8 -20 -8 -7 0 -41
-13 -76 -30 -35 -16 -76 -34 -91 -39 -37 -14 -56 -56 -35 -77 13 -14 19 -13
52 7 l36 21 -6 -113 c-8 -125 -16 -159 -39 -159 -8 0 -22 -11 -31 -25 -20 -30
-5 -56 29 -52 21 2 22 -4 30 -93 12 -152 46 -230 100 -230 43 0 44 23 2 46
-32 17 -47 80 -53 210 l-4 121 32 12 c41 14 85 14 110 1 24 -13 52 -2 48 19
-7 35 -91 50 -168 30 -19 -5 -19 49 0 136 7 33 14 78 15 100 2 36 6 41 41 57
68 29 197 60 228 54 34 -7 66 -33 66 -53 0 -19 18 -16 29 5 14 25 -12 80 -44
92 -38 15 -122 11 -187 -8z"/>
<path d="M11555 1390 c-11 -17 5 -50 25 -50 20 0 32 23 24 45 -7 17 -40 20
-49 5z"/>
<path d="M17766 1384 c-8 -21 11 -44 35 -44 14 0 19 7 19 30 0 25 -4 30 -24
30 -13 0 -27 -7 -30 -16z"/>
<path d="M15741 1274 c-6 -32 -11 -75 -11 -96 0 -39 -4 -44 -67 -94 -53 -42
-42 -88 12 -54 18 11 35 17 38 13 4 -3 7 -36 7 -73 0 -134 31 -230 80 -250 25
-10 34 -9 61 6 36 21 43 33 30 53 -7 11 -13 10 -32 -8 -27 -25 -33 -26 -50 -5
-27 33 -39 91 -39 196 0 103 1 107 26 127 28 22 54 28 54 12 0 -14 32 -23 44
-11 17 17 -31 59 -73 62 l-36 3 4 50 c10 104 8 120 -15 123 -18 3 -23 -5 -33
-54z"/>
<path d="M18831 1308 c-4 -13 -11 -54 -15 -92 -8 -84 -15 -97 -61 -122 -36
-19 -56 -57 -38 -75 6 -6 19 -2 35 11 15 11 30 20 36 20 5 0 11 -49 14 -108 6
-122 28 -189 73 -218 25 -16 28 -16 61 -1 19 10 37 24 41 33 7 19 -14 44 -25
28 -4 -6 -17 -16 -28 -22 -45 -24 -74 58 -74 212 0 71 4 98 15 110 25 24 53
29 71 11 17 -17 35 -16 42 3 6 18 -35 47 -76 52 l-37 5 5 45 c9 95 6 124 -12
128 -12 2 -21 -5 -27 -20z"/>
<path d="M16120 1243 c-16 -16 -43 -53 -60 -83 l-30 -55 0 52 c0 42 -4 54 -20
63 -34 18 -42 -16 -31 -125 7 -65 6 -136 -1 -221 -10 -111 -9 -127 5 -141 13
-13 19 -14 31 -3 13 10 16 35 16 115 0 74 6 121 20 166 19 63 73 164 105 195
15 15 18 15 39 -5 21 -20 24 -20 30 -6 10 26 7 42 -10 59 -23 24 -60 19 -94
-11z"/>
<path d="M11901 1239 c-44 -26 -62 -48 -113 -134 -49 -82 -88 -191 -88 -246 0
-81 44 -139 105 -139 74 1 177 86 224 186 35 75 15 109 -24 41 -69 -124 -197
-211 -243 -165 -15 15 -15 92 1 138 12 34 13 34 60 31 45 -2 51 0 86 37 52 54
83 125 85 189 0 41 -4 56 -19 67 -26 20 -34 20 -74 -5z m49 -72 c0 -60 -82
-167 -128 -167 -20 0 -22 3 -16 23 7 22 74 127 102 160 24 28 42 21 42 -16z"/>
<path d="M12515 1248 c-52 -29 -128 -138 -174 -248 -32 -78 -38 -184 -13 -230
25 -45 72 -59 134 -41 77 23 188 160 188 232 0 37 -14 37 -29 1 -7 -16 -32
-52 -56 -82 -76 -93 -162 -135 -195 -95 -17 20 -14 109 4 143 12 23 19 26 58
23 39 -2 49 2 77 29 40 41 75 103 91 162 11 42 10 51 -7 80 -21 36 -46 44 -78
26z m45 -73 c0 -59 -84 -175 -126 -175 -33 0 -30 17 17 91 69 108 109 138 109
84z"/>
<path d="M12866 1222 c-75 -57 -135 -139 -142 -194 -6 -44 -5 -47 24 -62 19
-10 56 -16 92 -16 76 0 120 -26 120 -69 0 -33 -18 -51 -87 -86 -60 -30 -93
-23 -93 20 0 35 -26 31 -39 -6 -10 -28 -8 -34 20 -61 27 -27 35 -30 75 -25 52
5 119 48 146 92 21 34 24 112 5 136 -19 25 -53 39 -95 39 -128 0 -145 40 -57
137 53 59 98 82 126 65 25 -16 36 -15 43 4 8 20 -37 64 -66 64 -13 0 -45 -17
-72 -38z"/>
<path d="M13591 1239 c-40 -24 -41 -25 -112 -109 -65 -78 -157 -256 -166 -322
-20 -162 94 -134 238 58 46 60 59 58 59 -7 0 -48 32 -89 69 -89 33 0 61 27 61
59 l0 23 -34 -22 c-19 -11 -36 -17 -39 -13 -15 27 -16 78 -3 172 8 58 15 113
16 121 0 8 3 36 6 61 10 85 -26 110 -95 68z m45 -65 c-4 -14 -2 -31 3 -38 22
-27 -114 -251 -208 -343 -49 -49 -68 -53 -77 -19 -7 31 36 123 116 245 96 147
184 229 166 155z"/>
<path d="M15162 1250 c-59 -24 -161 -178 -198 -299 -65 -214 94 -310 244 -147
40 43 92 135 92 163 0 30 -28 15 -53 -29 -54 -95 -150 -172 -205 -166 -42 5
-55 42 -39 114 l13 59 50 3 c65 4 104 35 143 113 40 80 43 159 9 183 -25 18
-25 18 -56 6z m40 -80 c-4 -35 -41 -106 -75 -140 -30 -30 -77 -41 -77 -17 0
15 49 95 92 150 34 43 65 46 60 7z"/>
<path d="M15519 1232 c-75 -48 -159 -164 -159 -219 0 -43 38 -63 120 -63 87 0
120 -20 120 -72 0 -32 -44 -70 -106 -92 -48 -17 -74 -4 -74 38 0 28 -9 33 -28
14 -22 -22 -14 -75 14 -97 93 -73 273 72 233 188 -14 38 -53 61 -111 62 -74 2
-103 12 -106 36 -4 30 47 103 100 142 45 33 67 38 85 20 15 -15 43 -4 43 15 0
18 -47 56 -69 56 -10 0 -37 -13 -62 -28z"/>
<path d="M16709 1232 c-74 -48 -159 -168 -159 -226 0 -36 44 -56 120 -56 163
0 171 -108 13 -164 -38 -13 -43 -13 -57 3 -9 10 -16 28 -16 41 0 22 -1 23 -20
5 -25 -23 -26 -67 -1 -89 51 -47 149 -23 210 51 77 93 36 191 -81 194 -116 3
-133 29 -72 109 38 50 102 100 127 100 7 0 18 -5 24 -11 15 -15 43 -4 43 15 0
18 -47 56 -69 56 -10 0 -37 -13 -62 -28z"/>
<path d="M18114 1241 c-41 -25 -84 -81 -131 -171 -54 -104 -63 -136 -63 -217
0 -64 3 -74 29 -102 51 -55 138 -37 217 45 42 43 94 134 94 165 0 35 -20 29
-41 -12 -25 -50 -112 -145 -151 -165 -40 -21 -81 -18 -96 7 -11 17 -11 35 -2
90 l12 69 52 0 c45 0 57 4 85 32 80 79 117 213 69 258 -27 25 -35 25 -74 1z
m56 -61 c0 -57 -88 -180 -129 -180 -31 0 -27 27 15 90 66 100 114 137 114 90z"/>
<path d="M19234 1241 c-66 -40 -165 -209 -195 -329 -15 -62 -2 -133 32 -167
29 -29 114 -27 160 4 51 35 98 90 125 145 41 85 25 136 -17 54 -26 -51 -111
-143 -152 -163 -74 -37 -114 -9 -103 74 12 86 20 97 70 93 37 -3 48 1 80 29
55 47 90 122 90 191 1 46 -3 60 -19 72 -26 20 -34 20 -71 -3z m49 -74 c-4 -62
-81 -167 -122 -167 -31 0 -27 27 15 90 69 104 111 134 107 77z"/>
<path d="M19624 1247 c-61 -35 -145 -133 -173 -204 -24 -61 13 -93 109 -93 73
0 117 -20 126 -57 6 -23 1 -32 -33 -62 -52 -46 -105 -63 -133 -44 -11 8 -20
23 -20 34 0 28 -23 19 -34 -14 -20 -55 46 -99 122 -82 36 8 107 67 127 106 18
34 19 98 2 119 -20 25 -59 38 -126 43 -36 3 -70 12 -78 20 -23 23 4 73 72 135
59 54 62 55 123 37 19 -6 22 -4 22 18 0 46 -59 71 -106 44z"/>
<path d="M17349 1242 c-54 -25 -113 -103 -161 -214 -27 -62 -32 -86 -32 -155
-1 -67 3 -86 20 -109 25 -34 64 -48 111 -39 50 9 183 140 183 179 0 35 -14 33
-41 -6 -65 -92 -166 -142 -209 -103 -15 14 -20 31 -20 72 0 113 118 333 178
333 8 0 27 -9 43 -21 16 -11 36 -18 44 -15 21 8 19 40 -4 60 -21 19 -87 30
-112 18z"/>
<path d="M16330 1205 c-30 -19 -57 -35 -61 -35 -8 0 -44 -75 -65 -135 -9 -28
-19 -93 -21 -145 -4 -82 -1 -99 16 -127 69 -110 204 -5 270 211 32 103 24 194
-22 244 -28 30 -54 28 -117 -13z m89 -31 c38 -48 25 -146 -38 -277 -51 -106
-114 -153 -147 -109 -32 41 -6 185 49 282 11 19 27 47 34 62 13 25 59 67 75
68 4 0 16 -12 27 -26z"/>
<path d="M14753 1208 c-5 -7 -15 -40 -22 -72 -29 -133 -145 -351 -187 -351
-36 0 -29 79 24 255 31 105 34 153 9 158 -24 5 -41 -40 -72 -191 -36 -181 -32
-267 14 -282 49 -15 122 59 163 167 28 71 45 81 53 30 14 -89 49 -152 85 -152
24 0 73 51 61 63 -5 5 -17 4 -31 -3 -28 -15 -46 0 -60 49 -13 48 -13 187 1
252 10 46 9 53 -8 71 -16 15 -22 16 -30 6z"/>
<path d="M11553 1168 c-39 -51 -51 -307 -18 -383 9 -22 24 -48 33 -57 28 -33
82 -17 82 24 0 16 -3 17 -21 7 -28 -14 -40 -2 -56 59 -21 82 -15 186 18 294 9
29 9 41 -1 53 -15 18 -24 19 -37 3z"/>
<path d="M14192 1145 c-17 -19 -43 -56 -58 -82 -16 -26 -31 -50 -35 -53 -3 -3
-9 -12 -13 -20 -3 -8 -4 1 -1 20 18 140 18 138 -3 149 -15 8 -22 7 -29 -2 -8
-10 -23 -115 -50 -363 -3 -27 0 -44 10 -52 19 -16 27 -5 56 78 43 120 158 326
174 310 3 -3 11 -55 17 -115 19 -199 44 -265 100 -265 27 0 40 15 40 46 0 12
-4 13 -22 3 -40 -22 -44 -8 -73 294 -8 88 -61 112 -113 52z"/>
<path d="M17759 1153 c-6 -16 -17 -73 -24 -128 -12 -84 -12 -111 0 -172 20
-106 44 -143 90 -143 16 0 45 27 45 41 0 5 -12 8 -27 7 -23 -2 -31 3 -45 32
-24 46 -24 206 -2 295 9 36 14 71 10 80 -9 24 -36 17 -47 -12z"/>
<path d="M18513 1146 c-17 -18 -44 -59 -62 -90 -18 -31 -35 -56 -38 -56 -3 0
-2 33 2 73 5 61 4 76 -10 87 -29 24 -44 -7 -55 -120 -5 -58 -14 -143 -20 -190
-9 -84 -7 -120 9 -120 14 0 27 23 50 90 27 77 125 267 151 294 19 19 19 19 30
-8 5 -15 10 -50 10 -78 0 -28 5 -81 11 -117 19 -119 43 -161 91 -161 31 0 44
19 34 47 -5 12 -9 14 -18 5 -33 -33 -46 6 -64 193 -16 158 -26 185 -70 185
-12 0 -34 -14 -51 -34z"/>
</g>
</svg>
