<svg id="Grupo_124" data-name="Grupo 124" xmlns="http://www.w3.org/2000/svg" width="46.628" height="51.127" viewBox="0 0 46.628 51.127">
  <g id="Grupo_123" data-name="Grupo 123">
    <path id="Trazado_719" data-name="Trazado 719" d="M12.028,25.728a1.776,1.776,0,0,0,1.319-3.3,10.871,10.871,0,0,1-6.267-12.2A8.612,8.612,0,0,1,15.986,3.3a9.152,9.152,0,0,1,6.6,3.3,9.865,9.865,0,0,1,1.979,7.587c-.66,4.948-3.958,8.906-10.225,12.2a1.782,1.782,0,0,0-.66,2.639,1.768,1.768,0,0,0,1.319.99c.33,0,.66-.33.99-.33,4.618-2.639,10.555-6.927,12.2-14.843A13.433,13.433,0,0,0,25.552,4.288,11.942,11.942,0,0,0,15.986,0C8.4,0,4.441,4.948,3.451,9.566A14.848,14.848,0,0,0,12.028,25.728Z" transform="translate(7.434)" fill="#336693"/>
    <path id="Trazado_720" data-name="Trazado 720" d="M45.19,16.4C43.211,11.119,34.635,7.82,33.645,7.49a1.7,1.7,0,0,0-2.309.99c-1.649,3.628-4.618,5.937-7.916,5.937S17.152,12.108,15.5,8.15a1.892,1.892,0,0,0-2.309-.66c-.99.33-9.566,3.628-11.545,8.906a20.773,20.773,0,0,0-.99,9.9v1.649A1.558,1.558,0,0,0,2.309,29.59a1.558,1.558,0,0,0,1.649-1.649V26.292c0-2.639,0-5.937.99-8.576s5.278-4.948,7.916-6.267a11.787,11.787,0,0,0,10.225,6.6h0c4.288,0,7.916-2.309,10.555-6.6,2.639,1.319,6.927,3.628,8.246,6.267.66,1.979,1.319,6.6,1.319,13.194H1.649a1.649,1.649,0,0,0,0,3.3H44.86a1.558,1.558,0,0,0,1.649-1.649C46.839,27.611,46.509,20.025,45.19,16.4Z" transform="translate(0 16.919)" fill="#336693"/>
  </g>
</svg>
