<svg xmlns="http://www.w3.org/2000/svg" width="71.273" height="56.383" viewBox="0 0 71.273 56.383">
  <g id="Grupo_275" data-name="Grupo 275" transform="translate(0.013)">
    <path id="Trazado_751" data-name="Trazado 751" d="M66.271,5.817A17.017,17.017,0,0,0,52.846,0c-7.16,0-13.424,4.027-17.452,8.5C31.367,4.027,24.655,0,17.943,0A17.017,17.017,0,0,0,4.518,5.817C.491,9.845-.852,15.214.491,21.032,2.728,33.561,15.258,46.538,34.5,55.935a1.562,1.562,0,0,1,.895.447,2.461,2.461,0,0,0,2.237-1.342,2.567,2.567,0,0,0-.895-3.132C18.838,42.958,7.2,31.324,5.413,20.137c-.895-4.475,0-8.5,2.685-11.187a12.69,12.69,0,0,1,9.845-4.475c5.37,0,11.635,3.58,15.662,8.5h.447a.438.438,0,0,1,.447.447h1.79a.438.438,0,0,0,.447-.447h0c4.027-4.922,10.292-8.5,15.662-8.5A12.69,12.69,0,0,1,62.243,8.95c2.685,2.685,3.58,6.712,3.132,11.187-.895,9.845-10.292,20.137-25.059,28.639a1.98,1.98,0,0,0-.895,3.132,2.461,2.461,0,0,0,2.237,1.342A1.644,1.644,0,0,0,43,52.8c16.109-8.95,26.4-20.584,28.191-32.219A19.821,19.821,0,0,0,66.271,5.817Z" transform="translate(0 0)" fill="#336693"/>
  </g>
</svg>
