<svg xmlns="http://www.w3.org/2000/svg" width="59.847" height="52.389" viewBox="0 0 59.847 52.389">
  <g id="Grupo_272" data-name="Grupo 272" transform="translate(0.004 -0.3)">
    <g id="Grupo_271" data-name="Grupo 271" transform="translate(-0.004 0.3)">
      <path id="Trazado_739" data-name="Trazado 739" d="M13.963,5.4A1.949,1.949,0,0,0,11.9,7.463V34.688a1.949,1.949,0,0,0,2.063,2.063,1.949,1.949,0,0,0,2.063-2.063V7.463C16.438,6.225,15.2,5.4,13.963,5.4Z" transform="translate(37.205 15.638)" fill="#336693"/>
      <path id="Trazado_740" data-name="Trazado 740" d="M3.663,5.4A1.949,1.949,0,0,0,1.6,7.463V34.688a1.949,1.949,0,0,0,2.063,2.063,1.949,1.949,0,0,0,2.063-2.063V7.463A1.949,1.949,0,0,0,3.663,5.4Z" transform="translate(5.017 15.638)" fill="#336693"/>
      <path id="Trazado_741" data-name="Trazado 741" d="M59.414,11.438,56.527.713h0V.3H4.138V.713h0L.425,11.438a6.413,6.413,0,0,0,.825,6.188A6.652,6.652,0,0,0,6.613,20.1,8.4,8.4,0,0,0,12.8,17.625h0A6.652,6.652,0,0,0,18.163,20.1a6.922,6.922,0,0,0,5.775-2.475h0A7.49,7.49,0,0,0,29.713,20.1a7.49,7.49,0,0,0,5.775-2.475h0A8.4,8.4,0,0,0,41.676,20.1a6.652,6.652,0,0,0,5.363-2.475h0A8.4,8.4,0,0,0,53.227,20.1a6.652,6.652,0,0,0,5.363-2.475A6.413,6.413,0,0,0,59.414,11.438Zm-52.8,4.125a2.143,2.143,0,0,1-1.65-.825,3.091,3.091,0,0,1-.413-2.063L7.025,3.6h5.363L11.15,11.85A4.833,4.833,0,0,1,6.613,15.563Zm11.55,0a3.151,3.151,0,0,1-2.063-.825c-.413-.413-.413-1.238-.413-2.475L16.926,3.6h5.363l-.413,8.25A3.7,3.7,0,0,1,18.163,15.563Zm14.025-.825a3.237,3.237,0,0,1-4.538,0c-.825-.825-1.238-1.65-.825-2.475L27.238,3.6h5.775v8.663A3.031,3.031,0,0,1,32.189,14.738Zm11.55,0c-.825.413-1.238.825-2.063.825a4.07,4.07,0,0,1-4.125-3.713L37.139,3.6H42.5l1.238,8.663Q44.358,14.119,43.739,14.738Zm11.138,0a2.143,2.143,0,0,1-1.65.825,4.8,4.8,0,0,1-4.538-4.125l-1.238-8.25h5.363l2.475,9.075C55.289,13.5,55.289,14.325,54.877,14.738Z" transform="translate(0.004 -0.3)" fill="#336693"/>
      <path id="Trazado_742" data-name="Trazado 742" d="M34.238,12H5.363A1.949,1.949,0,0,0,3.3,14.063a1.949,1.949,0,0,0,2.063,2.063H34.238A1.949,1.949,0,0,0,36.3,14.063,2.21,2.21,0,0,0,34.238,12Z" transform="translate(10.33 36.264)" fill="#336693"/>
      <path id="Trazado_743" data-name="Trazado 743" d="M5.324,12.225h11.55a1.949,1.949,0,0,0,2.063-2.063A1.949,1.949,0,0,0,16.874,8.1H5.324a1.949,1.949,0,0,0-2.063,2.063C2.849,11.4,4.086,12.225,5.324,12.225Z" transform="translate(9.956 24.076)" fill="#336693"/>
      <path id="Trazado_744" data-name="Trazado 744" d="M5.324,10.225h11.55a1.949,1.949,0,0,0,2.063-2.063A1.949,1.949,0,0,0,16.874,6.1H5.324A1.949,1.949,0,0,0,3.261,8.163C2.849,9.4,4.086,10.225,5.324,10.225Z" transform="translate(9.956 17.826)" fill="#336693"/>
      <path id="Trazado_745" data-name="Trazado 745" d="M21.113,8.1H9.563A1.949,1.949,0,0,0,7.5,10.163a1.949,1.949,0,0,0,2.063,2.063h11.55a1.949,1.949,0,0,0,2.063-2.063A1.949,1.949,0,0,0,21.113,8.1Z" transform="translate(23.455 24.076)" fill="#336693"/>
      <path id="Trazado_746" data-name="Trazado 746" d="M5.324,14.325h11.55a1.949,1.949,0,0,0,2.063-2.063A1.949,1.949,0,0,0,16.874,10.2H5.324a1.949,1.949,0,0,0-2.063,2.063C2.849,13.088,4.086,14.325,5.324,14.325Z" transform="translate(9.956 30.639)" fill="#336693"/>
      <path id="Trazado_747" data-name="Trazado 747" d="M21.113,10.1H9.563A1.949,1.949,0,0,0,7.5,12.163a1.949,1.949,0,0,0,2.063,2.063h11.55a1.949,1.949,0,0,0,2.063-2.063A1.949,1.949,0,0,0,21.113,10.1Z" transform="translate(23.455 30.326)" fill="#336693"/>
      <path id="Trazado_748" data-name="Trazado 748" d="M21.113,6.1H9.563A1.949,1.949,0,0,0,7.5,8.163a1.949,1.949,0,0,0,2.063,2.063h11.55a1.949,1.949,0,0,0,2.063-2.063A1.949,1.949,0,0,0,21.113,6.1Z" transform="translate(23.455 17.826)" fill="#336693"/>
    </g>
  </g>
</svg>
