<svg xmlns="http://www.w3.org/2000/svg" width="52.408" height="59.383" viewBox="0 0 52.408 59.383">
  <g id="Grupo_274" data-name="Grupo 274" transform="translate(0 0.017)">
    <g id="Grupo_273" data-name="Grupo 273" transform="translate(0 -0.017)">
      <path id="Trazado_749" data-name="Trazado 749" d="M2.031,4.1A1.919,1.919,0,0,0,0,6.131v38.6a1.919,1.919,0,0,0,2.031,2.031,1.919,1.919,0,0,0,2.031-2.031V6.131C4.469,4.913,3.25,4.1,2.031,4.1Z" transform="translate(0 12.625)" fill="#336693"/>
      <path id="Trazado_750" data-name="Trazado 750" d="M47.355,32.959A8.519,8.519,0,0,0,45.73,28.49a6.728,6.728,0,0,0,2.031-4.875c0-3.656-2.844-6.907-7.719-6.907h-13c1.625-3.656,3.25-9.344,2.031-13a4.409,4.409,0,0,0-3.25-3.25C20.136-1.574,16.479,3.3,13.229,7.771c-2.844,3.25-6.094,7.313-10.563,8.938-.813.813-1.625,2.031-.813,3.25a2.234,2.234,0,0,0,2.031,1.219H4.7c5.281-2.438,8.938-6.907,11.782-10.563,3.656-4.469,5.688-6.5,7.719-5.688a.874.874,0,0,1,.813.813c.813,2.438-.813,7.719-2.438,11.375H20.136A1.919,1.919,0,0,0,18.1,19.146a1.919,1.919,0,0,0,2.031,2.031H40.043c2.438,0,3.25,1.625,3.25,2.844a2.111,2.111,0,0,1-.813,1.625,4.356,4.356,0,0,1-2.438.813,2.031,2.031,0,1,0,0,4.063,3.434,3.434,0,0,1,2.438.813,3.08,3.08,0,0,1,.813,1.625c0,1.219-1.219,3.25-4.063,3.25a2.031,2.031,0,1,0,0,4.063,3.434,3.434,0,0,1,2.438.813,3.08,3.08,0,0,1,.813,1.625c0,1.219-1.219,2.844-4.063,2.844a2.031,2.031,0,1,0,0,4.063,3.434,3.434,0,0,1,2.438.813,2.443,2.443,0,0,1,.406,1.625,3.3,3.3,0,0,1-3.656,3.25H3.885a2.031,2.031,0,1,0,0,4.063H37.2c5.281,0,8.125-3.656,8.125-7.313A5.216,5.216,0,0,0,43.7,47.991,8.536,8.536,0,0,0,46.543,42.3a8.519,8.519,0,0,0-1.625-4.469C46.543,37.022,47.355,34.99,47.355,32.959Z" transform="translate(4.647 0.017)" fill="#336693"/>
    </g>
  </g>
</svg>
