<?xml version="1.0" encoding="utf-8"?>
<!-- Generator: Adobe Illustrator 23.0.2, SVG Export Plug-In . SVG Version: 6.00 Build 0)  -->
<svg version="1.1" id="Capa_1" xmlns="http://www.w3.org/2000/svg" xmlns:xlink="http://www.w3.org/1999/xlink" x="0px" y="0px"
	 viewBox="0 0 272.5 107.7" style="enable-background:new 0 0 272.5 107.7;" xml:space="preserve">
<style type="text/css">
	.st0{fill:#FFFFFF;}
</style>
<g id="Grupo_370" transform="translate(-663.586 -3369.2)">
	<g id="Grupo_1" transform="translate(663.586 3369.2)">
		<path id="Trazado_1" class="st0" d="M12.8,32.5c0,13.1,7.3,24.2,18.5,27.8v0.3c-1.1,1.5-2.2,3-3,4.7L6.4,105.1h16.3l21.6-40.9
			V51.6c-10.4-0.6-16.9-7.5-16.9-18.6c0-7.6,2.9-13,8.2-15.8c2.1-1.1,4.4-1.9,8.7-2.2V2.5c-7.3,0.2-11,1-14.2,2.2
			C19.6,8.6,12.8,19,12.8,32.5z"/>
		<path id="Trazado_2" class="st0" d="M52,2.4v12.5h18.6v36.8H52v12.5h18.6v28.7H52v12.2h33V2.4H52z"/>
	</g>
	<g id="Grupo_6" transform="translate(763.465 3418.097)">
		<g id="Grupo_3" transform="translate(0.05 17.424)">
			<g id="Grupo_2">
				<path id="Trazado_3" class="st0" d="M2-0.1h14.6v4.9H7.7V9h7.1v4.9H7.7v4.4H17v4.9H2V-0.1z"/>
				<path id="Trazado_4" class="st0" d="M21.4,15.9c0,0,2.7,2.4,5.6,2.4c1.2,0,2.4-0.5,2.4-1.9c0-2.8-10.5-2.7-10.5-9.8
					c0-4.3,3.6-7.1,8.3-7.1c5,0,7.5,2.7,7.5,2.7l-2.4,4.7c-1.4-1.2-3.2-1.9-5.1-2c-1.2,0-2.5,0.5-2.5,1.8c0,2.9,10.5,2.4,10.5,9.8
					c0,3.9-2.9,7.2-8.2,7.2c-3.2,0-6.2-1.1-8.5-3.3L21.4,15.9z"/>
				<path id="Trazado_5" class="st0" d="M38.1-0.1h9.7c4.5,0,7.6,3.3,7.6,8s-3,8.1-7.6,8.1h-4v7.2h-5.7V-0.1z M46.5,11.1
					c2,0,2.9-1.3,2.9-3.2s-1-3.1-2.8-3.1h-2.9v6.3L46.5,11.1z"/>
				<path id="Trazado_6" class="st0" d="M57.7-0.1h5.7v23.3h-5.7V-0.1z"/>
				<path id="Trazado_7" class="st0" d="M78.6-0.6c6,0,9,3.1,9,3.1l-2.8,4.3c-1.6-1.3-3.6-2.1-5.6-2.1c-4.9,0-6.9,3.1-6.9,6.6
					c0,4.4,3,7.1,6.7,7.1c1.7,0,3.4-0.6,4.7-1.7v-1.8h-3.3V10h8.3v13.1h-4.7v-0.7c0-0.5,0-1,0-1h0c-1.8,1.3-3.9,2-6.1,2
					c-6,0-11.4-4.5-11.4-12.1C66.3,4.7,71.5-0.6,78.6-0.6z"/>
				<path id="Trazado_8" class="st0" d="M103.6,18.2h-7.3L95,23.1h-5.8l7.9-23.3h6l7.9,23.3h-5.8L103.6,18.2z M100,5.1
					c0,0-0.5,2.5-0.9,4l-1.3,4.5h4.6l-1.3-4.5C100.6,7.7,100.1,5.1,100,5.1L100,5.1z"/>
				<path id="Trazado_9" class="st0" d="M112.6-0.1h8.1c1.5-0.1,3.1,0.1,4.5,0.6c2.7,1,4.3,3.4,4.3,6.8c0.1,2.6-1.2,5-3.5,6.4v0
					c0.3,0.5,0.6,0.9,0.9,1.4l4.5,8.1h-6.4l-4.1-7.9h-2.7v7.8h-5.7L112.6-0.1L112.6-0.1z M120.8,10.4c1.5,0.2,2.8-0.9,2.9-2.3
					c0-0.2,0-0.3,0-0.5c0-1.8-0.7-2.8-3.5-2.8h-1.9v5.6L120.8,10.4z"/>
				<path id="Trazado_10" class="st0" d="M133.8-0.1h14.6v4.9h-8.9V9h7.1v4.9h-7.1v4.4h9.3v4.9h-15V-0.1z"/>
				<path id="Trazado_11" class="st0" d="M153.2,15.9c0,0,2.7,2.4,5.6,2.4c1.2,0,2.4-0.5,2.4-1.9c0-2.8-10.5-2.7-10.5-9.8
					c0-4.3,3.6-7.1,8.3-7.1c5,0,7.5,2.7,7.5,2.7L164,6.8c-1.4-1.2-3.2-1.9-5.1-2c-1.2,0-2.5,0.5-2.5,1.8c0,2.9,10.5,2.4,10.5,9.8
					c0,3.9-2.9,7.2-8.2,7.2c-3.2,0-6.2-1.1-8.5-3.3L153.2,15.9z"/>
			</g>
		</g>
		<g id="Grupo_4" transform="translate(0.05)">
			<path id="Trazado_12" class="st0" d="M2,0.4h2.7c0.6,0,1.2,0,1.7,0.2C7.3,1.1,7.8,2,7.8,3c0.1,1.1-0.6,2.1-1.7,2.5v0
				c0.1,0.1,0.2,0.2,0.2,0.4l2,3.7h-1l-2-3.8H2.9v3.8H2L2,0.4L2,0.4z M5.1,4.9c1.1-0.1,1.9-1,1.8-2c0-0.6-0.3-1.1-0.8-1.4
				C5.7,1.2,5.2,1.1,4.8,1.2H2.9v3.7L5.1,4.9L5.1,4.9z"/>
			<path id="Trazado_13" class="st0" d="M10.2,0.4h5.1v0.8h-4.2v3.3h3.5v0.8h-3.5v3.4h4.5v0.8h-5.4V0.4z"/>
			<path id="Trazado_17" class="st0" d="M17.9,0.4H21c1.4-0.1,2.7,1,2.8,2.4c0,0.1,0,0.2,0,0.3c0.1,1.5-1.1,2.7-2.5,2.8
				c-0.1,0-0.2,0-0.3,0h-2.3v3.6h-0.9L17.9,0.4L17.9,0.4z M21,5.1c1.1,0,2-0.9,2-2c0-1.1-0.9-2-2-2h-2.2v3.9H21z"/>
			<path id="Trazado_18" class="st0" d="M25.6,0.4h2.7c0.6,0,1.2,0,1.7,0.2C31,1.1,31.5,2,31.4,3c0.1,1.1-0.6,2.1-1.7,2.5v0
				c0.1,0.1,0.2,0.2,0.2,0.4l2,3.7h-1l-2-3.8h-2.3v3.8h-0.9L25.6,0.4L25.6,0.4z M28.7,4.9c1.1-0.1,1.9-1,1.8-2
				c0-0.6-0.3-1.1-0.8-1.4c-0.4-0.2-0.8-0.3-1.3-0.2h-1.9v3.7L28.7,4.9L28.7,4.9z"/>
			<path id="Trazado_19" class="st0" d="M33.8,0.4h5.1v0.8h-4.2v3.3h3.5v0.8h-3.5v3.4h4.5v0.8h-5.4V0.4z"/>
			<path id="Trazado_20" class="st0" d="M41,7.8c0.6,0.6,1.5,1,2.4,1c0.9,0.1,1.7-0.6,1.8-1.5c0,0,0-0.1,0-0.1
				c0-2.3-4.6-1.7-4.6-4.6c0.1-1.4,1.3-2.6,2.8-2.5c0,0,0.1,0,0.1,0c0.9,0,1.8,0.3,2.4,0.9l-0.4,0.8c-0.6-0.5-1.3-0.7-2-0.8
				c-0.9-0.1-1.8,0.6-1.9,1.5c0,0,0,0,0,0.1c0,2.2,4.6,1.5,4.6,4.6c0,1.4-1.1,2.5-2.5,2.5c-0.1,0-0.2,0-0.2,0
				c-1.1,0-2.1-0.4-2.9-1.2L41,7.8z"/>
			<path id="Trazado_21" class="st0" d="M48.1,0.4h5.1v0.8H49v3.3h3.5v0.8H49v3.4h4.5v0.8h-5.4V0.4z"/>
			<path id="Trazado_22" class="st0" d="M55.5,0.4h0.9L61,7c0.3,0.5,0.8,1.2,0.8,1.2h0c0,0-0.1-0.8-0.1-1.2V0.4h0.9v9.1h-0.9L57.2,3
				c-0.3-0.5-0.8-1.2-0.8-1.2h0c0,0,0.1,0.8,0.1,1.2v6.5h-0.9V0.4z"/>
			<path id="Trazado_23" class="st0" d="M67.4,1.2h-3.3V0.4h7.5v0.8h-3.3v8.3h-0.9L67.4,1.2z"/>
			<path id="Trazado_24" class="st0" d="M76.8,6.6h-3.7l-1,2.9h-0.9l3.3-9.1h0.9l3.3,9.1h-0.9L76.8,6.6z M75,1.3
				c0,0-0.2,0.8-0.3,1.2l-1.2,3.3h3.1l-1.2-3.3C75.3,2.1,75.1,1.7,75,1.3L75,1.3z"/>
			<path id="Trazado_25" class="st0" d="M84.3,0.3c1.2-0.1,2.4,0.4,3.3,1.2L87,2.1c-0.8-0.6-1.7-1-2.8-1c-2,0-3.6,1.6-3.7,3.6
				c0,0.1,0,0.1,0,0.2c-0.1,2.1,1.5,3.8,3.5,3.9c0.1,0,0.1,0,0.2,0c1.1,0,2.2-0.4,2.9-1.2l0.5,0.6c-0.9,0.9-2.2,1.4-3.5,1.4
				c-2.5,0-4.6-2-4.6-4.6c0-0.1,0-0.1,0-0.2c-0.1-2.4,1.7-4.5,4.2-4.6C84,0.3,84.1,0.3,84.3,0.3z"/>
			<path id="Trazado_26" class="st0" d="M89.7,0.4h0.9v9.1h-0.9V0.4z"/>
			<path id="Trazado_27" class="st0" d="M97.3,0.3c2.6,0,4.6,2,4.7,4.6c0,0,0,0,0,0c0.1,2.6-1.9,4.7-4.5,4.8
				c-2.6,0.1-4.7-1.9-4.8-4.5c0-0.1,0-0.2,0-0.3C92.6,2.4,94.7,0.3,97.3,0.3C97.2,0.3,97.2,0.3,97.3,0.3z M97.3,8.8
				c2.1,0,3.8-1.8,3.7-3.9c0,0,0,0,0-0.1c0.1-2-1.5-3.8-3.6-3.8c-2-0.1-3.8,1.5-3.8,3.6c0,0.1,0,0.2,0,0.3C93.5,7,95.1,8.8,97.3,8.8
				C97.2,8.8,97.2,8.8,97.3,8.8z"/>
			<path id="Trazado_28" class="st0" d="M103.9,0.4h0.9l4.7,6.5c0.3,0.5,0.8,1.2,0.8,1.2h0c0,0-0.1-0.8-0.1-1.2V0.4h0.9v9.1h-0.9
				L105.5,3c-0.3-0.5-0.8-1.2-0.8-1.2h0c0,0,0.1,0.8,0.1,1.2v6.5h-0.9V0.4z"/>
			<path id="Trazado_29" class="st0" d="M113.7,0.4h5.1v0.8h-4.2v3.3h3.5v0.8h-3.5v3.4h4.5v0.8h-5.4V0.4z"/>
			<path id="Trazado_30" class="st0" d="M120.9,7.8c0.6,0.6,1.5,1,2.4,1c0.9,0.1,1.7-0.6,1.8-1.5c0,0,0-0.1,0-0.1
				c0-2.3-4.6-1.7-4.6-4.6c0.1-1.4,1.3-2.6,2.8-2.5c0,0,0.1,0,0.1,0c0.9,0,1.8,0.3,2.4,0.9l-0.4,0.8c-0.6-0.5-1.3-0.7-2-0.8
				c-0.9-0.1-1.8,0.6-1.9,1.5c0,0,0,0,0,0.1c0,2.2,4.6,1.5,4.6,4.6c0,1.4-1.1,2.5-2.5,2.5c-0.1,0-0.2,0-0.2,0
				c-1.1,0-2.1-0.4-2.9-1.2L120.9,7.8z"/>
		</g>
		<g id="Grupo_5" transform="translate(0 48.847)">
			<path id="Trazado_31" class="st0" d="M2-1.8h2.9c2.5,0,4.6,2,4.6,4.5c0,2.5-2,4.6-4.5,4.6c0,0-0.1,0-0.1,0H2V-1.8z M4.8,6.6
				c2.1,0,3.7-1.7,3.7-3.8c0-2-1.7-3.7-3.7-3.7H2.9v7.5H4.8z"/>
			<path id="Trazado_32" class="st0" d="M11.5-1.8h5.1v0.8h-4.2v3.3h3.5v0.8h-3.5v3.4h4.5v0.8h-5.4V-1.8z"/>
			<path id="Trazado_33" class="st0" d="M18.6,5.6c0.6,0.6,1.5,1,2.4,1c0.9,0.1,1.7-0.6,1.8-1.5c0,0,0-0.1,0-0.1
				c0-2.3-4.6-1.7-4.6-4.6C18.3-0.9,19.5-2,21-1.9c0,0,0.1,0,0.1,0C22-2,22.8-1.6,23.5-1l-0.4,0.8c-0.6-0.5-1.3-0.7-2-0.8
				c-0.9-0.1-1.8,0.6-1.9,1.5c0,0,0,0,0,0.1c0,2.2,4.6,1.6,4.6,4.6c0,1.4-1.1,2.5-2.5,2.5c-0.1,0-0.2,0-0.2,0
				c-1.1,0-2.1-0.4-2.9-1.2L18.6,5.6z"/>
			<path id="Trazado_34" class="st0" d="M25.6-1.8h2.9C31-1.7,33,0.4,33,2.9c0,2.5-2,4.5-4.5,4.5h-2.9V-1.8z M28.5,6.6
				c2.1,0,3.7-1.7,3.7-3.8c0-2-1.7-3.7-3.7-3.7h-1.9v7.5H28.5z"/>
			<path id="Trazado_35" class="st0" d="M35.1-1.8h5.1v0.8H36v3.3h3.5v0.8H36v3.4h4.5v0.8h-5.4V-1.8z"/>
			<path id="Trazado_36" class="st0" d="M45.1,6.6h2v-7.2h0c-0.1,0.2-0.3,0.4-0.5,0.5l-0.9,1l-0.6-0.6l2-2h0.8v8.3h2v0.8h-4.8V6.6z"
				/>
			<path id="Trazado_37" class="st0" d="M51.4,6.3h1v1h-1V6.3z"/>
			<path id="Trazado_38" class="st0" d="M54.4,7.1l0.3-0.8c0.4,0.2,0.9,0.3,1.3,0.3c1.9,0,2.9-1.9,3-3.7h0c-0.6,0.7-1.4,1.1-2.3,1
				c-1.7-0.1-2.9-1.5-2.8-3.1c0.1-1.5,1.3-2.8,2.8-2.8c2,0,3.3,1.8,3.3,4.3c0,2.3-1.2,5.1-4,5.1C55.5,7.5,54.9,7.4,54.4,7.1z
				 M59.1,1.7c0-1.2-0.9-2.8-2.3-2.8c-1.2,0.1-2.1,1.2-1.9,2.4c0.1,1.1,1,1.9,2,1.9C58.1,3.3,59.1,2.5,59.1,1.7L59.1,1.7z"/>
			<path id="Trazado_39" class="st0" d="M65.7-0.1c0.2-0.3,0.3-0.6,0.5-0.9v0c-0.2,0-0.4,0.1-0.7,0h-4.3v-0.8h5.9v0.6L63,7.4h-0.9
				L65.7-0.1z"/>
			<path id="Trazado_40" class="st0" d="M68.1,6.6h2v-7.2h0c-0.1,0.2-0.3,0.4-0.5,0.5l-0.9,1l-0.6-0.6l2-2H71v8.3h2v0.8H68L68.1,6.6
				L68.1,6.6z"/>
		</g>
	</g>
</g>
</svg>
