<?xml version="1.0" encoding="utf-8"?>
<!-- Generator: Adobe Illustrator 22.1.0, SVG Export Plug-In . SVG Version: 6.00 Build 0)  -->
<svg version="1.1" id="Capa_1" xmlns="http://www.w3.org/2000/svg" xmlns:xlink="http://www.w3.org/1999/xlink" x="0px" y="0px"
	 viewBox="0 0 299 83" style="enable-background:new 0 0 299 83;" xml:space="preserve">
<style type="text/css">
	.st0{fill:#FFFFFF;}
</style>
<path class="st0" d="M3.6,2.5v77.2h115.8V2.5H3.6z M83.8,23.9l1,3h3.1l-2.5,1.8l1,3l-2.5-1.8l-2.5,1.8l1-3l-2.5-1.8h3.1L83.8,23.9z
	 M31.7,39.8h3.1l1-3l1,3h3.1l-2.5,1.8l1,3l-2.5-1.8l-2.5,1.8l1-3L31.7,39.8z M41.7,57.4l-2.5-1.8l-2.5,1.8l1-3l-2.5-1.8h3.1l1-3l1,3
	h3.1l-2.5,1.8L41.7,57.4z M40.8,28.7l1,3l-2.5-1.8l-2.5,1.8l1-3l-2.5-1.8h3.1l1-3l1,3h3.1L40.8,28.7z M51.2,66.8L48.6,65l-2.5,1.8
	l1-3L44.6,62h3.1l1-3l1,3h3.1l-2.5,1.8L51.2,66.8z M50.2,19.3l1,3l-2.5-1.8l-2.5,1.8l1-3l-2.5-1.8h3.1l1-3l1,3h3.1L50.2,19.3z
	 M64,70.3l-2.5-1.8L59,70.3l1-3l-2.5-1.8h3.1l1-3l1,3h3.1l-2.5,1.8L64,70.3z M63.1,15.9l1,3L61.5,17L59,18.8l1-3L57.4,14h3.1l1-3
	l1,3h3.1L63.1,15.9z M76.9,66.8L74.4,65l-2.5,1.8l1-3L70.3,62h3.1l1-3l1,3h3.1l-2.5,1.8L76.9,66.8z M75.9,19.3l1,3l-2.5-1.8
	l-2.5,1.8l1-3l-2.5-1.8h3.1l1-3l1,3h3.1L75.9,19.3z M86.3,57.4l-2.5-1.8l-2.5,1.8l1-3l-2.5-1.8h3.1l1-3l1,3h3.1l-2.5,1.8L86.3,57.4z
	 M89.7,44.6l-2.5-1.8l-2.5,1.8l1-3l-2.5-1.8h3.1l1-3l1,3h3.1l-2.5,1.8L89.7,44.6z"/>
<g>
	<g>
		<path class="st0" d="M139.9,16.5c0.6,0,1.1-0.2,1.5-0.6c0.3-0.4,0.5-1,0.5-1.8l0-7.4c0-0.1,0-0.2,0.1-0.3c0.1-0.1,0.2-0.1,0.3-0.1
			h2.2c0.2,0,0.3,0,0.3,0.1c0,0.1,0.1,0.2,0.1,0.3l0,7.5c0,0.4,0,0.7-0.1,1.1c0,0.4-0.1,0.8-0.3,1.1c-0.2,0.5-0.4,0.9-0.8,1.2
			c-0.3,0.3-0.7,0.6-1.1,0.8c-0.4,0.2-0.8,0.4-1.3,0.5c-0.5,0.1-0.9,0.1-1.4,0.1c-0.8,0-1.5-0.1-2.1-0.3c-0.6-0.2-1.1-0.6-1.5-1
			c-0.4-0.4-0.7-0.9-0.9-1.5c-0.2-0.6-0.3-1.3-0.3-2V6.8c0-0.1,0-0.2,0.1-0.3c0.1-0.1,0.2-0.1,0.3-0.1h2.2c0.2,0,0.3,0,0.3,0.1
			c0,0.1,0.1,0.2,0.1,0.3v7.4C138,15.7,138.6,16.5,139.9,16.5z"/>
		<path class="st0" d="M155.7,18.8c0,0.1-0.2,0.1-0.3,0.1h-2.1c-0.3,0-0.4-0.1-0.4-0.4c0-0.8,0-1.7,0-2.5c0-0.8,0-1.6,0-2.5
			c0-0.5-0.1-0.9-0.3-1.1c-0.2-0.2-0.5-0.3-0.9-0.3c-0.3,0-0.6,0.1-1,0.2c-0.4,0.1-0.6,0.3-0.9,0.3v5.9c0,0.1,0,0.2-0.1,0.3
			c0,0.1-0.2,0.1-0.3,0.1h-2.1c-0.2,0-0.3,0-0.3-0.1c-0.1-0.1-0.1-0.2-0.1-0.3V10c0-0.1,0-0.2,0.1-0.3c0.1-0.1,0.2-0.1,0.3-0.1h2.1
			c0.2,0,0.3,0,0.3,0.1c0,0.1,0.1,0.2,0.1,0.3v0.5c0,0,0,0,0,0c0,0,0,0,0,0c0.4-0.3,0.9-0.6,1.5-0.8c0.6-0.2,1.1-0.3,1.5-0.3
			c0.7,0,1.2,0.1,1.6,0.3c0.4,0.2,0.7,0.5,0.9,0.9c0.2,0.4,0.3,0.8,0.4,1.2s0.1,0.9,0.1,1.3v5.4C155.8,18.6,155.8,18.7,155.7,18.8z"
			/>
		<path class="st0" d="M160.8,7.1c0,0.2,0,0.4-0.1,0.5c0,0.2-0.1,0.3-0.2,0.5c-0.1,0.1-0.3,0.2-0.5,0.3s-0.5,0.1-0.8,0.1
			c-0.3,0-0.6,0-0.8-0.1c-0.2-0.1-0.4-0.2-0.5-0.3c-0.1-0.1-0.2-0.3-0.2-0.5c0-0.2,0-0.3,0-0.5c0-0.4,0.1-0.7,0.3-1
			c0.2-0.3,0.6-0.4,1.2-0.4c0.3,0,0.6,0,0.7,0.1c0.2,0.1,0.4,0.2,0.5,0.3c0.1,0.1,0.2,0.3,0.2,0.4C160.8,6.7,160.8,6.9,160.8,7.1z
			 M160.7,18.5c0,0.1,0,0.2-0.1,0.3c0,0.1-0.1,0.1-0.3,0.1h-2.1c-0.2,0-0.3,0-0.3-0.1c-0.1-0.1-0.1-0.2-0.1-0.3V10
			c0-0.1,0-0.2,0.1-0.3c0.1-0.1,0.2-0.1,0.3-0.1h2.1c0.2,0,0.3,0,0.3,0.1c0,0.1,0.1,0.2,0.1,0.3V18.5z"/>
		<path class="st0" d="M171.6,14.1c0,0.5,0,1.1-0.1,1.6c-0.1,0.6-0.3,1.1-0.6,1.6c-0.3,0.5-0.8,0.9-1.4,1.2
			c-0.6,0.3-1.4,0.5-2.5,0.5c-1,0-1.8-0.2-2.4-0.5c-0.6-0.3-1-0.7-1.3-1.2s-0.5-1-0.5-1.6c-0.1-0.6-0.1-1.1-0.1-1.6
			c0-0.4,0-0.9,0.1-1.5c0.1-0.5,0.3-1.1,0.6-1.5c0.3-0.5,0.7-0.9,1.3-1.2c0.6-0.3,1.3-0.5,2.3-0.5c1,0,1.8,0.1,2.3,0.4
			c0.6,0.3,1,0.7,1.4,1.1c0.3,0.5,0.5,1,0.6,1.5C171.5,13,171.6,13.6,171.6,14.1z M168.6,14.2c0-0.8-0.1-1.4-0.3-1.8
			c-0.2-0.4-0.6-0.6-1.2-0.6c-0.6,0-1,0.2-1.2,0.6c-0.2,0.4-0.3,1-0.3,1.8c0,0.8,0.1,1.4,0.3,1.8c0.2,0.4,0.6,0.6,1.1,0.6
			c0.6,0,1-0.2,1.2-0.6C168.5,15.6,168.6,15,168.6,14.2z M169.9,5.1c0.3,0.1,0.3,0.3,0.1,0.6l-2.2,2.9c-0.1,0.1-0.1,0.2-0.2,0.2
			c-0.1,0-0.2,0-0.3,0l-1-0.5c-0.1-0.1-0.1-0.1-0.2-0.2c0-0.1,0-0.2,0-0.3l1.8-3.3c0.1-0.1,0.2-0.2,0.3-0.2c0.1,0,0.2,0,0.3,0.1
			L169.9,5.1z"/>
		<path class="st0" d="M181.9,18.8c0,0.1-0.2,0.1-0.3,0.1h-2.1c-0.3,0-0.4-0.1-0.4-0.4c0-0.8,0-1.7,0-2.5c0-0.8,0-1.6,0-2.5
			c0-0.5-0.1-0.9-0.3-1.1c-0.2-0.2-0.5-0.3-0.9-0.3c-0.3,0-0.6,0.1-1,0.2c-0.4,0.1-0.6,0.3-0.9,0.3v5.9c0,0.1,0,0.2-0.1,0.3
			c0,0.1-0.2,0.1-0.3,0.1h-2.1c-0.2,0-0.3,0-0.3-0.1c-0.1-0.1-0.1-0.2-0.1-0.3V10c0-0.1,0-0.2,0.1-0.3c0.1-0.1,0.2-0.1,0.3-0.1h2.1
			c0.2,0,0.3,0,0.3,0.1c0,0.1,0.1,0.2,0.1,0.3v0.5c0,0,0,0,0,0c0,0,0,0,0,0c0.4-0.3,0.9-0.6,1.5-0.8c0.6-0.2,1.1-0.3,1.5-0.3
			c0.7,0,1.2,0.1,1.6,0.3c0.4,0.2,0.7,0.5,0.9,0.9s0.3,0.8,0.4,1.2s0.1,0.9,0.1,1.3v5.4C182,18.6,182,18.7,181.9,18.8z"/>
		<path class="st0" d="M189.8,6.8c0-0.1,0-0.2,0.1-0.3c0.1-0.1,0.2-0.1,0.3-0.1h7.5c0.3,0,0.4,0.1,0.4,0.4v1.7c0,0.1,0,0.2-0.1,0.3
			c-0.1,0.1-0.2,0.1-0.3,0.1h-4.9v2.3h4.3c0.3,0,0.4,0.1,0.4,0.4v1.7c0,0.1,0,0.2-0.1,0.3c-0.1,0.1-0.2,0.1-0.3,0.1h-4.3v2.7h5
			c0.3,0,0.4,0.1,0.4,0.4v1.7c0,0.1,0,0.2-0.1,0.3s-0.2,0.1-0.3,0.1h-7.6c-0.2,0-0.3,0-0.3-0.1c-0.1-0.1-0.1-0.2-0.1-0.3V6.8z"/>
		<path class="st0" d="M208.5,18.8c-0.1,0.1-0.2,0.1-0.3,0.1h-2.1c-0.2,0-0.3,0-0.3-0.1c0-0.1-0.1-0.2-0.1-0.3v-0.5c0,0,0,0,0,0
			c0,0,0,0,0,0c-0.4,0.3-0.9,0.6-1.5,0.8c-0.5,0.2-1.1,0.3-1.5,0.3c-0.7,0-1.2-0.1-1.6-0.3c-0.4-0.2-0.7-0.5-0.8-0.8
			c-0.2-0.3-0.3-0.7-0.3-1.2c0-0.4-0.1-0.9-0.1-1.4V10c0-0.1,0-0.2,0.1-0.3c0-0.1,0.2-0.1,0.3-0.1h2.1c0.2,0,0.3,0,0.3,0.1
			c0.1,0.1,0.1,0.2,0.1,0.3v5c0,0.5,0.1,0.8,0.3,1.1c0.2,0.2,0.5,0.4,0.9,0.4c0.2,0,0.3,0,0.5-0.1c0.2,0,0.3-0.1,0.5-0.2
			c0.2-0.1,0.3-0.1,0.5-0.2c0.1-0.1,0.3-0.1,0.4-0.2V10c0-0.1,0-0.2,0.1-0.3c0-0.1,0.2-0.1,0.3-0.1h2.1c0.2,0,0.3,0,0.3,0.1
			c0.1,0.1,0.1,0.2,0.1,0.3v8.5C208.6,18.7,208.6,18.8,208.5,18.8z"/>
		<path class="st0" d="M213.7,10.9L213.7,10.9c0.2-0.1,0.4-0.3,0.6-0.5c0.2-0.2,0.5-0.3,0.7-0.4c0.3-0.1,0.5-0.2,0.7-0.3
			c0.2-0.1,0.5-0.2,0.7-0.2c0.2,0,0.3,0,0.4,0c0.1,0,0.2,0.2,0.2,0.4l0.2,1.9c0,0.1,0,0.2,0,0.2c0,0.1,0,0.1-0.1,0.2
			c0,0-0.1,0.1-0.2,0.1c-0.1,0-0.2,0.1-0.3,0.1c-1.1,0.2-2.2,0.5-3.1,0.8v5.4c0,0.1,0,0.2-0.1,0.3c0,0.1-0.2,0.1-0.3,0.1h-2.1
			c-0.2,0-0.3,0-0.3-0.1c-0.1-0.1-0.1-0.2-0.1-0.3V10c0-0.1,0-0.2,0.1-0.3c0.1-0.1,0.2-0.1,0.3-0.1h2.1c0.2,0,0.3,0,0.3,0.1
			c0,0.1,0.1,0.2,0.1,0.3V10.9z"/>
		<path class="st0" d="M227,14.1c0,0.5,0,1.1-0.1,1.6c-0.1,0.6-0.3,1.1-0.6,1.6c-0.3,0.5-0.8,0.9-1.4,1.2c-0.6,0.3-1.4,0.5-2.5,0.5
			c-1,0-1.8-0.2-2.4-0.5c-0.6-0.3-1-0.7-1.3-1.2c-0.3-0.5-0.5-1-0.5-1.6c-0.1-0.6-0.1-1.1-0.1-1.6c0-0.4,0-0.9,0.1-1.5
			c0.1-0.5,0.3-1.1,0.6-1.5c0.3-0.5,0.7-0.9,1.3-1.2c0.6-0.3,1.3-0.5,2.3-0.5c1,0,1.8,0.1,2.3,0.4c0.6,0.3,1,0.7,1.4,1.1
			s0.5,1,0.6,1.5C226.9,13,227,13.6,227,14.1z M224,14.2c0-0.8-0.1-1.4-0.3-1.8c-0.2-0.4-0.6-0.6-1.2-0.6c-0.6,0-1,0.2-1.2,0.6
			s-0.3,1-0.3,1.8c0,0.8,0.1,1.4,0.3,1.8c0.2,0.4,0.6,0.6,1.1,0.6c0.6,0,1-0.2,1.2-0.6C223.9,15.6,224,15,224,14.2z"/>
		<path class="st0" d="M237.5,14.2c0,0.8-0.1,1.4-0.2,2c-0.1,0.6-0.3,1.1-0.6,1.5s-0.7,0.7-1.2,1c-0.5,0.2-1.1,0.3-1.9,0.3
			c-0.3,0-0.6,0-1-0.1c-0.4,0-0.7-0.1-1.1-0.2h0v3.4c0,0.1,0,0.2-0.1,0.3c0,0.1-0.2,0.1-0.3,0.1h-2.1c-0.2,0-0.3,0-0.3-0.1
			c-0.1-0.1-0.1-0.2-0.1-0.3V10c0-0.1,0-0.2,0.1-0.3c0.1-0.1,0.2-0.1,0.3-0.1h2.1c0.2,0,0.3,0,0.3,0.1c0,0.1,0.1,0.2,0.1,0.3v0.5
			c0,0,0,0,0,0c0,0,0,0,0,0c0.4-0.3,0.9-0.6,1.3-0.7c0.5-0.2,0.9-0.3,1.4-0.3c0.7,0,1.2,0.1,1.6,0.4c0.4,0.2,0.7,0.6,1,1
			c0.2,0.4,0.4,0.9,0.5,1.5C237.4,12.9,237.5,13.6,237.5,14.2z M234.5,14.3c0-0.5,0-0.8-0.1-1.1c0-0.3-0.1-0.5-0.2-0.7
			c-0.1-0.2-0.2-0.3-0.4-0.3c-0.1-0.1-0.3-0.1-0.5-0.1c-0.3,0-0.6,0.1-0.9,0.2c-0.3,0.1-0.6,0.2-0.9,0.4v3.8
			c0.3,0.1,0.6,0.1,0.8,0.2c0.2,0,0.5,0,0.7,0c0.3,0,0.5,0,0.7-0.1c0.2-0.1,0.3-0.2,0.5-0.4c0.1-0.2,0.2-0.4,0.3-0.7
			C234.5,15.2,234.5,14.8,234.5,14.3z"/>
		<path class="st0" d="M241.9,14.9c0,0.4,0.1,0.7,0.2,0.9c0.1,0.2,0.2,0.4,0.4,0.5c0.2,0.1,0.4,0.2,0.6,0.3c0.2,0,0.5,0.1,0.8,0.1
			c0.3,0,0.6,0,1-0.1c0.4,0,0.8-0.1,1.2-0.1c0.3,0,0.4,0,0.5,0c0.1,0,0.1,0.2,0.2,0.4l0.2,0.9c0,0.2,0,0.4,0,0.5
			c0,0.1-0.2,0.2-0.5,0.4c-0.2,0.1-0.4,0.1-0.7,0.2s-0.5,0.1-0.8,0.1c-0.3,0-0.5,0.1-0.8,0.1s-0.5,0-0.8,0c-0.9,0-1.7-0.1-2.3-0.4
			c-0.6-0.3-1-0.6-1.4-1.1c-0.3-0.4-0.5-0.9-0.7-1.5c-0.1-0.6-0.2-1.2-0.2-1.8c0-0.5,0-1,0.1-1.5c0.1-0.6,0.3-1.1,0.5-1.6
			c0.3-0.5,0.7-0.9,1.3-1.3c0.6-0.3,1.4-0.5,2.4-0.5c0.9,0,1.6,0.1,2.2,0.4c0.6,0.3,1,0.6,1.3,1s0.5,0.9,0.6,1.4
			c0.1,0.5,0.2,1,0.2,1.5c0,0.4-0.1,0.7-0.2,0.9c-0.1,0.2-0.4,0.3-0.8,0.3C246.6,14.9,241.9,14.9,241.9,14.9z M243.3,11.6
			c-0.4,0-0.8,0.1-1,0.4c-0.2,0.3-0.3,0.7-0.4,1.2h2.6c0-0.5-0.1-0.8-0.3-1.1C244.1,11.8,243.8,11.6,243.3,11.6z"/>
		<path class="st0" d="M255.1,17.8c-0.3,0.2-0.5,0.4-0.8,0.6c-0.3,0.2-0.6,0.3-0.9,0.4c-0.3,0.1-0.6,0.2-0.9,0.2s-0.6,0.1-0.8,0.1
			c-0.6,0-1-0.1-1.4-0.2s-0.6-0.4-0.8-0.6c-0.2-0.3-0.3-0.5-0.4-0.9c-0.1-0.3-0.1-0.7-0.1-1.1c0-0.6,0.1-1.1,0.2-1.5
			c0.2-0.4,0.4-0.7,0.7-1c0.3-0.2,0.7-0.4,1.2-0.5c0.5-0.1,1-0.2,1.5-0.2h2.2v-0.3c0-0.2,0-0.4-0.1-0.5c0-0.1-0.1-0.3-0.2-0.3
			c-0.1-0.1-0.3-0.2-0.5-0.2c-0.2,0-0.5-0.1-0.9-0.1c-0.1,0-0.3,0-0.5,0c-0.2,0-0.4,0-0.7,0c-0.2,0-0.5,0-0.7,0.1
			c-0.2,0-0.4,0-0.6,0.1c-0.3,0-0.4,0-0.5,0c-0.1,0-0.1-0.1-0.2-0.3l-0.2-1c0-0.2,0-0.3,0.1-0.4c0.1-0.1,0.2-0.2,0.5-0.3
			c0.2-0.1,0.5-0.1,0.7-0.2c0.3-0.1,0.6-0.1,0.9-0.1c0.3,0,0.6-0.1,0.9-0.1c0.3,0,0.5,0,0.8,0c0.9,0,1.6,0.1,2.1,0.2
			c0.5,0.2,0.9,0.4,1.2,0.7c0.3,0.3,0.5,0.7,0.6,1.1c0.1,0.4,0.1,0.9,0.1,1.5v3c0,0.2,0,0.4,0,0.5c0,0.1,0.1,0.2,0.1,0.3
			s0.1,0.1,0.2,0.1c0.1,0,0.2,0,0.4,0.1c0.2,0,0.3,0,0.3,0.1c0,0,0.1,0.1,0.1,0.2v1.2c0,0.3-0.2,0.4-0.5,0.5
			c-0.4,0.1-0.7,0.1-1.2,0.1c-0.5,0-0.9-0.1-1.2-0.2S255.2,18.3,255.1,17.8L255.1,17.8z M254.8,15h-1.7c-0.4,0-0.6,0.1-0.8,0.2
			s-0.3,0.5-0.3,0.9c0,0.3,0.1,0.5,0.2,0.6c0.1,0.1,0.3,0.2,0.7,0.2c0.3,0,0.6-0.1,1-0.2c0.4-0.1,0.7-0.3,1-0.5V15z"/>
	</g>
	<g>
		<path class="st0" d="M135.4,32.8c0-0.2,0.1-0.3,0.3-0.3h5.5c0.2,0,0.3,0.1,0.3,0.3v0.9c0,0.2-0.1,0.3-0.3,0.3h-4v2.6h3.5
			c0.2,0,0.3,0.1,0.3,0.3v0.9c0,0.2-0.1,0.3-0.3,0.3h-3.5v4.2c0,0.2-0.1,0.3-0.3,0.3h-1.1c-0.2,0-0.3-0.1-0.3-0.3V32.8z"/>
		<path class="st0" d="M149,38.7c0,0.4,0,0.9-0.1,1.3c-0.1,0.5-0.2,0.9-0.4,1.3c-0.2,0.4-0.6,0.7-1,1c-0.4,0.2-1.1,0.4-1.8,0.4
			c-0.8,0-1.4-0.1-1.8-0.4c-0.4-0.2-0.8-0.6-1-1c-0.2-0.4-0.4-0.8-0.4-1.3c-0.1-0.5-0.1-0.9-0.1-1.3c0-0.4,0-0.7,0.1-1.2
			c0.1-0.4,0.2-0.8,0.4-1.2c0.2-0.4,0.5-0.7,1-1c0.4-0.3,1-0.4,1.7-0.4c0.7,0,1.3,0.1,1.8,0.3c0.4,0.2,0.8,0.5,1,0.9
			c0.2,0.4,0.4,0.8,0.5,1.2C149,37.9,149,38.3,149,38.7z M147.3,38.9c0-0.4,0-0.8-0.1-1.1c0-0.3-0.1-0.5-0.2-0.7
			c-0.1-0.2-0.3-0.3-0.5-0.4c-0.2-0.1-0.5-0.2-0.8-0.2c-0.3,0-0.6,0.1-0.8,0.2c-0.2,0.1-0.4,0.3-0.5,0.5c-0.1,0.2-0.2,0.5-0.2,0.8
			c0,0.3-0.1,0.6-0.1,1c0,0.4,0,0.8,0.1,1.1c0,0.3,0.1,0.5,0.2,0.7c0.1,0.2,0.3,0.3,0.5,0.4c0.2,0.1,0.5,0.2,0.8,0.2
			c0.3,0,0.6,0,0.8-0.1c0.2-0.1,0.4-0.2,0.5-0.4c0.1-0.2,0.2-0.4,0.2-0.8C147.3,39.6,147.3,39.3,147.3,38.9z"/>
		<path class="st0" d="M156.8,42.5c0,0.1-0.1,0.1-0.2,0.1h-1.1c-0.2,0-0.3-0.1-0.3-0.3l0-4.3c0-0.4-0.1-0.8-0.2-1.1
			c-0.1-0.3-0.4-0.4-0.9-0.4c-0.2,0-0.3,0-0.5,0.1c-0.2,0.1-0.4,0.1-0.6,0.2c-0.2,0.1-0.4,0.2-0.6,0.2c-0.2,0.1-0.3,0.1-0.4,0.2v5.1
			c0,0.2-0.1,0.3-0.3,0.3h-1.1c-0.2,0-0.3-0.1-0.3-0.3v-6.8c0-0.2,0.1-0.3,0.3-0.3h1.1c0.2,0,0.3,0.1,0.3,0.3v0.5c0,0,0,0,0,0
			c0,0,0,0,0,0c0.1-0.1,0.3-0.2,0.5-0.3c0.2-0.1,0.4-0.2,0.6-0.3c0.2-0.1,0.5-0.2,0.7-0.2c0.2-0.1,0.5-0.1,0.7-0.1
			c0.5,0,0.9,0.1,1.2,0.2c0.3,0.2,0.5,0.4,0.7,0.6s0.2,0.6,0.3,0.9c0,0.3,0.1,0.7,0.1,1.1v4.4C156.8,42.4,156.8,42.5,156.8,42.5z"/>
		<path class="st0" d="M164.7,42.3c0,0.1,0,0.2-0.1,0.2c0,0.1-0.1,0.1-0.2,0.1h-1.1c-0.2,0-0.3-0.1-0.3-0.3v-0.5c0,0,0,0,0,0
			c0,0,0,0,0,0c-0.1,0.1-0.3,0.2-0.5,0.3c-0.2,0.1-0.4,0.2-0.6,0.3c-0.2,0.1-0.4,0.2-0.7,0.2c-0.2,0.1-0.5,0.1-0.7,0.1
			c-0.5,0-0.9-0.1-1.2-0.3c-0.3-0.2-0.6-0.4-0.8-0.8c-0.2-0.3-0.3-0.7-0.4-1.2c-0.1-0.5-0.1-1-0.1-1.6c0-0.6,0-1.2,0.1-1.7
			c0.1-0.5,0.2-0.9,0.5-1.3c0.2-0.3,0.5-0.6,0.9-0.8c0.4-0.2,0.9-0.3,1.5-0.3c0.6,0,1.3,0.1,1.9,0.3c0,0,0,0,0,0c0,0,0,0,0,0v-3.1
			c0-0.1,0-0.2,0.1-0.2c0,0,0.1-0.1,0.2-0.1h1.1c0.1,0,0.2,0,0.2,0.1c0,0.1,0,0.1,0,0.2V42.3z M163,36.7c-0.4-0.1-0.7-0.2-1-0.2
			c-0.3,0-0.5-0.1-0.8-0.1c-0.3,0-0.5,0-0.7,0.1c-0.2,0.1-0.3,0.2-0.5,0.4c-0.1,0.2-0.2,0.4-0.2,0.8c-0.1,0.3-0.1,0.7-0.1,1.2
			c0,0.5,0,0.9,0.1,1.2c0,0.3,0.1,0.5,0.2,0.7c0.1,0.2,0.2,0.3,0.4,0.3c0.1,0.1,0.3,0.1,0.5,0.1c0.2,0,0.3,0,0.5-0.1
			c0.2-0.1,0.4-0.1,0.6-0.2c0.2-0.1,0.4-0.1,0.5-0.2s0.3-0.1,0.4-0.2V36.7z"/>
		<path class="st0" d="M172.6,38.7c0,0.4,0,0.9-0.1,1.3c-0.1,0.5-0.2,0.9-0.4,1.3c-0.2,0.4-0.6,0.7-1,1c-0.4,0.2-1.1,0.4-1.8,0.4
			c-0.8,0-1.4-0.1-1.8-0.4c-0.4-0.2-0.8-0.6-1-1c-0.2-0.4-0.4-0.8-0.4-1.3c-0.1-0.5-0.1-0.9-0.1-1.3c0-0.4,0-0.7,0.1-1.2
			c0.1-0.4,0.2-0.8,0.4-1.2c0.2-0.4,0.5-0.7,1-1c0.4-0.3,1-0.4,1.7-0.4c0.7,0,1.3,0.1,1.8,0.3c0.4,0.2,0.8,0.5,1,0.9
			c0.2,0.4,0.4,0.8,0.5,1.2C172.6,37.9,172.6,38.3,172.6,38.7z M170.9,38.9c0-0.4,0-0.8-0.1-1.1c0-0.3-0.1-0.5-0.2-0.7
			s-0.3-0.3-0.5-0.4c-0.2-0.1-0.5-0.2-0.8-0.2c-0.3,0-0.6,0.1-0.8,0.2c-0.2,0.1-0.4,0.3-0.5,0.5c-0.1,0.2-0.2,0.5-0.2,0.8
			c0,0.3-0.1,0.6-0.1,1c0,0.4,0,0.8,0.1,1.1c0,0.3,0.1,0.5,0.2,0.7s0.3,0.3,0.5,0.4c0.2,0.1,0.5,0.2,0.8,0.2c0.3,0,0.6,0,0.8-0.1
			c0.2-0.1,0.4-0.2,0.5-0.4s0.2-0.4,0.2-0.8C170.9,39.6,170.9,39.3,170.9,38.9z"/>
		<path class="st0" d="M178.4,32.8c0-0.2,0.1-0.3,0.3-0.3h5.6c0.2,0,0.3,0.1,0.3,0.3v0.9c0,0.2-0.1,0.3-0.3,0.3h-4.1v2.6h3.7
			c0.2,0,0.3,0.1,0.3,0.3v0.9c0,0.2-0.1,0.3-0.3,0.3h-3.7v3h4.2c0.2,0,0.3,0.1,0.3,0.3v0.9c0,0.2-0.1,0.3-0.3,0.3h-5.7
			c-0.2,0-0.3-0.1-0.3-0.3V32.8z"/>
		<path class="st0" d="M192.1,42.6h-1.1c-0.1,0-0.2,0-0.2-0.1c0,0-0.1-0.1-0.1-0.2v-0.5l0,0c-0.2,0.1-0.3,0.2-0.5,0.3
			c-0.2,0.1-0.4,0.2-0.6,0.3c-0.2,0.1-0.5,0.2-0.7,0.2c-0.2,0.1-0.5,0.1-0.7,0.1c-0.5,0-0.9-0.1-1.2-0.2c-0.3-0.1-0.5-0.3-0.7-0.6
			c-0.2-0.3-0.2-0.6-0.3-0.9c0-0.3-0.1-0.7-0.1-1.1v-4.5c0-0.2,0.1-0.3,0.3-0.3h1.1c0.2,0,0.3,0.1,0.3,0.3v4.3c0,0.2,0,0.4,0,0.6
			c0,0.2,0.1,0.3,0.2,0.5c0.1,0.1,0.2,0.2,0.3,0.3c0.1,0.1,0.3,0.1,0.6,0.1c0.2,0,0.3,0,0.5-0.1c0.2,0,0.4-0.1,0.6-0.2
			s0.4-0.2,0.5-0.2c0.2-0.1,0.3-0.1,0.4-0.2v-5.1c0-0.1,0-0.2,0.1-0.2c0-0.1,0.1-0.1,0.2-0.1h1.1c0.2,0,0.3,0.1,0.3,0.3v6.8
			C192.4,42.5,192.3,42.6,192.1,42.6z"/>
		<path class="st0" d="M195.9,42.3c0,0.2-0.1,0.3-0.3,0.3h-1.1c-0.2,0-0.3-0.1-0.3-0.3v-6.8c0-0.2,0.1-0.3,0.3-0.3h1.1
			c0.2,0,0.3,0.1,0.3,0.3v0.7l0,0c0.1-0.1,0.3-0.2,0.4-0.3c0.2-0.1,0.4-0.2,0.6-0.3c0.2-0.1,0.4-0.2,0.6-0.3
			c0.2-0.1,0.4-0.1,0.6-0.2c0.1,0,0.2,0,0.2,0c0.1,0,0.1,0.1,0.1,0.2l0.1,1c0,0.1,0,0.2,0,0.2c0,0.1-0.1,0.1-0.3,0.1
			c-0.2,0-0.4,0.1-0.7,0.1c-0.2,0.1-0.5,0.1-0.7,0.2c-0.2,0.1-0.4,0.1-0.6,0.2c-0.2,0.1-0.4,0.1-0.5,0.2V42.3z"/>
		<path class="st0" d="M205.8,38.7c0,0.4,0,0.9-0.1,1.3c-0.1,0.5-0.2,0.9-0.4,1.3c-0.2,0.4-0.6,0.7-1,1c-0.4,0.2-1.1,0.4-1.8,0.4
			c-0.8,0-1.4-0.1-1.8-0.4c-0.4-0.2-0.8-0.6-1-1c-0.2-0.4-0.4-0.8-0.4-1.3c-0.1-0.5-0.1-0.9-0.1-1.3c0-0.4,0-0.7,0.1-1.2
			c0.1-0.4,0.2-0.8,0.4-1.2c0.2-0.4,0.5-0.7,1-1c0.4-0.3,1-0.4,1.7-0.4c0.7,0,1.3,0.1,1.8,0.3c0.4,0.2,0.8,0.5,1,0.9
			c0.2,0.4,0.4,0.8,0.5,1.2C205.7,37.9,205.8,38.3,205.8,38.7z M204.1,38.9c0-0.4,0-0.8-0.1-1.1c0-0.3-0.1-0.5-0.2-0.7
			s-0.3-0.3-0.5-0.4c-0.2-0.1-0.5-0.2-0.8-0.2c-0.3,0-0.6,0.1-0.8,0.2c-0.2,0.1-0.4,0.3-0.5,0.5c-0.1,0.2-0.2,0.5-0.2,0.8
			c0,0.3-0.1,0.6-0.1,1c0,0.4,0,0.8,0.1,1.1c0,0.3,0.1,0.5,0.2,0.7c0.1,0.2,0.3,0.3,0.5,0.4c0.2,0.1,0.5,0.2,0.8,0.2
			c0.3,0,0.6,0,0.8-0.1c0.2-0.1,0.4-0.2,0.5-0.4s0.2-0.4,0.2-0.8C204.1,39.6,204.1,39.3,204.1,38.9z"/>
		<path class="st0" d="M213.7,38.8c0,0.6,0,1.2-0.1,1.7c-0.1,0.5-0.2,0.9-0.5,1.2c-0.2,0.3-0.5,0.6-0.9,0.8
			c-0.4,0.2-0.9,0.3-1.5,0.3c-0.3,0-0.5,0-0.9-0.1c-0.3-0.1-0.7-0.1-1-0.3l0,0v2.7c0,0.1,0,0.2-0.1,0.2c0,0.1-0.1,0.1-0.2,0.1h-1.1
			c-0.1,0-0.2,0-0.2-0.1c0-0.1-0.1-0.1-0.1-0.2v-9.6c0-0.2,0.1-0.3,0.3-0.3h1.1c0.1,0,0.2,0,0.2,0.1c0,0.1,0.1,0.1,0.1,0.2v0.5l0,0
			c0.1-0.1,0.3-0.2,0.5-0.3c0.2-0.1,0.4-0.2,0.6-0.3c0.2-0.1,0.4-0.2,0.7-0.2c0.2-0.1,0.4-0.1,0.7-0.1c0.5,0,0.9,0.1,1.2,0.3
			c0.3,0.2,0.6,0.4,0.8,0.8s0.3,0.7,0.4,1.2C213.6,37.7,213.7,38.2,213.7,38.8z M212,38.8c0-0.5,0-0.9-0.1-1.2
			c0-0.3-0.1-0.5-0.2-0.7c-0.1-0.2-0.2-0.3-0.4-0.3c-0.1-0.1-0.3-0.1-0.5-0.1c-0.2,0-0.3,0-0.5,0.1c-0.2,0.1-0.4,0.1-0.6,0.2
			c-0.2,0.1-0.4,0.1-0.5,0.2c-0.2,0.1-0.3,0.2-0.4,0.2V41c0.3,0.1,0.7,0.2,0.9,0.2c0.3,0,0.5,0.1,0.8,0.1c0.3,0,0.5,0,0.7-0.1
			s0.3-0.2,0.5-0.4c0.1-0.2,0.2-0.4,0.2-0.8C211.9,39.7,212,39.3,212,38.8z"/>
		<path class="st0" d="M216.5,39.3c0,0.4,0.1,0.7,0.1,1c0.1,0.3,0.2,0.5,0.3,0.6c0.2,0.1,0.3,0.2,0.6,0.3c0.2,0.1,0.5,0.1,0.8,0.1
			c0.3,0,0.6,0,1-0.1c0.4,0,0.7-0.1,1-0.1c0.1,0,0.2,0,0.3,0c0.1,0,0.1,0.1,0.1,0.2l0.1,0.5c0,0.1,0,0.2,0,0.3
			c0,0.1-0.1,0.1-0.2,0.2c-0.2,0.1-0.3,0.1-0.5,0.2c-0.2,0-0.4,0.1-0.6,0.1c-0.2,0-0.4,0.1-0.7,0.1c-0.2,0-0.4,0-0.6,0
			c-0.7,0-1.3-0.1-1.7-0.3c-0.4-0.2-0.8-0.5-1-0.8c-0.2-0.4-0.4-0.8-0.5-1.2c-0.1-0.5-0.1-0.9-0.1-1.4c0-0.4,0-0.8,0.1-1.2
			c0.1-0.5,0.2-0.9,0.4-1.3c0.2-0.4,0.5-0.7,1-1c0.4-0.3,1-0.4,1.8-0.4c0.7,0,1.2,0.1,1.6,0.3c0.4,0.2,0.7,0.5,1,0.8
			c0.2,0.3,0.4,0.7,0.5,1.1c0.1,0.4,0.1,0.8,0.1,1.2c0,0.3,0,0.5-0.1,0.7c-0.1,0.2-0.3,0.3-0.6,0.3L216.5,39.3L216.5,39.3z
			 M218,36.4c-0.3,0-0.5,0-0.7,0.1c-0.2,0.1-0.3,0.2-0.4,0.4c-0.1,0.2-0.2,0.3-0.3,0.6c0,0.2-0.1,0.5-0.1,0.8h3c0-0.2,0-0.5-0.1-0.7
			c0-0.2-0.1-0.4-0.2-0.6c-0.1-0.2-0.3-0.3-0.5-0.4C218.6,36.4,218.3,36.4,218,36.4z"/>
		<path class="st0" d="M228.9,38.7c0,0.4,0,0.9-0.1,1.3c-0.1,0.5-0.2,0.9-0.4,1.3c-0.2,0.4-0.6,0.7-1,1c-0.4,0.2-1.1,0.4-1.8,0.4
			c-0.8,0-1.4-0.1-1.8-0.4c-0.4-0.2-0.8-0.6-1-1c-0.2-0.4-0.4-0.8-0.4-1.3c-0.1-0.5-0.1-0.9-0.1-1.3c0-0.4,0-0.7,0.1-1.2
			c0.1-0.4,0.2-0.8,0.4-1.2c0.2-0.4,0.5-0.7,1-1c0.4-0.3,1-0.4,1.7-0.4c0.7,0,1.3,0.1,1.8,0.3c0.4,0.2,0.8,0.5,1,0.9
			c0.2,0.4,0.4,0.8,0.5,1.2C228.9,37.9,228.9,38.3,228.9,38.7z M227.2,38.9c0-0.4,0-0.8-0.1-1.1c0-0.3-0.1-0.5-0.2-0.7
			c-0.1-0.2-0.3-0.3-0.5-0.4c-0.2-0.1-0.5-0.2-0.8-0.2c-0.3,0-0.6,0.1-0.8,0.2c-0.2,0.1-0.4,0.3-0.5,0.5c-0.1,0.2-0.2,0.5-0.2,0.8
			c0,0.3-0.1,0.6-0.1,1c0,0.4,0,0.8,0.1,1.1c0,0.3,0.1,0.5,0.2,0.7c0.1,0.2,0.3,0.3,0.5,0.4c0.2,0.1,0.5,0.2,0.8,0.2
			c0.3,0,0.6,0,0.8-0.1c0.2-0.1,0.4-0.2,0.5-0.4c0.1-0.2,0.2-0.4,0.2-0.8C227.2,39.6,227.2,39.3,227.2,38.9z"/>
		<path class="st0" d="M141.5,56.5c0,0.1,0,0.2-0.1,0.2c0,0.1-0.1,0.1-0.2,0.1h-1.1c-0.2,0-0.3-0.1-0.3-0.3V56c0,0,0,0,0,0
			c0,0,0,0,0,0c-0.1,0.1-0.3,0.2-0.5,0.3c-0.2,0.1-0.4,0.2-0.6,0.3c-0.2,0.1-0.4,0.2-0.7,0.2c-0.2,0.1-0.5,0.1-0.7,0.1
			c-0.5,0-0.9-0.1-1.2-0.3c-0.3-0.2-0.6-0.4-0.8-0.8c-0.2-0.3-0.3-0.7-0.4-1.2c-0.1-0.5-0.1-1-0.1-1.6c0-0.6,0-1.2,0.1-1.7
			c0.1-0.5,0.2-0.9,0.5-1.3c0.2-0.3,0.5-0.6,0.9-0.8c0.4-0.2,0.9-0.3,1.5-0.3c0.6,0,1.3,0.1,1.9,0.3c0,0,0,0,0,0c0,0,0,0,0,0v-3.1
			c0-0.1,0-0.2,0.1-0.2c0,0,0.1-0.1,0.2-0.1h1.1c0.1,0,0.2,0,0.2,0.1c0,0.1,0,0.1,0,0.2V56.5z M139.9,50.9c-0.4-0.1-0.7-0.2-1-0.2
			c-0.3,0-0.5-0.1-0.8-0.1c-0.3,0-0.5,0-0.7,0.1c-0.2,0.1-0.3,0.2-0.5,0.4c-0.1,0.2-0.2,0.4-0.2,0.8c-0.1,0.3-0.1,0.7-0.1,1.2
			c0,0.5,0,0.9,0.1,1.2c0,0.3,0.1,0.5,0.2,0.7s0.2,0.3,0.4,0.3s0.3,0.1,0.5,0.1c0.2,0,0.3,0,0.5-0.1c0.2-0.1,0.4-0.1,0.6-0.2
			c0.2-0.1,0.4-0.1,0.5-0.2c0.2-0.1,0.3-0.1,0.4-0.2V50.9z"/>
		<path class="st0" d="M144.6,53.5c0,0.4,0.1,0.7,0.1,1c0.1,0.3,0.2,0.5,0.3,0.6c0.2,0.1,0.3,0.2,0.6,0.3c0.2,0.1,0.5,0.1,0.8,0.1
			c0.3,0,0.6,0,1-0.1c0.4,0,0.7-0.1,1-0.1c0.1,0,0.2,0,0.3,0c0.1,0,0.1,0.1,0.1,0.2l0.1,0.5c0,0.1,0,0.2,0,0.3
			c0,0.1-0.1,0.1-0.2,0.2c-0.2,0.1-0.3,0.1-0.5,0.2c-0.2,0-0.4,0.1-0.6,0.1c-0.2,0-0.4,0.1-0.7,0.1c-0.2,0-0.4,0-0.6,0
			c-0.7,0-1.3-0.1-1.7-0.3c-0.4-0.2-0.8-0.5-1-0.8c-0.2-0.4-0.4-0.8-0.5-1.2c-0.1-0.5-0.1-0.9-0.1-1.4c0-0.4,0-0.8,0.1-1.2
			c0.1-0.5,0.2-0.9,0.4-1.3c0.2-0.4,0.5-0.7,1-1c0.4-0.3,1-0.4,1.8-0.4c0.7,0,1.2,0.1,1.6,0.3c0.4,0.2,0.7,0.5,1,0.8
			c0.2,0.3,0.4,0.7,0.5,1.1c0.1,0.4,0.1,0.8,0.1,1.2c0,0.3,0,0.5-0.1,0.7c-0.1,0.2-0.3,0.3-0.6,0.3
			C148.6,53.5,144.6,53.5,144.6,53.5z M146.1,50.6c-0.3,0-0.5,0-0.7,0.1c-0.2,0.1-0.3,0.2-0.4,0.4c-0.1,0.2-0.2,0.3-0.2,0.6
			c-0.1,0.2-0.1,0.5-0.1,0.8h3c0-0.2,0-0.5-0.1-0.7s-0.1-0.4-0.2-0.6c-0.1-0.2-0.3-0.3-0.5-0.4C146.7,50.6,146.4,50.6,146.1,50.6z"
			/>
		<path class="st0" d="M155.3,56.8c-0.1,0-0.2,0-0.3-0.1c0,0-0.1-0.1-0.1-0.2V47c0-0.2,0.1-0.3,0.3-0.3h3.1c0.8,0,1.5,0.1,2.1,0.4
			c0.5,0.3,1,0.6,1.3,1.1c0.3,0.5,0.5,1,0.7,1.6c0.1,0.6,0.2,1.2,0.2,1.9c0,0.7-0.1,1.3-0.2,1.9c-0.1,0.6-0.3,1.1-0.7,1.6
			c-0.3,0.5-0.7,0.8-1.3,1.1c-0.6,0.3-1.3,0.4-2.1,0.4H155.3z M160.8,51.9c0-0.7-0.1-1.3-0.2-1.8c-0.1-0.5-0.3-0.8-0.5-1.1
			c-0.2-0.3-0.5-0.5-0.8-0.6c-0.3-0.1-0.6-0.2-1-0.2h-1.6v7.1h1.5c0.3,0,0.7,0,1-0.1c0.3-0.1,0.6-0.3,0.8-0.5
			c0.2-0.3,0.4-0.6,0.6-1.1C160.7,53.1,160.8,52.6,160.8,51.9z"/>
		<path class="st0" d="M165.8,53.5c0,0.4,0.1,0.7,0.1,1c0.1,0.3,0.2,0.5,0.3,0.6c0.2,0.1,0.3,0.2,0.6,0.3c0.2,0.1,0.5,0.1,0.8,0.1
			c0.3,0,0.6,0,1-0.1c0.4,0,0.7-0.1,1-0.1c0.1,0,0.2,0,0.3,0c0.1,0,0.1,0.1,0.1,0.2l0.1,0.5c0,0.1,0,0.2,0,0.3s-0.1,0.1-0.2,0.2
			c-0.2,0.1-0.3,0.1-0.5,0.2c-0.2,0-0.4,0.1-0.6,0.1s-0.4,0.1-0.7,0.1c-0.2,0-0.4,0-0.6,0c-0.7,0-1.3-0.1-1.7-0.3
			c-0.4-0.2-0.8-0.5-1-0.8c-0.2-0.4-0.4-0.8-0.5-1.2c-0.1-0.5-0.1-0.9-0.1-1.4c0-0.4,0-0.8,0.1-1.2c0.1-0.5,0.2-0.9,0.4-1.3
			c0.2-0.4,0.5-0.7,1-1c0.4-0.3,1-0.4,1.8-0.4c0.7,0,1.2,0.1,1.6,0.3c0.4,0.2,0.7,0.5,1,0.8c0.2,0.3,0.4,0.7,0.5,1.1
			c0.1,0.4,0.1,0.8,0.1,1.2c0,0.3,0,0.5-0.1,0.7c-0.1,0.2-0.3,0.3-0.6,0.3C169.8,53.5,165.8,53.5,165.8,53.5z M167.3,50.6
			c-0.3,0-0.5,0-0.7,0.1c-0.2,0.1-0.3,0.2-0.4,0.4c-0.1,0.2-0.2,0.3-0.3,0.6c0,0.2-0.1,0.5-0.1,0.8h3c0-0.2,0-0.5-0.1-0.7
			c0-0.2-0.1-0.4-0.2-0.6c-0.1-0.2-0.3-0.3-0.5-0.4C167.9,50.6,167.6,50.6,167.3,50.6z"/>
		<path class="st0" d="M177.3,54.6c0,0.4-0.1,0.8-0.3,1.1c-0.2,0.3-0.4,0.5-0.7,0.7c-0.3,0.2-0.6,0.3-1,0.4
			c-0.4,0.1-0.7,0.1-1.1,0.1c-0.4,0-0.8,0-1.2-0.1c-0.4-0.1-0.8-0.1-1.1-0.2c-0.2-0.1-0.2-0.1-0.3-0.2c0-0.1-0.1-0.2,0-0.3l0.1-0.5
			c0-0.1,0.1-0.2,0.1-0.2c0.1,0,0.2,0,0.3,0c0.2,0,0.3,0.1,0.5,0.1c0.2,0,0.4,0,0.6,0.1c0.2,0,0.4,0,0.6,0c0.2,0,0.3,0,0.5,0
			c0.5,0,0.8-0.1,1-0.2c0.2-0.1,0.3-0.4,0.3-0.7c0-0.2,0-0.3-0.1-0.4c0-0.1-0.1-0.2-0.2-0.3c-0.1-0.1-0.2-0.1-0.4-0.2
			c-0.2,0-0.4-0.1-0.6-0.1c-0.4,0-0.7-0.1-1.1-0.2c-0.3-0.1-0.6-0.2-0.9-0.4c-0.3-0.2-0.5-0.4-0.6-0.6c-0.2-0.3-0.2-0.6-0.2-1
			c0-0.7,0.3-1.3,0.8-1.7c0.5-0.4,1.2-0.6,2.1-0.6c0.2,0,0.3,0,0.5,0c0.2,0,0.4,0,0.6,0.1c0.2,0,0.4,0.1,0.6,0.1
			c0.2,0,0.4,0.1,0.5,0.2c0.3,0.1,0.4,0.3,0.3,0.5l-0.1,0.5c0,0.1-0.1,0.2-0.1,0.2c-0.1,0-0.2,0-0.3,0c-0.3,0-0.7-0.1-1.1-0.1
			c-0.4,0-0.7-0.1-1-0.1c-0.5,0-0.8,0.1-1,0.2c-0.2,0.1-0.2,0.4-0.2,0.6c0,0.3,0.1,0.5,0.3,0.6c0.2,0.1,0.5,0.2,1,0.2
			c0.4,0.1,0.7,0.1,1,0.2c0.3,0.1,0.6,0.2,0.9,0.4c0.3,0.2,0.5,0.4,0.6,0.7C177.3,53.7,177.3,54.1,177.3,54.6z"/>
		<path class="st0" d="M183.3,55.9c-0.4,0.3-0.8,0.5-1.3,0.7c-0.5,0.2-1,0.3-1.5,0.3c-0.4,0-0.7-0.1-1-0.2c-0.3-0.1-0.5-0.3-0.6-0.4
			s-0.3-0.4-0.3-0.7c-0.1-0.3-0.1-0.6-0.1-0.9c0-0.9,0.2-1.5,0.7-1.9c0.5-0.4,1.2-0.6,2.2-0.6h1.9v-0.4c0-0.2,0-0.4-0.1-0.6
			c0-0.2-0.1-0.3-0.3-0.4s-0.3-0.2-0.5-0.2c-0.2,0-0.5-0.1-0.8-0.1c-0.1,0-0.3,0-0.4,0c-0.2,0-0.4,0-0.5,0c-0.2,0-0.4,0-0.6,0
			c-0.2,0-0.4,0-0.5,0c-0.2,0-0.3,0-0.3,0c-0.1,0-0.1-0.1-0.1-0.2L179,50c0-0.1,0-0.2,0-0.2c0-0.1,0.1-0.1,0.3-0.2
			c0.2-0.1,0.4-0.1,0.6-0.1c0.2,0,0.4-0.1,0.7-0.1c0.2,0,0.5,0,0.7-0.1c0.2,0,0.4,0,0.6,0c0.7,0,1.2,0.1,1.6,0.2
			c0.4,0.1,0.7,0.3,0.9,0.6c0.2,0.2,0.3,0.5,0.4,0.9c0.1,0.3,0.1,0.7,0.1,1.2v2.9c0,0.2,0,0.3,0,0.4c0,0.1,0,0.2,0.1,0.2
			c0,0,0.1,0.1,0.2,0.1c0.1,0,0.2,0,0.3,0c0.1,0,0.2,0,0.2,0.1c0,0,0.1,0.1,0.1,0.2v0.6c0,0.2-0.1,0.3-0.4,0.3c-0.1,0-0.2,0-0.4,0.1
			c-0.1,0-0.2,0-0.3,0c-0.4,0-0.6-0.1-0.9-0.2C183.6,56.5,183.4,56.3,183.3,55.9L183.3,55.9z M183.2,53.4h-1.8
			c-0.4,0-0.7,0.1-0.9,0.3c-0.2,0.2-0.3,0.5-0.3,1c0,0.3,0.1,0.6,0.2,0.7c0.1,0.1,0.4,0.2,0.7,0.2c0.2,0,0.3,0,0.5-0.1
			c0.2,0,0.4-0.1,0.6-0.2c0.2-0.1,0.4-0.1,0.6-0.2c0.2-0.1,0.3-0.2,0.5-0.2V53.4z"/>
		<path class="st0" d="M188.6,56.5c0,0.2-0.1,0.3-0.3,0.3h-1.1c-0.2,0-0.3-0.1-0.3-0.3v-6.8c0-0.2,0.1-0.3,0.3-0.3h1.1
			c0.2,0,0.3,0.1,0.3,0.3v0.7l0,0c0.1-0.1,0.3-0.2,0.4-0.3c0.2-0.1,0.4-0.2,0.6-0.3c0.2-0.1,0.4-0.2,0.6-0.3
			c0.2-0.1,0.4-0.1,0.6-0.2c0.1,0,0.2,0,0.2,0c0.1,0,0.1,0.1,0.1,0.2l0.1,1c0,0.1,0,0.2,0,0.2c0,0.1-0.1,0.1-0.3,0.1
			c-0.2,0-0.4,0.1-0.7,0.1c-0.2,0.1-0.5,0.1-0.7,0.2c-0.2,0.1-0.4,0.1-0.6,0.2c-0.2,0.1-0.4,0.1-0.5,0.2V56.5z"/>
		<path class="st0" d="M194,56.5c0,0.2-0.1,0.3-0.3,0.3h-1.1c-0.2,0-0.3-0.1-0.3-0.3v-6.8c0-0.2,0.1-0.3,0.3-0.3h1.1
			c0.2,0,0.3,0.1,0.3,0.3v0.7l0,0c0.1-0.1,0.3-0.2,0.4-0.3c0.2-0.1,0.4-0.2,0.6-0.3c0.2-0.1,0.4-0.2,0.6-0.3
			c0.2-0.1,0.4-0.1,0.6-0.2c0.1,0,0.2,0,0.2,0c0.1,0,0.1,0.1,0.1,0.2l0.1,1c0,0.1,0,0.2,0,0.2c0,0.1-0.1,0.1-0.3,0.1
			c-0.2,0-0.4,0.1-0.7,0.1c-0.2,0.1-0.5,0.1-0.7,0.2s-0.4,0.1-0.6,0.2c-0.2,0.1-0.4,0.1-0.5,0.2V56.5z"/>
		<path class="st0" d="M203.9,53c0,0.4,0,0.9-0.1,1.3c-0.1,0.5-0.2,0.9-0.4,1.3c-0.2,0.4-0.6,0.7-1,1c-0.4,0.2-1.1,0.4-1.8,0.4
			c-0.8,0-1.4-0.1-1.8-0.4c-0.4-0.2-0.8-0.6-1-1c-0.2-0.4-0.4-0.8-0.4-1.3c-0.1-0.5-0.1-0.9-0.1-1.3c0-0.4,0-0.7,0.1-1.2
			s0.2-0.8,0.4-1.2c0.2-0.4,0.5-0.7,1-1c0.4-0.3,1-0.4,1.7-0.4c0.7,0,1.3,0.1,1.8,0.3c0.4,0.2,0.8,0.5,1,0.9
			c0.2,0.4,0.4,0.8,0.5,1.2C203.9,52.1,203.9,52.5,203.9,53z M202.2,53.1c0-0.4,0-0.8-0.1-1.1c0-0.3-0.1-0.5-0.2-0.7
			c-0.1-0.2-0.3-0.3-0.5-0.4c-0.2-0.1-0.5-0.2-0.8-0.2c-0.3,0-0.6,0.1-0.8,0.2c-0.2,0.1-0.4,0.3-0.5,0.5c-0.1,0.2-0.2,0.5-0.2,0.8
			c0,0.3-0.1,0.6-0.1,1c0,0.4,0,0.8,0.1,1.1c0,0.3,0.1,0.5,0.2,0.7c0.1,0.2,0.3,0.3,0.5,0.4c0.2,0.1,0.5,0.2,0.8,0.2
			c0.3,0,0.6,0,0.8-0.1c0.2-0.1,0.4-0.2,0.5-0.4c0.1-0.2,0.2-0.4,0.2-0.8C202.2,53.8,202.2,53.5,202.2,53.1z"/>
		<path class="st0" d="M207.1,54.9c0,0.2,0.1,0.4,0.2,0.4c0.1,0.1,0.3,0.1,0.6,0.1c0.1,0,0.2,0,0.2,0c0,0,0.1,0.1,0.1,0.2l0.1,0.8
			c0,0.1-0.1,0.2-0.2,0.3c-0.1,0.1-0.3,0.1-0.5,0.1c-0.2,0-0.4,0-0.5,0c-0.6,0-1-0.1-1.2-0.4c-0.2-0.3-0.3-0.6-0.3-1.2v-8.9
			c0-0.2,0.1-0.3,0.3-0.3h1.1c0.2,0,0.3,0.1,0.3,0.3V54.9z"/>
		<path class="st0" d="M211,54.9c0,0.2,0.1,0.4,0.2,0.4c0.1,0.1,0.3,0.1,0.6,0.1c0.1,0,0.2,0,0.2,0c0,0,0.1,0.1,0.1,0.2l0.1,0.8
			c0,0.1-0.1,0.2-0.2,0.3c-0.1,0.1-0.3,0.1-0.5,0.1c-0.2,0-0.4,0-0.5,0c-0.6,0-1-0.1-1.2-0.4c-0.2-0.3-0.3-0.6-0.3-1.2v-8.9
			c0-0.2,0.1-0.3,0.3-0.3h1.1c0.2,0,0.3,0.1,0.3,0.3V54.9z"/>
		<path class="st0" d="M219.5,53c0,0.4,0,0.9-0.1,1.3c-0.1,0.5-0.2,0.9-0.4,1.3c-0.2,0.4-0.6,0.7-1,1c-0.4,0.2-1.1,0.4-1.8,0.4
			c-0.8,0-1.4-0.1-1.8-0.4c-0.4-0.2-0.8-0.6-1-1c-0.2-0.4-0.4-0.8-0.4-1.3c-0.1-0.5-0.1-0.9-0.1-1.3c0-0.4,0-0.7,0.1-1.2
			c0.1-0.4,0.2-0.8,0.4-1.2c0.2-0.4,0.5-0.7,1-1c0.4-0.3,1-0.4,1.7-0.4c0.7,0,1.3,0.1,1.8,0.3c0.4,0.2,0.8,0.5,1,0.9
			c0.2,0.4,0.4,0.8,0.5,1.2C219.5,52.1,219.5,52.5,219.5,53z M217.8,53.1c0-0.4,0-0.8-0.1-1.1c0-0.3-0.1-0.5-0.2-0.7
			s-0.3-0.3-0.5-0.4c-0.2-0.1-0.5-0.2-0.8-0.2c-0.3,0-0.6,0.1-0.8,0.2c-0.2,0.1-0.4,0.3-0.5,0.5c-0.1,0.2-0.2,0.5-0.2,0.8
			c0,0.3-0.1,0.6-0.1,1c0,0.4,0,0.8,0.1,1.1c0,0.3,0.1,0.5,0.2,0.7s0.3,0.3,0.5,0.4c0.2,0.1,0.5,0.2,0.8,0.2c0.3,0,0.6,0,0.8-0.1
			c0.2-0.1,0.4-0.2,0.5-0.4s0.2-0.4,0.2-0.8C217.8,53.8,217.8,53.5,217.8,53.1z"/>
		<path class="st0" d="M232.1,56.5c0,0.1,0,0.2,0,0.2c0,0.1-0.1,0.1-0.2,0.1h-1.3c-0.1,0-0.2,0-0.3,0c-0.1,0-0.1-0.1-0.2-0.2
			l-1.8-3.8h-1.5v3.8c0,0.2-0.1,0.3-0.3,0.3h-1.1c-0.2,0-0.3-0.1-0.3-0.3V47c0-0.2,0.1-0.3,0.3-0.3h3.4c0.4,0,0.8,0.1,1.1,0.2
			c0.4,0.1,0.7,0.3,1,0.5c0.3,0.2,0.5,0.5,0.7,0.9c0.2,0.4,0.3,0.8,0.3,1.3c0,0.3,0,0.5-0.1,0.8c-0.1,0.3-0.2,0.5-0.3,0.8
			c-0.1,0.2-0.3,0.5-0.6,0.7c-0.2,0.2-0.5,0.4-0.8,0.5L232.1,56.5z M230.2,49.7c0-0.3,0-0.5-0.1-0.7c-0.1-0.2-0.2-0.3-0.4-0.4
			s-0.3-0.2-0.5-0.2c-0.2,0-0.4-0.1-0.6-0.1h-1.6v3.1h1.6c0.2,0,0.4,0,0.6-0.1c0.2,0,0.4-0.1,0.6-0.2c0.2-0.1,0.3-0.3,0.4-0.5
			C230.1,50.3,230.2,50,230.2,49.7z"/>
		<path class="st0" d="M234.9,53.5c0,0.4,0.1,0.7,0.1,1c0.1,0.3,0.2,0.5,0.3,0.6c0.2,0.1,0.3,0.2,0.6,0.3c0.2,0.1,0.5,0.1,0.8,0.1
			c0.3,0,0.6,0,1-0.1c0.4,0,0.7-0.1,1-0.1c0.1,0,0.2,0,0.3,0c0.1,0,0.1,0.1,0.1,0.2l0.1,0.5c0,0.1,0,0.2,0,0.3s-0.1,0.1-0.2,0.2
			c-0.2,0.1-0.3,0.1-0.5,0.2c-0.2,0-0.4,0.1-0.6,0.1c-0.2,0-0.4,0.1-0.7,0.1c-0.2,0-0.4,0-0.6,0c-0.7,0-1.3-0.1-1.7-0.3
			c-0.4-0.2-0.8-0.5-1-0.8c-0.2-0.4-0.4-0.8-0.5-1.2c-0.1-0.5-0.1-0.9-0.1-1.4c0-0.4,0-0.8,0.1-1.2c0.1-0.5,0.2-0.9,0.4-1.3
			c0.2-0.4,0.5-0.7,1-1c0.4-0.3,1-0.4,1.8-0.4c0.7,0,1.2,0.1,1.6,0.3c0.4,0.2,0.7,0.5,1,0.8c0.2,0.3,0.4,0.7,0.5,1.1
			c0.1,0.4,0.1,0.8,0.1,1.2c0,0.3,0,0.5-0.1,0.7c-0.1,0.2-0.3,0.3-0.6,0.3C238.9,53.5,234.9,53.5,234.9,53.5z M236.4,50.6
			c-0.3,0-0.5,0-0.7,0.1c-0.2,0.1-0.3,0.2-0.4,0.4c-0.1,0.2-0.2,0.3-0.3,0.6c0,0.2-0.1,0.5-0.1,0.8h3c0-0.2,0-0.5-0.1-0.7
			c0-0.2-0.1-0.4-0.2-0.6c-0.1-0.2-0.3-0.3-0.5-0.4C237,50.6,236.7,50.6,236.4,50.6z"/>
		<path class="st0" d="M244.1,49.2c0.5,0,1,0,1.5,0.1c0.5,0.1,1,0.2,1.3,0.3c0.2,0.1,0.3,0.2,0.3,0.3c0,0.1,0.1,0.3,0.1,0.4v6.4
			c0,0.4,0,0.8-0.1,1.2c-0.1,0.4-0.2,0.7-0.4,1c-0.2,0.3-0.5,0.5-1,0.6s-1,0.2-1.7,0.2c-0.4,0-0.8,0-1.3-0.1
			c-0.5-0.1-0.8-0.1-1.2-0.3c-0.2-0.1-0.3-0.1-0.3-0.2c0-0.1,0-0.2,0-0.2l0.1-0.6c0-0.1,0.1-0.2,0.1-0.2c0.1,0,0.2,0,0.3,0
			c0.3,0.1,0.7,0.1,1.1,0.1c0.4,0,0.7,0,1,0c0.3,0,0.6,0,0.8-0.1c0.2-0.1,0.4-0.1,0.5-0.2c0.1-0.1,0.2-0.2,0.2-0.4
			c0-0.2,0.1-0.4,0.1-0.6v-0.5c-0.4,0.1-0.7,0.2-1,0.3c-0.3,0.1-0.6,0.1-0.8,0.1c-0.6,0-1.1-0.1-1.5-0.3c-0.4-0.2-0.7-0.4-0.9-0.8
			c-0.2-0.3-0.4-0.7-0.5-1.2c-0.1-0.5-0.1-1-0.1-1.5c0-0.6,0-1.1,0.2-1.6c0.1-0.5,0.3-0.9,0.5-1.2c0.3-0.3,0.6-0.6,1-0.8
			C242.9,49.3,243.5,49.2,244.1,49.2z M242.5,53c0,0.5,0,0.9,0.1,1.2c0.1,0.3,0.1,0.6,0.3,0.8s0.3,0.3,0.5,0.4
			c0.2,0.1,0.4,0.1,0.7,0.1c0.2,0,0.5,0,0.8-0.1c0.3,0,0.6-0.1,0.9-0.2v-4.3c-0.2,0-0.5-0.1-0.8-0.1c-0.3,0-0.5,0-0.8,0
			c-0.2,0-0.4,0-0.7,0.1c-0.2,0-0.4,0.2-0.5,0.3c-0.2,0.2-0.3,0.4-0.4,0.7C242.6,52.1,242.5,52.5,242.5,53z"/>
		<path class="st0" d="M250.8,47.4c0,0.1,0,0.2,0,0.3c0,0.1-0.1,0.2-0.1,0.3c-0.1,0.1-0.2,0.1-0.3,0.2c-0.1,0-0.3,0.1-0.5,0.1
			c-0.2,0-0.4,0-0.5-0.1c-0.1,0-0.2-0.1-0.3-0.2c-0.1-0.1-0.1-0.2-0.1-0.3c0-0.1,0-0.2,0-0.3c0-0.2,0.1-0.4,0.2-0.6
			c0.1-0.2,0.4-0.2,0.7-0.2c0.4,0,0.6,0.1,0.7,0.2C250.7,46.9,250.8,47.1,250.8,47.4z M250.7,56.5c0,0.1,0,0.1-0.1,0.2
			c0,0.1-0.1,0.1-0.2,0.1h-1.1c-0.2,0-0.3-0.1-0.3-0.3v-6.9c0-0.2,0.1-0.3,0.3-0.3h1.1c0.1,0,0.2,0,0.2,0.1c0,0.1,0.1,0.1,0.1,0.2
			V56.5z"/>
		<path class="st0" d="M258.9,53c0,0.4,0,0.9-0.1,1.3c-0.1,0.5-0.2,0.9-0.4,1.3c-0.2,0.4-0.6,0.7-1,1c-0.4,0.2-1.1,0.4-1.8,0.4
			c-0.8,0-1.4-0.1-1.8-0.4c-0.4-0.2-0.8-0.6-1-1c-0.2-0.4-0.4-0.8-0.4-1.3c-0.1-0.5-0.1-0.9-0.1-1.3c0-0.4,0-0.7,0.1-1.2
			c0.1-0.4,0.2-0.8,0.4-1.2c0.2-0.4,0.5-0.7,1-1c0.4-0.3,1-0.4,1.7-0.4c0.7,0,1.3,0.1,1.8,0.3c0.4,0.2,0.8,0.5,1,0.9
			c0.2,0.4,0.4,0.8,0.5,1.2C258.8,52.1,258.9,52.5,258.9,53z M257.2,53.1c0-0.4,0-0.8-0.1-1.1c0-0.3-0.1-0.5-0.2-0.7
			s-0.3-0.3-0.5-0.4c-0.2-0.1-0.5-0.2-0.8-0.2c-0.3,0-0.6,0.1-0.8,0.2c-0.2,0.1-0.4,0.3-0.5,0.5c-0.1,0.2-0.2,0.5-0.2,0.8
			c0,0.3-0.1,0.6-0.1,1c0,0.4,0,0.8,0.1,1.1c0,0.3,0.1,0.5,0.2,0.7c0.1,0.2,0.3,0.3,0.5,0.4c0.2,0.1,0.5,0.2,0.8,0.2
			c0.3,0,0.6,0,0.8-0.1c0.2-0.1,0.4-0.2,0.5-0.4s0.2-0.4,0.2-0.8C257.2,53.8,257.2,53.5,257.2,53.1z"/>
		<path class="st0" d="M266.6,56.7c0,0.1-0.1,0.1-0.2,0.1h-1.1c-0.2,0-0.3-0.1-0.3-0.3l0-4.3c0-0.4-0.1-0.8-0.2-1.1
			c-0.1-0.3-0.4-0.4-0.9-0.4c-0.2,0-0.3,0-0.5,0.1c-0.2,0.1-0.4,0.1-0.6,0.2s-0.4,0.2-0.6,0.2c-0.2,0.1-0.3,0.1-0.4,0.2v5.1
			c0,0.2-0.1,0.3-0.3,0.3h-1.1c-0.2,0-0.3-0.1-0.3-0.3v-6.8c0-0.2,0.1-0.3,0.3-0.3h1.1c0.2,0,0.3,0.1,0.3,0.3v0.5c0,0,0,0,0,0
			c0,0,0,0,0,0c0.1-0.1,0.3-0.2,0.5-0.3c0.2-0.1,0.4-0.2,0.6-0.3c0.2-0.1,0.5-0.2,0.7-0.2c0.2-0.1,0.5-0.1,0.7-0.1
			c0.5,0,0.9,0.1,1.2,0.2c0.3,0.2,0.5,0.4,0.7,0.6c0.2,0.3,0.2,0.6,0.3,0.9c0,0.3,0.1,0.7,0.1,1.1v4.4
			C266.7,56.6,266.7,56.7,266.6,56.7z"/>
		<path class="st0" d="M272.8,55.9c-0.4,0.3-0.8,0.5-1.3,0.7c-0.5,0.2-1,0.3-1.5,0.3c-0.4,0-0.7-0.1-1-0.2c-0.3-0.1-0.5-0.3-0.6-0.4
			s-0.3-0.4-0.3-0.7c-0.1-0.3-0.1-0.6-0.1-0.9c0-0.9,0.2-1.5,0.7-1.9c0.5-0.4,1.2-0.6,2.2-0.6h1.9v-0.4c0-0.2,0-0.4-0.1-0.6
			c0-0.2-0.1-0.3-0.3-0.4s-0.3-0.2-0.5-0.2c-0.2,0-0.5-0.1-0.8-0.1c-0.1,0-0.3,0-0.4,0c-0.2,0-0.4,0-0.5,0c-0.2,0-0.4,0-0.6,0
			c-0.2,0-0.4,0-0.5,0c-0.2,0-0.3,0-0.3,0c-0.1,0-0.1-0.1-0.1-0.2l-0.1-0.6c0-0.1,0-0.2,0-0.2c0-0.1,0.1-0.1,0.3-0.2
			c0.2-0.1,0.4-0.1,0.6-0.1c0.2,0,0.4-0.1,0.7-0.1c0.2,0,0.5,0,0.7-0.1c0.2,0,0.4,0,0.6,0c0.7,0,1.2,0.1,1.6,0.2
			c0.4,0.1,0.7,0.3,0.9,0.6c0.2,0.2,0.3,0.5,0.4,0.9c0.1,0.3,0.1,0.7,0.1,1.2v2.9c0,0.2,0,0.3,0,0.4c0,0.1,0,0.2,0.1,0.2
			c0,0,0.1,0.1,0.2,0.1c0.1,0,0.2,0,0.3,0c0.1,0,0.2,0,0.2,0.1c0,0,0.1,0.1,0.1,0.2v0.6c0,0.2-0.1,0.3-0.4,0.3c-0.1,0-0.2,0-0.4,0.1
			c-0.1,0-0.2,0-0.3,0c-0.4,0-0.6-0.1-0.9-0.2C273.1,56.5,272.9,56.3,272.8,55.9L272.8,55.9z M272.7,53.4h-1.8
			c-0.4,0-0.7,0.1-0.9,0.3c-0.2,0.2-0.3,0.5-0.3,1c0,0.3,0.1,0.6,0.2,0.7c0.1,0.1,0.4,0.2,0.7,0.2c0.2,0,0.3,0,0.5-0.1
			c0.2,0,0.4-0.1,0.6-0.2c0.2-0.1,0.4-0.1,0.6-0.2c0.2-0.1,0.3-0.2,0.5-0.2V53.4z"/>
		<path class="st0" d="M278,54.9c0,0.2,0.1,0.4,0.2,0.4c0.1,0.1,0.3,0.1,0.6,0.1c0.1,0,0.2,0,0.2,0c0,0,0.1,0.1,0.1,0.2l0.1,0.8
			c0,0.1-0.1,0.2-0.2,0.3c-0.1,0.1-0.3,0.1-0.5,0.1c-0.2,0-0.4,0-0.5,0c-0.6,0-1-0.1-1.2-0.4c-0.2-0.3-0.3-0.6-0.3-1.2v-8.9
			c0-0.2,0.1-0.3,0.3-0.3h1.1c0.2,0,0.3,0.1,0.3,0.3V54.9z"/>
	</g>
	<g>
		<path class="st0" d="M135,69c0-0.4,0.1-0.8,0.3-1.1c0.2-0.3,0.4-0.5,0.6-0.7c0,0,0.1,0,0.1,0c0,0,0.1,0,0.1,0l0.2,0.2
			c0,0,0,0.1,0,0.2c-0.2,0.2-0.4,0.5-0.4,0.8c0,0.1,0,0.3,0.1,0.4c0.1,0.1,0.1,0.3,0.2,0.4c0,0,0,0.1,0,0.1s0,0.1-0.1,0.1l-0.4,0.4
			c-0.1,0-0.1,0.1-0.1,0.1c0,0-0.1,0-0.1-0.1c-0.1-0.1-0.2-0.2-0.2-0.3C135,69.2,135,69.1,135,69z M136.4,69c0-0.4,0.1-0.8,0.3-1.1
			c0.2-0.3,0.4-0.5,0.6-0.7c0,0,0.1,0,0.1,0c0,0,0.1,0,0.1,0l0.2,0.2c0,0,0,0.1,0,0.2c-0.2,0.2-0.4,0.5-0.4,0.8c0,0.1,0,0.3,0.1,0.4
			c0.1,0.1,0.1,0.3,0.2,0.4c0,0,0,0.1,0,0.1s0,0.1-0.1,0.1l-0.4,0.4c-0.1,0-0.1,0.1-0.1,0.1c0,0-0.1,0-0.1-0.1
			c-0.1-0.1-0.2-0.2-0.2-0.3C136.4,69.2,136.4,69.1,136.4,69z"/>
		<path class="st0" d="M144.1,67.3c0,0,0.1,0,0.1,0h0.4c0.1,0,0.2,0.1,0.2,0.2l0,5.2c0,0.3,0,0.5,0,0.8c0,0.2-0.1,0.5-0.2,0.7
			c-0.2,0.6-0.6,1-1.1,1.2c-0.5,0.3-1,0.4-1.7,0.4c-0.7,0-1.2-0.1-1.7-0.4c-0.5-0.3-0.8-0.7-1-1.2c-0.1-0.2-0.1-0.5-0.2-0.7
			c0-0.3,0-0.5,0-0.8v-5.2c0-0.1,0-0.1,0-0.2c0,0,0.1,0,0.1,0h0.4c0.1,0,0.2,0.1,0.2,0.2v5.3c0,0.8,0.2,1.4,0.5,1.8
			c0.4,0.4,0.9,0.6,1.7,0.6c0.7,0,1.3-0.2,1.7-0.6c0.4-0.4,0.6-1,0.6-1.8v-5.3C144,67.4,144.1,67.3,144.1,67.3z"/>
		<path class="st0" d="M150.2,70.9c0-0.2-0.1-0.4-0.2-0.5c-0.1-0.1-0.2-0.2-0.3-0.3s-0.4-0.1-0.6-0.1c-0.2,0-0.4,0-0.6,0.1
			c-0.2,0.1-0.4,0.1-0.7,0.2c-0.2,0.1-0.4,0.2-0.6,0.3c-0.2,0.1-0.3,0.2-0.4,0.2v4.7c0,0.1-0.1,0.2-0.2,0.2h-0.3c-0.1,0-0.1,0-0.1,0
			c0,0,0-0.1,0-0.2v-5.8c0-0.1,0-0.1,0-0.2c0,0,0.1,0,0.1,0h0.3c0.1,0,0.1,0,0.1,0c0,0,0,0.1,0,0.2l0,0.6c0.1-0.1,0.2-0.1,0.4-0.2
			c0.2-0.1,0.4-0.2,0.6-0.3c0.2-0.1,0.4-0.2,0.7-0.2c0.2-0.1,0.5-0.1,0.7-0.1c0.4,0,0.7,0.1,0.9,0.2c0.2,0.1,0.4,0.3,0.5,0.5
			c0.1,0.2,0.2,0.4,0.2,0.7c0,0.3,0.1,0.6,0.1,0.9v3.9c0,0.1-0.1,0.2-0.2,0.2h-0.3c-0.1,0-0.1,0-0.1,0c0,0,0-0.1,0-0.2v-3.7
			C150.2,71.4,150.2,71.1,150.2,70.9z"/>
		<path class="st0" d="M156.3,75c-0.2,0.1-0.4,0.2-0.6,0.3c-0.2,0.1-0.4,0.2-0.6,0.3c-0.2,0.1-0.4,0.1-0.7,0.2
			c-0.2,0-0.5,0.1-0.8,0.1c-0.6,0-1-0.1-1.2-0.4c-0.3-0.3-0.4-0.7-0.4-1.3c0-0.7,0.2-1.3,0.5-1.6c0.4-0.3,0.9-0.5,1.7-0.5h2v-0.6
			c0-0.3,0-0.5-0.1-0.6s-0.1-0.3-0.3-0.4c-0.1-0.1-0.3-0.2-0.5-0.3c-0.2-0.1-0.5-0.1-0.8-0.1c-0.3,0-0.6,0-0.9,0
			c-0.3,0-0.6,0.1-0.9,0.1c-0.1,0-0.2,0-0.2-0.1l-0.1-0.2c0-0.1,0-0.1,0.1-0.2c0.1-0.1,0.3-0.1,0.5-0.1c0.2,0,0.4-0.1,0.5-0.1
			c0.2,0,0.4,0,0.5,0c0.2,0,0.3,0,0.5,0c0.5,0,0.9,0,1.2,0.1c0.3,0.1,0.5,0.2,0.7,0.4c0.2,0.2,0.3,0.4,0.3,0.7
			c0.1,0.3,0.1,0.6,0.1,1v3.1c0,0.1,0,0.2,0,0.3c0,0.1,0,0.1,0.1,0.1c0,0,0.1,0.1,0.2,0.1c0.1,0,0.2,0,0.3,0c0.1,0,0.1,0,0.1,0.1
			v0.3c0,0,0,0.1,0,0.1c0,0-0.1,0-0.2,0.1c-0.4,0-0.7,0-0.9-0.1C156.4,75.5,156.3,75.3,156.3,75L156.3,75L156.3,75z M156.3,72.6
			h-2.1c-0.2,0-0.4,0-0.6,0.1c-0.2,0-0.3,0.1-0.5,0.2c-0.1,0.1-0.2,0.3-0.3,0.4c-0.1,0.2-0.1,0.4-0.1,0.7c0,0.4,0.1,0.7,0.2,0.9
			c0.2,0.2,0.5,0.2,0.9,0.2c0.2,0,0.4,0,0.6-0.1c0.2-0.1,0.5-0.1,0.7-0.2c0.2-0.1,0.4-0.2,0.6-0.3c0.2-0.1,0.3-0.2,0.5-0.2V72.6z"/>
		<path class="st0" d="M169.4,70.9c0-0.2-0.1-0.4-0.2-0.5c-0.1-0.1-0.2-0.2-0.3-0.3c-0.1-0.1-0.3-0.1-0.6-0.1c-0.2,0-0.3,0-0.5,0.1
			c-0.2,0.1-0.4,0.1-0.6,0.2c-0.2,0.1-0.4,0.2-0.6,0.3c-0.2,0.1-0.3,0.2-0.5,0.3c0,0.1,0,0.2,0,0.3c0,0.1,0,0.3,0,0.4v4
			c0,0.1-0.1,0.2-0.2,0.2h-0.4c-0.1,0-0.1,0-0.1,0c0,0,0-0.1,0-0.2v-4c0-0.2,0-0.4,0-0.6c0-0.2-0.1-0.4-0.1-0.5
			c-0.1-0.1-0.2-0.3-0.3-0.3c-0.1-0.1-0.3-0.1-0.6-0.1c-0.2,0-0.3,0-0.5,0.1c-0.2,0-0.4,0.1-0.5,0.2c-0.2,0.1-0.4,0.2-0.6,0.3
			c-0.2,0.1-0.4,0.2-0.6,0.3v4.7c0,0.1-0.1,0.2-0.2,0.2h-0.3c-0.1,0-0.1,0-0.1,0c0,0,0-0.1,0-0.2v-5.8c0-0.1,0.1-0.2,0.2-0.2h0.3
			c0.1,0,0.1,0,0.1,0c0,0,0,0.1,0,0.2l0,0.5c0.1-0.1,0.3-0.2,0.4-0.3c0.2-0.1,0.3-0.2,0.5-0.3c0.2-0.1,0.4-0.2,0.6-0.2
			c0.2-0.1,0.4-0.1,0.6-0.1c0.5,0,0.8,0.1,1.1,0.2c0.3,0.2,0.4,0.4,0.5,0.7c0.3-0.3,0.7-0.5,1.1-0.7c0.4-0.2,0.8-0.3,1.3-0.3
			c0.4,0,0.7,0,0.9,0.1s0.4,0.2,0.5,0.4s0.2,0.4,0.3,0.7c0,0.3,0.1,0.6,0.1,0.9v4c0,0.1-0.1,0.2-0.2,0.2h-0.3c-0.1,0-0.1,0-0.1,0
			c0,0,0-0.1,0-0.2v-3.8C169.4,71.4,169.4,71.1,169.4,70.9z"/>
		<path class="st0" d="M175.4,75c-0.2,0.1-0.4,0.2-0.6,0.3c-0.2,0.1-0.4,0.2-0.6,0.3c-0.2,0.1-0.4,0.1-0.7,0.2
			c-0.2,0-0.5,0.1-0.8,0.1c-0.6,0-1-0.1-1.2-0.4s-0.4-0.7-0.4-1.3c0-0.7,0.2-1.3,0.5-1.6c0.4-0.3,0.9-0.5,1.7-0.5h2v-0.6
			c0-0.3,0-0.5-0.1-0.6c0-0.2-0.1-0.3-0.3-0.4c-0.1-0.1-0.3-0.2-0.5-0.3c-0.2-0.1-0.5-0.1-0.8-0.1c-0.3,0-0.6,0-0.9,0
			c-0.3,0-0.6,0.1-0.9,0.1c-0.1,0-0.2,0-0.2-0.1l-0.1-0.2c0-0.1,0-0.1,0.1-0.2c0.1-0.1,0.3-0.1,0.5-0.1c0.2,0,0.4-0.1,0.5-0.1
			c0.2,0,0.4,0,0.5,0c0.2,0,0.3,0,0.5,0c0.5,0,0.9,0,1.2,0.1c0.3,0.1,0.5,0.2,0.7,0.4c0.2,0.2,0.3,0.4,0.3,0.7
			c0.1,0.3,0.1,0.6,0.1,1v3.1c0,0.1,0,0.2,0,0.3c0,0.1,0,0.1,0.1,0.1c0,0,0.1,0.1,0.2,0.1c0.1,0,0.2,0,0.3,0c0.1,0,0.1,0,0.1,0.1
			v0.3c0,0,0,0.1,0,0.1c0,0-0.1,0-0.2,0.1c-0.4,0-0.7,0-0.9-0.1C175.6,75.5,175.5,75.3,175.4,75L175.4,75L175.4,75z M175.4,72.6
			h-2.1c-0.2,0-0.4,0-0.6,0.1c-0.2,0-0.3,0.1-0.5,0.2c-0.1,0.1-0.2,0.3-0.3,0.4c-0.1,0.2-0.1,0.4-0.1,0.7c0,0.4,0.1,0.7,0.2,0.9
			c0.2,0.2,0.5,0.2,0.9,0.2c0.2,0,0.4,0,0.6-0.1c0.2-0.1,0.5-0.1,0.7-0.2c0.2-0.1,0.4-0.2,0.6-0.3c0.2-0.1,0.3-0.2,0.5-0.2V72.6z"/>
		<path class="st0" d="M181.7,70.9c0-0.2-0.1-0.4-0.2-0.5c-0.1-0.1-0.2-0.2-0.3-0.3s-0.4-0.1-0.6-0.1c-0.2,0-0.4,0-0.6,0.1
			c-0.2,0.1-0.4,0.1-0.7,0.2c-0.2,0.1-0.4,0.2-0.6,0.3c-0.2,0.1-0.3,0.2-0.4,0.2v4.7c0,0.1-0.1,0.2-0.2,0.2h-0.3c-0.1,0-0.1,0-0.1,0
			s0-0.1,0-0.2v-5.8c0-0.1,0-0.1,0-0.2c0,0,0.1,0,0.1,0h0.3c0.1,0,0.1,0,0.1,0c0,0,0,0.1,0,0.2l0,0.6c0.1-0.1,0.2-0.1,0.4-0.2
			c0.2-0.1,0.4-0.2,0.6-0.3c0.2-0.1,0.4-0.2,0.7-0.2c0.2-0.1,0.5-0.1,0.7-0.1c0.4,0,0.7,0.1,0.9,0.2c0.2,0.1,0.4,0.3,0.5,0.5
			c0.1,0.2,0.2,0.4,0.2,0.7c0,0.3,0.1,0.6,0.1,0.9v3.9c0,0.1-0.1,0.2-0.2,0.2h-0.4c-0.1,0-0.1,0-0.1,0s0-0.1,0-0.2v-3.7
			C181.7,71.4,181.7,71.1,181.7,70.9z"/>
		<path class="st0" d="M186,69.4c0.5,0,1,0.1,1.3,0.2c0.3,0.2,0.6,0.4,0.8,0.6c0.2,0.3,0.3,0.6,0.4,0.9c0.1,0.3,0.1,0.7,0.1,1
			c0,0.2,0,0.3-0.1,0.5c-0.1,0.1-0.2,0.2-0.4,0.2h-3.8c0,0.4,0,0.8,0.1,1.1c0,0.3,0.1,0.5,0.3,0.7c0.1,0.2,0.3,0.3,0.5,0.4
			c0.2,0.1,0.5,0.1,0.9,0.1c0.1,0,0.3,0,0.5,0c0.2,0,0.4,0,0.5-0.1c0.2,0,0.4,0,0.5-0.1c0.2,0,0.3,0,0.4,0c0.1,0,0.1,0,0.2,0.1
			l0,0.2c0,0.1,0,0.2-0.1,0.2c-0.1,0-0.2,0.1-0.4,0.1c-0.2,0-0.4,0.1-0.5,0.1c-0.2,0-0.4,0.1-0.6,0.1c-0.2,0-0.4,0-0.5,0
			c-0.6,0-1-0.1-1.3-0.3c-0.3-0.2-0.6-0.4-0.7-0.7c-0.2-0.3-0.3-0.6-0.3-1c0-0.4-0.1-0.8-0.1-1.2c0-0.4,0-0.7,0.1-1.1
			c0-0.4,0.1-0.7,0.3-1c0.2-0.3,0.4-0.6,0.8-0.8C185,69.5,185.4,69.4,186,69.4z M186,70c-0.4,0-0.7,0-0.9,0.1
			c-0.2,0.1-0.4,0.2-0.5,0.4c-0.1,0.2-0.2,0.4-0.2,0.7c0,0.3-0.1,0.6-0.1,0.9h3.6c0-0.3,0-0.5-0.1-0.8s-0.1-0.5-0.2-0.7
			c-0.1-0.2-0.3-0.4-0.5-0.5C186.8,70.1,186.4,70,186,70z"/>
		<path class="st0" d="M192.3,70.1c-0.2,0-0.3,0.1-0.5,0.1c-0.2,0.1-0.3,0.1-0.5,0.2c-0.2,0.1-0.3,0.1-0.4,0.2
			c-0.1,0.1-0.2,0.1-0.3,0.1v4.7c0,0.1-0.1,0.2-0.2,0.2H190c-0.1,0-0.1,0-0.1,0c0,0,0-0.1,0-0.2v-5.8c0-0.1,0.1-0.2,0.2-0.2h0.3
			c0.1,0,0.1,0,0.1,0c0,0,0,0.1,0,0.2v0.6c0.1,0,0.1-0.1,0.3-0.2c0.1-0.1,0.3-0.2,0.4-0.2c0.1-0.1,0.3-0.2,0.5-0.2s0.3-0.1,0.5-0.2
			c0,0,0.1,0,0.1,0c0,0,0,0,0,0.1l0.1,0.4C192.4,70,192.3,70.1,192.3,70.1z"/>
		<path class="st0" d="M197.2,75c-0.2,0.1-0.4,0.2-0.6,0.3c-0.2,0.1-0.4,0.2-0.6,0.3c-0.2,0.1-0.4,0.1-0.7,0.2
			c-0.2,0-0.5,0.1-0.8,0.1c-0.6,0-1-0.1-1.2-0.4s-0.4-0.7-0.4-1.3c0-0.7,0.2-1.3,0.5-1.6c0.4-0.3,0.9-0.5,1.7-0.5h2v-0.6
			c0-0.3,0-0.5-0.1-0.6c0-0.2-0.1-0.3-0.3-0.4c-0.1-0.1-0.3-0.2-0.5-0.3c-0.2-0.1-0.5-0.1-0.8-0.1c-0.3,0-0.6,0-0.9,0
			c-0.3,0-0.6,0.1-0.9,0.1c-0.1,0-0.2,0-0.2-0.1l-0.1-0.2c0-0.1,0-0.1,0.1-0.2c0.1-0.1,0.3-0.1,0.5-0.1c0.2,0,0.4-0.1,0.5-0.1
			c0.2,0,0.4,0,0.5,0c0.2,0,0.3,0,0.5,0c0.5,0,0.9,0,1.2,0.1c0.3,0.1,0.5,0.2,0.7,0.4c0.2,0.2,0.3,0.4,0.3,0.7
			c0.1,0.3,0.1,0.6,0.1,1v3.1c0,0.1,0,0.2,0,0.3c0,0.1,0,0.1,0.1,0.1c0,0,0.1,0.1,0.2,0.1c0.1,0,0.2,0,0.3,0c0.1,0,0.1,0,0.1,0.1
			v0.3c0,0,0,0.1,0,0.1c0,0-0.1,0-0.2,0.1c-0.4,0-0.7,0-0.9-0.1C197.3,75.5,197.2,75.3,197.2,75L197.2,75L197.2,75z M197.2,72.6
			h-2.1c-0.2,0-0.4,0-0.6,0.1c-0.2,0-0.3,0.1-0.5,0.2c-0.1,0.1-0.2,0.3-0.3,0.4c-0.1,0.2-0.1,0.4-0.1,0.7c0,0.4,0.1,0.7,0.2,0.9
			c0.2,0.2,0.5,0.2,0.9,0.2c0.2,0,0.4,0,0.6-0.1c0.2-0.1,0.5-0.1,0.7-0.2c0.2-0.1,0.4-0.2,0.6-0.3c0.2-0.1,0.3-0.2,0.5-0.2V72.6z"/>
		<path class="st0" d="M206.6,67c0-0.1,0-0.1,0-0.2c0,0,0.1,0,0.1,0h0.3c0.1,0,0.2,0.1,0.2,0.2v8.5c0,0.1,0,0.1,0,0.2
			c0,0-0.1,0-0.1,0h-0.3c-0.1,0-0.1,0-0.1,0s0-0.1,0-0.2v-0.6c-0.1,0.1-0.2,0.1-0.4,0.2c-0.2,0.1-0.4,0.2-0.6,0.3
			c-0.2,0.1-0.4,0.2-0.7,0.2c-0.2,0.1-0.5,0.1-0.7,0.1c-0.4,0-0.7-0.1-0.9-0.2c-0.3-0.1-0.4-0.3-0.6-0.6c-0.1-0.3-0.3-0.6-0.3-1
			c-0.1-0.4-0.1-0.8-0.1-1.4c0-0.5,0-1,0.1-1.4c0.1-0.4,0.2-0.8,0.4-1c0.2-0.3,0.4-0.5,0.7-0.6c0.3-0.1,0.7-0.2,1.2-0.2
			c0.3,0,0.5,0,0.9,0.1c0.3,0.1,0.7,0.2,1,0.3l0,0V67z M206.6,70.3c-0.4-0.1-0.7-0.2-1-0.3c-0.3-0.1-0.6-0.1-0.9-0.1
			c-0.3,0-0.6,0-0.8,0.1c-0.2,0.1-0.4,0.2-0.5,0.5c-0.1,0.2-0.2,0.5-0.2,0.8c0,0.3-0.1,0.8-0.1,1.3c0,0.5,0,0.9,0.1,1.2
			c0,0.3,0.1,0.6,0.2,0.7s0.2,0.3,0.4,0.4c0.2,0.1,0.4,0.1,0.6,0.1c0.2,0,0.4,0,0.6-0.1c0.2-0.1,0.4-0.1,0.7-0.2
			c0.2-0.1,0.4-0.2,0.6-0.3c0.2-0.1,0.3-0.2,0.4-0.2V70.3z"/>
		<path class="st0" d="M211,69.4c0.5,0,1,0.1,1.3,0.2c0.3,0.2,0.6,0.4,0.8,0.6c0.2,0.3,0.3,0.6,0.4,0.9c0.1,0.3,0.1,0.7,0.1,1
			c0,0.2,0,0.3-0.1,0.5c-0.1,0.1-0.2,0.2-0.4,0.2h-3.8c0,0.4,0,0.8,0.1,1.1c0,0.3,0.1,0.5,0.3,0.7c0.1,0.2,0.3,0.3,0.5,0.4
			s0.5,0.1,0.9,0.1c0.1,0,0.3,0,0.5,0c0.2,0,0.4,0,0.5-0.1c0.2,0,0.4,0,0.5-0.1s0.3,0,0.4,0c0.1,0,0.1,0,0.2,0.1l0,0.2
			c0,0.1,0,0.2-0.1,0.2c-0.1,0-0.2,0.1-0.4,0.1c-0.2,0-0.4,0.1-0.5,0.1c-0.2,0-0.4,0.1-0.6,0.1c-0.2,0-0.4,0-0.5,0
			c-0.6,0-1-0.1-1.3-0.3c-0.3-0.2-0.6-0.4-0.7-0.7c-0.2-0.3-0.3-0.6-0.3-1c0-0.4-0.1-0.8-0.1-1.2c0-0.4,0-0.7,0.1-1.1
			c0-0.4,0.1-0.7,0.3-1c0.2-0.3,0.4-0.6,0.8-0.8C210,69.5,210.4,69.4,211,69.4z M211,70c-0.4,0-0.7,0-0.9,0.1
			c-0.2,0.1-0.4,0.2-0.5,0.4c-0.1,0.2-0.2,0.4-0.2,0.7s-0.1,0.6-0.1,0.9h3.6c0-0.3,0-0.5-0.1-0.8s-0.1-0.5-0.2-0.7
			c-0.1-0.2-0.3-0.4-0.5-0.5C211.7,70.1,211.4,70,211,70z"/>
		<path class="st0" d="M221.8,70.9c0-0.2-0.1-0.4-0.2-0.5c-0.1-0.1-0.2-0.2-0.3-0.3s-0.4-0.1-0.6-0.1c-0.2,0-0.4,0-0.6,0.1
			c-0.2,0.1-0.4,0.1-0.7,0.2c-0.2,0.1-0.4,0.2-0.6,0.3c-0.2,0.1-0.3,0.2-0.4,0.2v4.7c0,0.1-0.1,0.2-0.2,0.2h-0.3c-0.1,0-0.1,0-0.1,0
			s0-0.1,0-0.2V67c0-0.1,0.1-0.2,0.2-0.2h0.3c0.1,0,0.1,0,0.1,0c0,0,0,0.1,0,0.2v3.3c0.1-0.1,0.2-0.1,0.4-0.2
			c0.2-0.1,0.4-0.2,0.6-0.3c0.2-0.1,0.4-0.2,0.7-0.2c0.2-0.1,0.5-0.1,0.7-0.1c0.4,0,0.7,0.1,0.9,0.2c0.2,0.1,0.4,0.3,0.5,0.5
			c0.1,0.2,0.2,0.4,0.2,0.7c0,0.3,0.1,0.6,0.1,0.9v3.9c0,0.1-0.1,0.2-0.2,0.2H222c-0.1,0-0.1,0-0.1,0s0-0.1,0-0.2v-3.7
			C221.8,71.4,221.8,71.1,221.8,70.9z"/>
		<path class="st0" d="M227.9,75c-0.2,0.1-0.4,0.2-0.6,0.3c-0.2,0.1-0.4,0.2-0.6,0.3s-0.4,0.1-0.7,0.2c-0.2,0-0.5,0.1-0.8,0.1
			c-0.6,0-1-0.1-1.2-0.4s-0.4-0.7-0.4-1.3c0-0.7,0.2-1.3,0.5-1.6c0.4-0.3,0.9-0.5,1.7-0.5h2v-0.6c0-0.3,0-0.5-0.1-0.6
			c0-0.2-0.1-0.3-0.3-0.4c-0.1-0.1-0.3-0.2-0.5-0.3c-0.2-0.1-0.5-0.1-0.8-0.1c-0.3,0-0.6,0-0.9,0c-0.3,0-0.6,0.1-0.9,0.1
			c-0.1,0-0.2,0-0.2-0.1l-0.1-0.2c0-0.1,0-0.1,0.1-0.2c0.1-0.1,0.3-0.1,0.5-0.1c0.2,0,0.4-0.1,0.5-0.1c0.2,0,0.4,0,0.5,0
			c0.2,0,0.3,0,0.5,0c0.5,0,0.9,0,1.2,0.1c0.3,0.1,0.5,0.2,0.7,0.4c0.2,0.2,0.3,0.4,0.3,0.7c0.1,0.3,0.1,0.6,0.1,1v3.1
			c0,0.1,0,0.2,0,0.3c0,0.1,0,0.1,0.1,0.1c0,0,0.1,0.1,0.2,0.1c0.1,0,0.2,0,0.3,0c0.1,0,0.1,0,0.1,0.1v0.3c0,0,0,0.1,0,0.1
			c0,0-0.1,0-0.2,0.1c-0.4,0-0.7,0-0.9-0.1C228,75.5,227.9,75.3,227.9,75L227.9,75L227.9,75z M227.9,72.6h-2.1c-0.2,0-0.4,0-0.6,0.1
			c-0.2,0-0.3,0.1-0.5,0.2c-0.1,0.1-0.2,0.3-0.3,0.4c-0.1,0.2-0.1,0.4-0.1,0.7c0,0.4,0.1,0.7,0.2,0.9c0.2,0.2,0.5,0.2,0.9,0.2
			c0.2,0,0.4,0,0.6-0.1c0.2-0.1,0.5-0.1,0.7-0.2c0.2-0.1,0.4-0.2,0.6-0.3c0.2-0.1,0.3-0.2,0.5-0.2V72.6z"/>
		<path class="st0" d="M232.4,69.4c0.1,0,0.2,0,0.4,0c0.2,0,0.3,0,0.5,0c0.2,0,0.3,0,0.5,0.1c0.2,0,0.3,0.1,0.4,0.1
			c0.1,0,0.1,0.1,0.1,0.1c0,0,0,0.1,0,0.1l-0.1,0.2c0,0,0,0.1-0.1,0.1c0,0-0.1,0-0.2,0c-0.1,0-0.2,0-0.4,0c-0.1,0-0.3,0-0.4,0
			c-0.2,0-0.3,0-0.5,0c-0.1,0-0.3,0-0.4,0c-0.3,0-0.6,0-0.8,0.1c-0.2,0.1-0.4,0.2-0.5,0.4c-0.1,0.2-0.2,0.5-0.3,0.8
			c0,0.3-0.1,0.7-0.1,1.2c0,0.5,0,0.9,0.1,1.3c0.1,0.3,0.1,0.6,0.3,0.8c0.1,0.2,0.3,0.3,0.5,0.4c0.2,0.1,0.5,0.1,0.8,0.1
			c0.1,0,0.2,0,0.3,0c0.1,0,0.3,0,0.5,0c0.2,0,0.3,0,0.5,0c0.2,0,0.3,0,0.5,0c0.1,0,0.2,0,0.2,0.1l0,0.2c0,0,0,0.1,0,0.1
			s-0.1,0.1-0.1,0.1c-0.2,0.1-0.5,0.1-0.8,0.2s-0.7,0.1-1,0.1c-0.5,0-0.9-0.1-1.3-0.2c-0.3-0.2-0.6-0.4-0.7-0.7s-0.3-0.6-0.3-1
			c-0.1-0.4-0.1-0.8-0.1-1.3c0-0.4,0-0.8,0.1-1.2s0.2-0.7,0.3-1c0.2-0.3,0.4-0.5,0.7-0.7C231.4,69.5,231.9,69.4,232.4,69.4z"/>
		<path class="st0" d="M237.6,69.4c0.5,0,1,0.1,1.3,0.2c0.3,0.2,0.6,0.4,0.8,0.6c0.2,0.3,0.3,0.6,0.4,0.9c0.1,0.3,0.1,0.7,0.1,1
			c0,0.2,0,0.3-0.1,0.5c-0.1,0.1-0.2,0.2-0.4,0.2h-3.8c0,0.4,0,0.8,0.1,1.1c0,0.3,0.1,0.5,0.3,0.7c0.1,0.2,0.3,0.3,0.5,0.4
			s0.5,0.1,0.9,0.1c0.1,0,0.3,0,0.5,0c0.2,0,0.4,0,0.5-0.1c0.2,0,0.4,0,0.5-0.1s0.3,0,0.4,0c0.1,0,0.1,0,0.2,0.1l0,0.2
			c0,0.1,0,0.2-0.1,0.2c-0.1,0-0.2,0.1-0.4,0.1c-0.2,0-0.4,0.1-0.5,0.1c-0.2,0-0.4,0.1-0.6,0.1c-0.2,0-0.4,0-0.5,0
			c-0.6,0-1-0.1-1.3-0.3c-0.3-0.2-0.6-0.4-0.7-0.7c-0.2-0.3-0.3-0.6-0.3-1c0-0.4-0.1-0.8-0.1-1.2c0-0.4,0-0.7,0.1-1.1
			c0-0.4,0.1-0.7,0.3-1c0.2-0.3,0.4-0.6,0.8-0.8C236.5,69.5,237,69.4,237.6,69.4z M237.6,70c-0.4,0-0.7,0-0.9,0.1
			c-0.2,0.1-0.4,0.2-0.5,0.4c-0.1,0.2-0.2,0.4-0.2,0.7s-0.1,0.6-0.1,0.9h3.6c0-0.3,0-0.5-0.1-0.8s-0.1-0.5-0.2-0.7
			c-0.1-0.2-0.3-0.4-0.5-0.5C238.3,70.1,238,70,237.6,70z"/>
		<path class="st0" d="M243.8,70.1c-0.2,0-0.3,0.1-0.5,0.1c-0.2,0.1-0.3,0.1-0.5,0.2c-0.2,0.1-0.3,0.1-0.4,0.2
			c-0.1,0.1-0.2,0.1-0.3,0.1v4.7c0,0.1-0.1,0.2-0.2,0.2h-0.3c-0.1,0-0.1,0-0.1,0s0-0.1,0-0.2v-5.8c0-0.1,0.1-0.2,0.2-0.2h0.3
			c0.1,0,0.1,0,0.1,0c0,0,0,0.1,0,0.2v0.6c0.1,0,0.1-0.1,0.3-0.2c0.1-0.1,0.3-0.2,0.4-0.2c0.1-0.1,0.3-0.2,0.5-0.2
			c0.2-0.1,0.3-0.1,0.5-0.2c0,0,0.1,0,0.1,0c0,0,0,0,0,0.1l0.1,0.4C243.9,70,243.9,70.1,243.8,70.1z"/>
		<path class="st0" d="M248.6,71.6V75h3.8c0.1,0,0.1,0,0.2,0c0,0,0,0.1,0,0.1v0.3c0,0.1,0,0.1,0,0.1c0,0-0.1,0-0.2,0h-4.3
			c-0.1,0-0.1,0-0.1,0c0,0,0-0.1,0-0.1v-8.1c0-0.1,0-0.1,0-0.1c0,0,0.1,0,0.1,0h4.3c0.1,0,0.1,0,0.2,0c0,0,0,0.1,0,0.1v0.3
			c0,0.1,0,0.1,0,0.1c0,0-0.1,0-0.2,0h-3.7V71h3.3c0.1,0,0.1,0,0.2,0c0,0,0,0.1,0,0.1v0.3c0,0.1,0,0.1,0,0.1c0,0-0.1,0-0.2,0
			L248.6,71.6L248.6,71.6z"/>
		<path class="st0" d="M254.4,74.3c0,0.2,0.1,0.4,0.2,0.5c0.1,0.1,0.2,0.2,0.4,0.3c0.2,0.1,0.4,0.1,0.6,0.1c0.2,0,0.4,0,0.6-0.1
			c0.2-0.1,0.4-0.1,0.7-0.2c0.2-0.1,0.4-0.2,0.6-0.3c0.2-0.1,0.3-0.2,0.4-0.2v-4.7c0-0.1,0.1-0.2,0.2-0.2h0.3c0.1,0,0.1,0,0.1,0
			c0,0,0,0.1,0,0.2v5.8c0,0.1,0,0.1,0,0.2c0,0-0.1,0-0.1,0H258c-0.1,0-0.1,0-0.1,0c0,0,0-0.1,0-0.2v-0.6c-0.1,0.1-0.2,0.1-0.4,0.2
			c-0.2,0.1-0.4,0.2-0.6,0.3c-0.2,0.1-0.4,0.2-0.7,0.2c-0.2,0.1-0.5,0.1-0.7,0.1c-0.4,0-0.7-0.1-0.9-0.2c-0.2-0.1-0.4-0.3-0.5-0.5
			c-0.1-0.2-0.2-0.4-0.3-0.7c0-0.3-0.1-0.6-0.1-0.9v-3.8c0-0.1,0.1-0.2,0.2-0.2h0.4c0.1,0,0.1,0,0.1,0c0,0,0,0.1,0,0.2v3.7
			C254.4,73.7,254.4,74,254.4,74.3z"/>
		<path class="st0" d="M262.4,70.1c-0.2,0-0.3,0.1-0.5,0.1c-0.2,0.1-0.3,0.1-0.5,0.2c-0.2,0.1-0.3,0.1-0.4,0.2
			c-0.1,0.1-0.2,0.1-0.3,0.1v4.7c0,0.1-0.1,0.2-0.2,0.2h-0.3c-0.1,0-0.1,0-0.1,0c0,0,0-0.1,0-0.2v-5.8c0-0.1,0.1-0.2,0.2-0.2h0.3
			c0.1,0,0.1,0,0.1,0c0,0,0,0.1,0,0.2v0.6c0.1,0,0.1-0.1,0.3-0.2c0.1-0.1,0.3-0.2,0.4-0.2c0.1-0.1,0.3-0.2,0.5-0.2
			c0.2-0.1,0.3-0.1,0.5-0.2c0,0,0.1,0,0.1,0c0,0,0,0,0,0.1l0.1,0.4C262.5,70,262.5,70.1,262.4,70.1z"/>
		<path class="st0" d="M265.6,75.8c-0.6,0-1-0.1-1.4-0.3c-0.3-0.2-0.6-0.5-0.7-0.8c-0.2-0.3-0.3-0.7-0.3-1.1c0-0.4-0.1-0.8-0.1-1.2
			c0-0.3,0-0.7,0.1-1c0-0.4,0.2-0.7,0.3-1c0.2-0.3,0.4-0.6,0.8-0.8c0.3-0.2,0.8-0.3,1.3-0.3c0.6,0,1,0.1,1.4,0.3
			c0.3,0.2,0.6,0.4,0.8,0.7c0.2,0.3,0.3,0.6,0.3,1c0.1,0.4,0.1,0.8,0.1,1.2c0,0.4,0,0.8-0.1,1.2c0,0.4-0.1,0.7-0.3,1.1
			c-0.2,0.3-0.4,0.6-0.8,0.8C266.7,75.7,266.2,75.8,265.6,75.8z M265.6,70c-0.4,0-0.7,0.1-0.9,0.2c-0.2,0.1-0.4,0.3-0.5,0.5
			c-0.1,0.2-0.2,0.5-0.3,0.8c0,0.3-0.1,0.7-0.1,1.1s0,0.8,0.1,1.1c0,0.3,0.1,0.6,0.3,0.8c0.1,0.2,0.3,0.4,0.5,0.5
			c0.2,0.1,0.5,0.2,0.9,0.2c0.4,0,0.7-0.1,0.9-0.2c0.2-0.1,0.4-0.3,0.6-0.5c0.1-0.2,0.2-0.5,0.3-0.8c0.1-0.3,0.1-0.7,0.1-1.1
			c0-0.4,0-0.8-0.1-1.1c0-0.3-0.1-0.6-0.3-0.8c-0.1-0.2-0.3-0.4-0.6-0.5C266.3,70.1,266,70,265.6,70z"/>
		<path class="st0" d="M270.2,77.7c0,0.1,0,0.1,0,0.2c0,0-0.1,0-0.1,0h-0.3c-0.1,0-0.2-0.1-0.2-0.2v-8c0-0.1,0.1-0.2,0.2-0.2h0.3
			c0.1,0,0.1,0,0.1,0c0,0,0,0.1,0,0.2l0,0.6c0.1-0.1,0.2-0.1,0.4-0.2c0.2-0.1,0.4-0.2,0.6-0.3c0.2-0.1,0.4-0.2,0.7-0.2
			c0.2-0.1,0.5-0.1,0.7-0.1c0.4,0,0.7,0.1,0.9,0.2s0.4,0.3,0.6,0.6c0.1,0.3,0.3,0.6,0.3,1c0.1,0.4,0.1,0.8,0.1,1.4
			c0,0.5,0,1-0.1,1.4c-0.1,0.4-0.2,0.8-0.4,1c-0.2,0.3-0.4,0.5-0.7,0.6c-0.3,0.1-0.7,0.2-1.2,0.2c-0.2,0-0.5,0-0.8-0.1
			c-0.3-0.1-0.7-0.2-1-0.3l0,0V77.7z M270.2,74.8c0.4,0.1,0.7,0.2,1,0.3c0.3,0.1,0.6,0.1,0.9,0.1c0.3,0,0.6,0,0.8-0.1
			c0.2-0.1,0.4-0.2,0.5-0.5c0.1-0.2,0.2-0.5,0.2-0.8c0-0.3,0.1-0.8,0.1-1.3c0-0.5,0-0.9-0.1-1.2c0-0.3-0.1-0.6-0.2-0.8
			c-0.1-0.2-0.2-0.3-0.4-0.4c-0.2-0.1-0.4-0.1-0.6-0.1c-0.2,0-0.4,0-0.6,0.1c-0.2,0.1-0.4,0.1-0.6,0.2c-0.2,0.1-0.4,0.2-0.6,0.3
			c-0.2,0.1-0.3,0.2-0.4,0.2V74.8z"/>
		<path class="st0" d="M279.7,75c-0.2,0.1-0.4,0.2-0.6,0.3c-0.2,0.1-0.4,0.2-0.6,0.3s-0.4,0.1-0.7,0.2c-0.2,0-0.5,0.1-0.8,0.1
			c-0.6,0-1-0.1-1.2-0.4c-0.3-0.3-0.4-0.7-0.4-1.3c0-0.7,0.2-1.3,0.5-1.6c0.4-0.3,0.9-0.5,1.7-0.5h2v-0.6c0-0.3,0-0.5-0.1-0.6
			c0-0.2-0.1-0.3-0.3-0.4c-0.1-0.1-0.3-0.2-0.5-0.3c-0.2-0.1-0.5-0.1-0.8-0.1c-0.3,0-0.6,0-0.9,0c-0.3,0-0.6,0.1-0.9,0.1
			c-0.1,0-0.2,0-0.2-0.1l-0.1-0.2c0-0.1,0-0.1,0.1-0.2c0.1-0.1,0.3-0.1,0.5-0.1c0.2,0,0.4-0.1,0.5-0.1c0.2,0,0.4,0,0.5,0
			c0.2,0,0.3,0,0.5,0c0.5,0,0.9,0,1.2,0.1c0.3,0.1,0.5,0.2,0.7,0.4c0.2,0.2,0.3,0.4,0.3,0.7c0.1,0.3,0.1,0.6,0.1,1v3.1
			c0,0.1,0,0.2,0,0.3c0,0.1,0,0.1,0.1,0.1c0,0,0.1,0.1,0.2,0.1c0.1,0,0.2,0,0.3,0c0.1,0,0.1,0,0.1,0.1v0.3c0,0,0,0.1,0,0.1
			c0,0-0.1,0-0.2,0.1c-0.4,0-0.7,0-0.9-0.1C279.8,75.5,279.7,75.3,279.7,75L279.7,75L279.7,75z M279.7,72.6h-2.1
			c-0.2,0-0.4,0-0.6,0.1c-0.2,0-0.3,0.1-0.5,0.2c-0.1,0.1-0.2,0.3-0.3,0.4c-0.1,0.2-0.1,0.4-0.1,0.7c0,0.4,0.1,0.7,0.2,0.9
			c0.2,0.2,0.5,0.2,0.9,0.2c0.2,0,0.4,0,0.6-0.1c0.2-0.1,0.5-0.1,0.7-0.2c0.2-0.1,0.4-0.2,0.6-0.3c0.2-0.1,0.3-0.2,0.5-0.2V72.6z"/>
		<path class="st0" d="M282.9,67.9c0,0.4-0.1,0.8-0.3,1.1c-0.2,0.3-0.4,0.5-0.6,0.7c0,0-0.1,0-0.1,0c0,0-0.1,0-0.1,0l-0.2-0.2
			c0,0,0-0.1,0-0.1c0.2-0.2,0.4-0.5,0.4-0.8c0-0.1,0-0.3-0.1-0.4c-0.1-0.1-0.1-0.3-0.2-0.4c0,0,0-0.1,0-0.1c0,0,0-0.1,0.1-0.1
			l0.4-0.3c0.1-0.1,0.2-0.1,0.3,0c0.1,0.1,0.2,0.2,0.2,0.3C282.9,67.7,282.9,67.8,282.9,67.9z M284.4,67.9c0,0.4-0.1,0.8-0.3,1.1
			c-0.2,0.3-0.4,0.5-0.6,0.7c0,0-0.1,0-0.1,0c0,0-0.1,0-0.1,0l-0.2-0.2c0,0,0-0.1,0-0.1c0.2-0.2,0.4-0.5,0.4-0.8
			c0-0.1,0-0.3-0.1-0.4c-0.1-0.1-0.1-0.3-0.2-0.4c0,0,0-0.1,0-0.1c0,0,0-0.1,0.1-0.1l0.4-0.3c0.1-0.1,0.2-0.1,0.3,0
			c0.1,0.1,0.2,0.2,0.2,0.3C284.3,67.7,284.4,67.8,284.4,67.9z"/>
	</g>
</g>
</svg>
